<?xml version="1.0" encoding="UTF-8" standalone="no"?><svg xmlns:android="http://schemas.android.com/apk/res/android" height="2835" width="2835" xmlns="http://www.w3.org/2000/svg">
  <path d="M1445.95,2212.42c3.02,5.37 5.44,9.69 8.07,14.37c-3.86,1.7 -6.7,-0.88 -9.77,-1.26c-6.49,-0.81 -8.38,0.09 -10.8,5.89c-1.1,2.63 -0.37,6.4 -4,7.52c-5.08,1.57 -10.21,3.11 -15.57,3.33c-1.8,0.07 -2.84,-1.51 -3.84,-2.85c-4.85,-6.47 -10.99,-6.43 -17.89,-3.84c-5.55,2.08 -10.77,5.26 -17.75,5.77c1.25,-9.87 8.27,-17.26 10.32,-26.58c-1.1,-0.38 -1.99,-0.94 -2.89,-0.95c-5.28,-0.09 -11.41,-3.62 -15.53,-0.47c-3.82,2.92 -1.57,9.4 -2.03,14.29c-1.31,14.06 -8.26,23.56 -21.61,28.34c-12.98,4.65 -26.63,5.81 -40.12,7.78c-2.5,0.37 -4.4,-0.2 -5.9,-2.57c-4.26,-6.75 -8.85,-13.29 -13.12,-20.04c-3.66,-5.79 -5.35,-12.01 -4.11,-19.03c1.75,-9.89 -1.01,-13.68 -11.23,-15.66c-10.46,-2.02 -20.96,-3.81 -31.47,-5.58c-14.11,-2.39 -28.27,-4.52 -42.36,-7.07c-4.7,-0.85 -7.52,0.31 -9.48,4.78c-1.98,4.53 -4.61,8.79 -7.5,14.19c-6.63,-4.73 -12.79,-9.02 -18.83,-13.49c-5.36,-3.96 -10.57,-8.12 -15.84,-12.2c-8.76,-6.8 -18.38,-11.79 -28.93,-15.4c-97.6,-33.44 -187.56,-80.95 -268.08,-145.83c-3.23,-2.6 -6.1,-6.29 -11.09,-5.67c-0.64,17.98 -2.73,21.93 -11.67,22.29c-7.33,0.3 -15.76,-7.13 -16.55,-14.58c-0.93,-8.7 3.63,-11.88 21.45,-14.4c-11.6,-10.81 -20.92,-22.97 -32.83,-32.58c-6.81,-5.5 -14.33,-9.74 -23.08,-11.34c-9.35,-1.71 -14.72,-6.84 -15.55,-16.67c-0.76,-8.98 -4.85,-16.92 -11.11,-22.99c-18.09,-17.53 -31.69,-38.56 -46.78,-58.43c-10.33,-13.61 -21.87,-26 -35.49,-36.38c-2.69,-2.05 -5.59,-3.9 -0.8,-7.31c3.09,-2.19 -0.12,-4.84 -1.24,-6.89c-10.69,-19.59 -21.53,-39.1 -32.32,-58.63c-5.32,-9.62 -10.58,-19.27 -15.96,-28.86c-3.63,-6.46 -3.73,-6.49 -10.27,-3.38c-3.05,1.45 -6.17,2.31 -9.53,2.7c-8.09,0.96 -15.88,-10.74 -10.41,-17.55c3.54,-4.41 6.59,-9.22 10.06,-13.68c2.64,-3.39 3.63,-6.4 1.8,-10.88c-5.54,-13.55 -10.6,-27.31 -15.51,-41.11c-1.49,-4.19 -4.03,-6.52 -7.96,-8.2c-10.1,-4.33 -20.06,-8.96 -30.1,-13.42c-11.78,-5.24 -18.81,-14.02 -21.85,-26.7c-2.64,-11.04 -4.69,-22.12 -6.22,-33.34c-0.5,-3.66 0.4,-5.5 4.05,-6.54c5.11,-1.46 10.18,-3.18 15.07,-5.25c9.95,-4.22 14.81,-11.68 14.41,-22.75c-0.45,-12.7 -3.18,-25.1 -4.56,-37.67c-3.62,-32.77 -7.78,-65.48 -11.32,-98.26c-0.59,-5.47 -2.3,-6.98 -7.72,-7.38c-15.88,-1.17 -30.4,-6.91 -44,-15.06c-5.45,-3.26 -8.8,-7.64 -9.53,-14.3c-0.55,-4.98 -1.18,-9.93 -0.97,-14.92c0.55,-13.11 6.34,-22.72 18.57,-28.39c12.23,-5.67 25.41,-7.81 38.29,-11.08c10.26,-2.61 10.53,-2.5 10.74,-12.98c0.4,-20 1.04,-39.99 3.06,-59.88c2.37,-23.32 8.96,-45.73 16.33,-67.85c10.2,-30.64 20.86,-61.12 31.56,-91.58c2.29,-6.53 2.55,-11.74 -2.82,-17.26c-4.9,-5.04 -1.74,-13.06 5.14,-13.86c9.2,-1.07 14.27,-6.41 17.24,-14.51c2.87,-7.8 5.35,-15.77 10.15,-22.72c2.51,-3.64 1.45,-6.68 -1.48,-9.75c-3.9,-4.09 -7.57,-8.43 -11.04,-12.89c-3.31,-4.25 -5.51,-9.07 -6.08,-14.56c-0.63,-6.08 0.87,-11.52 5.87,-15.09c5.83,-4.17 10.56,-9.13 13.92,-15.4c1.89,-3.53 4.25,-4.28 8.19,-2.98c12.88,4.23 23.54,0.03 32.44,-9.55c2.71,-2.92 5.26,-6.03 7.61,-9.25c2.34,-3.21 5.57,-6.24 6,-10.21c0.42,-3.9 -3.88,-5.86 -5.75,-8.94c-3.42,-5.64 -4.92,-11.56 -4.31,-18.11c1.92,-20.69 21.55,-38.05 42.12,-35.38c11.3,1.47 18.43,-2.75 25.05,-10.6c69.11,-81.98 151.32,-147.91 245.01,-199.72c8.48,-4.69 14.68,-10.95 19.04,-19.7c8.54,-17.15 21.98,-23.12 40.56,-18.44c9.45,2.38 18.46,1.89 27.25,-2.26c5.45,-2.57 11.1,-4.32 17.02,-5.59c18.41,-3.94 32.77,-14.2 44.09,-29.03c5.81,-7.61 10.45,-15.98 15.83,-25.59c5.14,6.88 9.73,12.48 13.69,18.49c2.81,4.26 5.95,5.19 10.89,4.37c31.53,-5.23 63.1,-10.25 94.69,-15.1c10.28,-1.58 19.73,-5.89 29.82,-8.14c26.63,-5.95 53.56,-5.77 80.57,-5.09c43.07,1.08 85.56,7.66 128.1,13.66c12.32,1.74 24.52,1.63 36.85,0.15c4.81,-0.58 11.33,-4.16 13.07,4.91c0.21,1.07 3.37,1.76 5.25,2.31c34.81,10.22 69.67,20.3 104.45,30.64c5.84,1.74 11.08,1.32 17.05,-1.72c-4.55,-11.41 -6.73,-23.36 -6.74,-35.65c-0,-7.13 1.39,-8.8 7.36,-11.39c5.11,-2.22 9.77,-1.13 12.46,3.03c6.45,9.99 16.63,11.08 26.78,12.76c7.84,1.3 15.66,2.75 24.37,4.29c-0.9,8.17 -4.13,15.08 -6.03,22.32c-0.89,3.42 -3.78,7.4 3.06,8.7c1.77,0.34 2.97,4.14 4.26,6.45c4.69,8.45 9.2,17 14.96,24.8c3.33,4.51 6.79,8.91 12.74,12.21c1.4,-4.51 0.4,-8.28 -0.11,-11.99c-1.53,-11.22 -3.45,-22.39 -3.4,-33.77c0.08,-17.16 11.41,-34.35 27.23,-40.91c9.61,-3.98 18.93,-3.65 27.3,3.09c5.19,4.17 10.23,8.56 15.02,13.17c3.75,3.61 7.44,4.85 12.6,3.02c5.2,-1.85 10.51,-3.72 16.47,-4.09c-16.18,20.61 -9.92,33.99 1.56,50.03c2.32,3.24 4.94,6.25 7.39,9.4c0.14,0.18 -0.07,0.64 -0.13,1.04c-1.68,1.63 -3.71,0.53 -5.52,0.42c-6.19,-0.37 -11.83,1.64 -14.75,6.75c-7.9,13.81 -20.56,21.41 -34.07,28.2c-0.87,0.44 -1.56,1.22 -3.02,2.4c151.84,93.19 265.34,219.78 338.64,382.38c7.05,-3.23 13.36,-6.14 19.69,-9.02c6.01,-2.74 12.04,-5.45 18.53,-8.38c5.44,9.76 10.6,19.02 16.23,29.12c2.79,-2.91 5.7,-4.31 9.58,-3.29c10.28,2.7 21.07,3.45 30.88,7.96c4.4,2.02 8.95,2.31 13.67,1.94c8.65,-0.69 15.57,2.72 21.17,9.13c4.63,5.31 8.63,11.13 11.24,17.63c5.53,13.77 2.42,26.16 -7.28,37.01c-5.14,5.75 -11.41,10.22 -17.92,14.3c-6.49,4.07 -13.07,7.99 -19.58,12.03c-6.22,3.86 -10.77,9.32 -12.24,16.4c-1.82,8.71 -6.77,15.04 -13.07,20.7c-2.48,2.23 -5.18,4.25 -7.42,6.7c-3.7,4.05 -7.87,6.91 -14.9,6.26c4.64,7.21 8.55,13.35 12.51,19.45c7.17,11.07 12.58,22.82 12.64,36.29c0.05,10.97 5.41,17.87 16.25,20.81c-2.06,4.41 -5.55,4.14 -8.01,4.9c-6.87,2.14 -10.61,6.68 -11.72,13.5c-0.69,4.26 -1.25,8.6 -1.28,12.91c-0.05,7.98 0,15.99 0.6,23.94c0.91,12.07 7.4,20.88 18.42,25.25c9.53,3.78 13.04,10.62 13.75,19.93c0.76,9.95 0.51,19.87 -0.09,30.62c-10.08,-1.97 -19.39,-3.79 -29.31,-5.74c-0.85,8.98 -1.83,17.19 -2.36,25.44c-2.24,34.6 -6.21,68.98 -12.24,103.13c-2.32,13.13 -1.48,25.63 6.8,37.22c6.53,9.14 4.6,18.31 -3.76,25.85c-0.74,0.67 -1.47,1.39 -2.33,1.88c-13.64,7.82 -20.36,20.49 -24.89,34.88c-13.52,42.97 -30.25,84.68 -50.89,124.71c-68.23,132.31 -161.95,242.06 -287.45,323.53c-9.78,6.35 -19.39,12.97 -29.26,19.18c-7.39,4.65 -14.49,9.54 -19.57,16.79c-2.14,3.06 -4.55,4.8 -8.35,2.84c-2.78,-1.43 -5.22,0.12 -7.58,1.21c-13.01,5.99 -25.87,12.25 -38.35,19.31c-5.33,3.02 -8.81,7.07 -10.16,12.87c-5.2,22.44 -22.34,30.9 -42.16,36.35c-2.13,0.58 -3.85,0.4 -5.54,-1.03c-12.45,-10.55 -27.18,-10.93 -41.72,-7.48c-63.51,15.05 -127.66,26.98 -191.62,39.82C1449.9,2210.81 1448.39,2211.56 1445.95,2212.42zM1889.86,1424.54c-3.98,-12.68 -8.1,-25.32 -11.92,-38.04c-15.98,-53.24 -31.81,-106.52 -47.83,-159.75c-3.55,-11.79 -7.35,-23.57 -12.98,-34.56c-8.18,-15.97 -21.43,-18.47 -35.23,-7.1c-7.24,5.97 -11.02,13.97 -13.99,22.61c-25.9,75.42 -58.69,147.88 -94.36,219.1c-0.89,1.78 -1.06,4.61 -4.67,4.64c-1.01,-6.12 -2.09,-11.95 -2.91,-17.82c-3.84,-27.37 -7.5,-54.77 -11.42,-82.13c-5.39,-37.58 -10.69,-75.17 -14.85,-112.91c-3.47,-31.43 -7.03,-62.87 -13.68,-93.86c-2.66,-12.41 -5.53,-24.78 -12.6,-35.56c-10.85,-16.53 -29.06,-17.49 -41.8,-2.43c-10.65,12.58 -13.94,27.04 -10.76,43c3.52,17.62 8.09,35.07 10.88,52.8c10.55,67.1 18.82,134.55 30.31,201.51c6.53,38.06 12.7,76.2 22.01,113.72c3.06,12.31 7.1,24.27 13.65,35.26c4.06,6.81 9.46,12 17,14.75c10.54,3.84 15.78,2.56 22.89,-6.08c3.37,-4.1 6.41,-8.52 9.26,-13.01c9.66,-15.22 17.61,-31.37 25.22,-47.66c25.93,-55.53 48.94,-112.33 73.65,-168.4c1.58,-3.59 2.4,-7.62 5.47,-10.47c1.82,1.85 2.11,4.21 2.72,6.45c11.22,41.81 23.44,83.32 36.37,124.62c6.26,20.01 12.94,39.91 21.42,59.13c4.48,10.16 10.01,19.58 18.51,26.96c6.67,5.79 14.46,8.95 23.08,6.5c11.98,-3.4 21.48,-10.02 25.98,-22.63c8.4,-23.51 17.06,-46.94 25.96,-70.27c34.6,-90.68 64.7,-182.63 79.66,-278.92c2.76,-17.78 5.3,-35.58 5.6,-53.62c0.19,-10.84 -1.28,-21.25 -6.54,-30.91c-3.59,-6.6 -9.05,-10.41 -16.44,-11.73c-18.37,-3.28 -32.94,7.66 -34.85,26.45c-1.79,17.56 -2.91,35.21 -5.14,52.71c-9.76,76.53 -27.05,151.35 -52.01,224.36C1908.22,1382.63 1900.57,1403.9 1889.86,1424.54zM912.05,1287.37c-0.66,-0.29 -1.32,-0.58 -1.98,-0.87c0.52,-6.29 1.09,-12.57 1.56,-18.87c3.89,-52.18 9.96,-104.07 19.41,-155.57c2.23,-12.16 0.13,-24.03 -5.72,-34.86c-8.82,-16.33 -31.51,-19.02 -44.24,-5.54c-6.14,6.5 -9.31,14.5 -11.2,23.07c-6.07,27.38 -8.74,55.27 -11.35,83.09c-5.16,55.05 -9.53,110.18 -14.21,165.27c-4.37,51.43 -7.67,102.97 -15.66,154.04c-1.73,11.05 -0.47,21.93 4.38,32.22c5.06,10.71 13.58,16.32 25.32,16.34c11.56,0.02 19.31,-6.11 24.02,-16.46c4.04,-8.88 6.05,-18.3 7.68,-27.83c4.62,-26.98 4.74,-54.4 7.92,-81.53c1.9,-16.21 3.43,-32.49 8.18,-48.19c2.53,-8.37 3.82,-8.69 10.73,-3.74c12.5,8.94 23.71,19.39 34.86,29.9c31.52,29.69 62.92,59.53 94.51,89.14c11.42,10.7 23.01,21.25 36.32,29.67c8.48,5.36 17.23,10.09 27.19,12.18c17.06,3.58 32.18,-3.39 40.17,-18.81c6.53,-12.6 7.68,-26.09 5.78,-39.9c-1.29,-9.37 -1.47,-9.36 -10.78,-10.73c-3.62,-0.54 -7.29,-0.86 -10.88,-1.55c-12.73,-2.44 -25.87,-3.97 -36.29,-12.77c-10.17,-8.59 -20.56,-16.92 -30.07,-26.3c-13.52,-13.33 -27.36,-26.34 -40.98,-39.58c-19.35,-18.81 -38.54,-37.8 -58.01,-56.49c-3.85,-3.7 -3.54,-6.13 -0.11,-9.78c6.61,-7.03 12.8,-14.45 19.16,-21.71c25.67,-29.3 51.53,-58.44 76.93,-87.97c16.36,-19.02 30.54,-39.58 39.73,-63.15c9.07,-23.3 -0.16,-47.13 -22.36,-58.23c-8.87,-4.44 -15.64,-3.36 -22.72,3.49c-3.4,3.29 -6.05,7.13 -8.2,11.27c-4.29,8.27 -8.89,16.45 -12.41,25.06c-8.66,21.2 -20.95,40.06 -35.23,57.8c-17.95,22.31 -35.64,44.83 -53.67,67.08C938.14,1260.98 925.36,1274.44 912.05,1287.37zM1383.56,1428.88c-18.39,-23.95 -33.76,-48 -45.28,-74.39c-1.19,-2.72 -1.84,-5.69 -2.53,-8.6c-1.42,-5.97 -0.04,-11.11 4.52,-15.47c3.6,-3.45 6.92,-7.21 10.28,-10.91c16.28,-17.98 29.72,-37.72 36.16,-61.42c8.07,-29.71 5.02,-58.17 -11.56,-84.48c-9.36,-14.84 -22.87,-22.94 -40.89,-22.38c-18.1,0.56 -32.71,8.25 -44.17,22.02c-15.49,18.63 -22.52,40.53 -24.14,64.37c-1.71,25.21 1.51,49.91 8.7,74.04c2.63,8.81 1.03,14.96 -6.4,20.84c-12.57,9.94 -23.48,21.69 -32.69,34.89c-23.39,33.53 -31.48,70.21 -21.45,110.1c10.85,43.17 44.63,65.29 88.4,59.05c25.95,-3.7 47.87,-15.59 67.75,-31.97c6.3,-5.19 6.24,-5.19 12.67,0.37c16.49,14.26 34.97,24.28 57.04,26.54c24.05,2.46 48.35,-20.37 47.4,-44.51c-0.08,-1.98 -0.59,-3.95 -0.83,-5.93c-1.4,-11.52 -10.19,-14.79 -19.41,-10.83c-18.26,7.84 -38.38,2.12 -52.42,-13.74c18.39,-23.43 31.77,-49.81 42.99,-77.35c2.74,-6.72 7.82,-9.58 14.44,-10.69c4.92,-0.83 9.94,-1.23 14.76,-2.46c19.02,-4.84 23.31,-20.09 22.5,-33.16c-0.6,-9.62 -5.94,-14.43 -15.59,-14.63c-3.96,-0.08 -7.97,0.51 -11.9,1.14c-26.57,4.22 -52.99,6.66 -78.46,-5.33c-0.59,-0.28 -1.31,-0.29 -1.92,-0.54c-7.71,-3.18 -13.6,-0.15 -18.62,5.56c-15.08,17.16 -6.37,44.35 15.8,49.39c2.27,0.52 4.56,1.18 6.86,1.32c5.36,0.31 5.69,3.25 4.47,7.49C1404.71,1395.63 1395.88,1412.21 1383.56,1428.88zM1755.76,1812.25c0.71,6.93 -2.02,13.15 -2.69,19.6c-0.41,3.96 -1.33,7.93 -1.22,11.88c0.17,6.29 5.56,11.66 11.28,11.97c5.36,0.29 9.98,-4.24 10.8,-10.96c0.36,-2.96 0.22,-5.99 0.24,-8.98c0.15,-22.81 3.9,-45.03 10.74,-66.77c1,-3.17 2.02,-6.38 2.45,-9.65c0.52,-3.95 -1.07,-7.23 -4.83,-9.03c-7.78,-3.73 -15.53,0.03 -17.41,8.49c-0.65,2.92 -0.79,5.95 -1.45,8.87c-1.32,5.84 -2.42,11.84 -6.56,16.52c-10.77,12.19 -23.33,21.81 -39.19,26.45c-2.52,0.74 -5.21,1.22 -7.83,1.27c-6.76,0.14 -10.37,-2.58 -12.83,-8.9c-1.12,-2.88 -1.44,-5.84 -1.29,-8.83c1.95,-37.82 20.19,-66.03 51.35,-86.49c3.06,-2.01 6.57,-3.23 10.28,-3.65c6.69,-0.76 8.84,0.38 11.93,6.4c0.61,1.18 0.92,2.52 1.58,3.66c2.91,5.12 7.07,5.85 11.29,1.84c3.21,-3.05 5.07,-7 6.49,-11.12c3.68,-10.74 -0.44,-19.24 -11.08,-23c-6.81,-2.41 -13.75,-2.14 -20.71,-0.84c-12.07,2.25 -22.65,7.74 -32.16,15.29c-20.9,16.6 -35.55,37.75 -44.21,62.88c-5.15,14.94 -7.28,30.42 -4.76,46.24c3.27,20.47 19.6,31.62 39.92,27.44c11.72,-2.41 21.61,-8.4 31.15,-15.24C1749.67,1815.72 1751.69,1812.81 1755.76,1812.25zM1460.95,1775.02c-0,-0.06 -0.01,-0.12 -0.01,-0.17c6.97,-0.52 13.94,-1.14 20.92,-1.53c7.63,-0.43 8.01,-0.03 7.97,7.42c-0.01,2.33 -0.19,4.66 -0.44,6.98c-0.97,8.94 -2.12,17.85 -2.96,26.8c-0.47,4.96 -0.71,9.98 -0.57,14.96c0.13,4.88 3.33,7.86 7.62,9.56c4.15,1.65 6.97,-0.91 9.57,-3.63c3.89,-4.06 5.08,-8.94 5.39,-14.55c1.32,-24.27 2.18,-48.58 5.09,-72.74c1.75,-14.54 3.81,-29.04 5.57,-43.58c0.67,-5.57 1.93,-11.25 -0.69,-16.72c-3.63,-7.59 -11.25,-8.72 -17,-2.64c-2.98,3.15 -3.63,6.82 -3.74,10.98c-0.4,14.98 -1.29,29.94 -3.62,44.78c-1.2,7.62 -2.16,9.04 -9.81,10.42c-15.42,2.78 -31.03,3.84 -46.69,4.47c-5.01,0.2 -6.54,-2.09 -5.94,-6.65c1.2,-9.24 2.3,-18.49 3.53,-27.73c1.06,-7.95 1.86,-15.94 0.6,-23.89c-0.93,-5.86 -5.19,-9.47 -10.02,-9.41c-4.31,0.05 -8.53,3.44 -9.72,8.63c-0.96,4.19 -1.29,8.56 -1.63,12.87c-2.06,26.22 -4.26,52.43 -7.97,78.48c-1.6,11.2 -3.48,22.36 -5.1,33.55c-0.73,5.05 -0.37,10.07 2.69,14.38c5.07,7.14 12.79,6.45 16.2,-1.5c2.38,-5.54 3.46,-11.45 3.86,-17.47c0.63,-9.31 1.25,-18.61 1.93,-27.91c0.83,-11.37 1.35,-11.97 13.02,-12.91C1446.31,1775.68 1453.64,1775.43 1460.95,1775.02zM1833.03,1840.35c0,0.02 0,0.05 0.01,0.07c3.32,-0.28 6.72,-0.2 9.95,-0.89c14.69,-3.13 29.52,-5.12 44.49,-6.26c4.59,-0.35 9.1,-1.89 13.64,-2.93c5.03,-1.14 7.12,-4.39 6.94,-9.45c-0.2,-5.72 -3.07,-9.64 -8.27,-11.08c-3.36,-0.93 -6.71,-0.38 -9.89,0.4c-13.29,3.26 -26.86,4.87 -40.34,6.96c-12.15,1.89 -12.89,1.22 -11.88,-10.6c0.23,-2.66 0.41,-5.32 0.8,-7.96c2.72,-18.26 2.76,-18.15 20.93,-20.86c12.18,-1.81 24.39,-3.6 36.43,-6.16c6.68,-1.42 9.11,-6.17 8.3,-12.82c-0.64,-5.23 -3.82,-7.85 -10.52,-8.61c-6.45,-0.73 -12.59,1.1 -18.71,2.58c-8.13,1.97 -16.32,3.31 -24.66,3.73c-6.23,0.31 -6.93,-0.43 -5.88,-6.74c1.42,-8.54 3.37,-16.99 4.57,-25.56c0.62,-4.42 2.74,-6.32 6.86,-7.12c7.53,-1.45 15.03,-2.88 22.72,-3.3c8.98,-0.49 17.96,-1.09 26.93,-1.85c6.33,-0.54 11.18,-5.82 11.26,-11.81c0.08,-6.47 -4.16,-10.71 -11.51,-11.21c-1.96,-0.14 -3.96,0.3 -5.94,0.49c-21.49,2.05 -42.47,8.28 -64.42,6.95c-8.3,-0.5 -12.76,6.44 -9.56,14.45c2.5,6.25 2.85,12.15 1.78,18.5c-0.55,3.28 -0.67,6.63 -1.06,9.94c-2.87,24.47 -5.06,49.04 -9.83,73.25c-0.77,3.91 -1.98,7.8 -2.14,11.74c-0.47,11.68 4.53,16.59 16.04,16.34C1831.04,1840.54 1832.03,1840.43 1833.03,1840.35zM1660.76,1826.19c-0.02,-2.06 -1.54,-4.93 -3.81,-7.51c-8.93,-10.19 -14.34,-22.34 -19.02,-34.84c-7.93,-21.2 -14.02,-42.97 -20.15,-64.73c-1.98,-7.03 -4.44,-13.91 -3.76,-21.45c0.44,-4.94 -2.21,-8.19 -6.9,-9.69c-4.97,-1.59 -9.35,-0.67 -12.31,3.83c-2.37,3.6 -4.52,7.39 -6.34,11.29c-16.87,36.18 -34.32,72.06 -53.65,107.01c-1.77,3.19 -3.34,6.53 -4.68,9.92c-2.47,6.26 -0.33,11.57 5.76,14.99c5.05,2.83 9.48,1.55 13.31,-4.56c3.35,-5.35 6.28,-10.97 9.08,-16.63c3.19,-6.46 5.25,-13.82 15.12,-12.23c2.04,0.33 4.37,-1.41 6.61,-2.01c9.64,-2.55 19.23,-5.3 28.96,-7.44c8.41,-1.85 8.48,-1.52 11.43,6.39c3.25,8.73 6.33,17.52 10.9,25.69c2.61,4.67 5.45,9.16 9.45,12.78c3.73,3.36 7.97,4.83 12.85,2.85C1657.99,1838.05 1660.93,1832.92 1660.76,1826.19zM993.9,1828.21c0.23,-3.6 -1.41,-6.43 -3.63,-9.03c-9.68,-11.34 -15.5,-24.72 -20.53,-38.54c-7.28,-20.02 -12.99,-40.52 -18.87,-60.97c-2.01,-6.99 -4.34,-13.89 -3.7,-21.47c0.43,-5.07 -2.11,-8.93 -7.45,-10.4c-5.12,-1.4 -9.34,-0.14 -12.15,4.36c-2.64,4.22 -5.11,8.59 -7.21,13.1c-16.39,35.31 -33.43,70.29 -52.34,104.34c-1.61,2.9 -2.99,5.95 -4.27,9.01c-3.13,7.44 -1.09,13.34 5.62,16.67c5.23,2.6 9.48,0.94 13.67,-6.22c4.02,-6.88 7.57,-14.05 11.1,-21.21c1.68,-3.41 2.95,-6.57 7.85,-5.62c2.98,0.58 5.82,-1.04 8.66,-1.98c10.11,-3.35 20.41,-6.05 30.85,-8.12c9.09,-1.81 9.19,-1.67 12.13,6.73c3.19,9.11 6.6,18.13 11.36,26.57c2.47,4.38 5.32,8.45 9.12,11.79c3.82,3.35 8.23,4.74 12.89,2.38C991.49,1837.34 993.62,1833.22 993.9,1828.21zM1383.98,1712.05c0.25,-25.48 -14.96,-36.87 -37.43,-29.92c-9.08,2.81 -16.87,7.88 -23.9,14.14c-24.24,21.58 -38.66,48.92 -46.15,80.09c-2.66,11.06 -3.15,22.4 -0.42,33.69c5.3,21.96 26.66,35.41 48.8,30.52c15.9,-3.51 28.47,-12.55 39.45,-24.11c2.32,-2.45 3.95,-5.37 4.73,-8.69c0.74,-3.14 0.16,-6.03 -2.34,-8.18c-2.76,-2.38 -5.63,-1.47 -8.27,0.31c-2.48,1.68 -4.87,3.49 -7.22,5.34c-6.04,4.78 -12.53,8.69 -19.7,11.63c-25.05,10.28 -35.14,-6.42 -35.25,-24.93c-0.01,-1 -0.05,-2.01 0.1,-2.99c4.92,-32.16 19.32,-59.23 43.62,-80.93c3.76,-3.35 8.1,-5.91 12.95,-7.36c6.87,-2.05 9.57,-0.16 9.2,6.9c-0.28,5.29 -1.62,10.51 -2.17,15.79c-0.47,4.45 0.01,8.79 4.53,11.3c4.75,2.64 8.36,-0.36 11.81,-2.85C1383.76,1726.41 1383.82,1718.22 1383.98,1712.05zM1035.07,1812.32c-0.1,-0 -0.2,-0 -0.3,-0c0.29,-5.32 0.56,-10.65 0.88,-15.97c0.72,-11.94 0.73,-11.94 12.04,-14.02c1.31,-0.24 2.65,-0.32 3.96,-0.52c9.22,-1.36 18.47,-2.57 27.65,-4.15c5.21,-0.89 10.6,-1.67 14.35,-6.18c2.41,-2.9 4.41,-5.83 3.13,-9.94c-1.35,-4.37 -4.53,-6.5 -8.73,-7.17c-4.65,-0.74 -9.28,-0.17 -13.91,0.65c-9.51,1.67 -19.01,3.4 -28.57,4.7c-6.03,0.82 -6.28,0.35 -6.15,-5.59c0.18,-8.69 1.52,-17.26 3.06,-25.77c2.29,-12.63 2.41,-12.65 15.66,-14.96c3.93,-0.69 7.9,-1.2 11.87,-1.58c8.29,-0.78 16.55,-1.3 24.93,-0.46c6.63,0.66 12.05,-4.58 12.98,-11.27c0.75,-5.38 -2.24,-9.01 -9.1,-11.13c-3.58,-1.1 -7.27,-1.17 -10.9,-0.82c-8.94,0.88 -17.84,2.2 -26.79,2.99c-7.91,0.7 -15.66,3.12 -23.77,1.8c-11.2,-1.82 -16.85,3.92 -15.4,15.42c0.46,3.62 1.37,7.11 0.9,10.88c-2.11,16.85 -4.04,33.72 -5.97,50.59c-1.97,17.2 -4.11,34.4 -4.73,51.72c-0.13,3.64 -0.35,7.31 1.1,10.84c2.49,6.07 8.59,10.17 13.93,9.2c5.08,-0.92 7.56,-4.64 7.81,-12.29C1035.22,1823.65 1035.07,1817.98 1035.07,1812.32zM1117.55,1815.66c0,3.27 -0.42,8.29 0.1,13.22c0.82,7.72 7.49,13.5 13.97,12.79c5.81,-0.64 8.26,-4.61 8.35,-13.68c0.11,-9.98 -0.11,-19.98 0.32,-29.95c0.59,-13.53 1.14,-13.93 14.77,-16.02c9.86,-1.51 19.77,-2.78 29.61,-4.41c5.23,-0.87 10.49,-1.87 14.27,-6.32c5.72,-6.75 3.32,-14.9 -5.28,-16.78c-4.93,-1.08 -9.91,-0.25 -14.86,0.61c-9.82,1.72 -19.69,3.19 -29.53,4.8c-3.85,0.63 -5.55,-0.74 -5.19,-4.82c0.87,-9.95 2.04,-19.85 4,-29.64c1.89,-9.4 2.28,-9.83 12.06,-11.57c12.8,-2.28 25.65,-3.68 38.71,-2.56c7.63,0.66 13.58,-4.64 14.28,-12.08c0.48,-5.13 -3.62,-9.34 -10.99,-10.66c-3.24,-0.58 -6.65,-0.66 -9.94,-0.39c-7.95,0.67 -15.87,1.72 -23.81,2.56c-9.84,1.04 -19.45,3.69 -29.65,1.69c-7.22,-1.42 -13.58,6.53 -12.11,14.45c0.86,4.62 1.79,9.12 1.22,13.81c-0.91,7.59 -1.92,15.18 -2.76,22.78C1122.5,1766.96 1118.94,1790.33 1117.55,1815.66zM1222.29,1806.62c0,5.65 -0.09,11.3 0.06,16.95c0.04,1.62 0.65,3.26 1.18,4.82c3.04,8.98 11.32,10.83 17.59,4.05c3.26,-3.53 3.41,-7.78 3.24,-12.15c-0.46,-11.96 -1.59,-23.92 -0.58,-35.9c2.13,-25.2 5.62,-50.2 11.16,-74.88c1.23,-5.45 1.14,-10.59 -1.23,-15.56c-2.91,-6.09 -7.33,-7.11 -12.99,-3.6c-5.68,3.52 -7.57,8.94 -8.29,15.12c-1.12,9.57 -2.39,19.13 -3.45,28.71C1226.31,1758.3 1222.85,1782.34 1222.29,1806.62z" fill="#FF0000" fill-rule="evenOdd"/>
  <path d="M483.99,1151.1c-8.09,-0.37 -15.07,-0.54 -22.03,-1.07c-4.06,-0.31 -6.89,0.73 -9.11,4.43c-4.79,8 -9.78,15.88 -15.06,23.56c-2.66,3.88 -2.39,7.13 -0.26,11.04c3.18,5.84 6.21,11.8 8.76,17.93c5.91,14.22 1.73,32.76 -9.34,43.24c-5.44,5.15 -11.54,4.65 -17.62,1.88c-6.15,-2.8 -12.08,-5.69 -19.05,-2.89c-2.15,0.86 -3.79,-0.25 -5,-2.14c-5.73,-8.99 -11.38,-18.02 -17.28,-26.89c-2.02,-3.03 -0.29,-4.71 1.3,-6.91c10.71,-14.8 14.8,-31.8 16.21,-49.64c0.18,-2.3 -0.08,-4.66 -0.28,-6.97c-0.28,-3.16 -1.99,-4.58 -5.28,-4.53c-8.66,0.12 -17.32,0.11 -25.98,-0c-2.95,-0.04 -5,0.96 -6.71,3.4c-1.26,1.8 -2.03,4.24 -4.93,5c-1.12,-4.41 0.77,-8.42 1.31,-12.54c1.25,-9.57 -1.55,-12.73 -10.78,-10.83c-4.49,0.92 -6.79,-0.17 -8.91,-3.84c-2.33,-4.03 -4.93,-7.93 -7.75,-11.63c-2.69,-3.52 -1.67,-5.57 1.53,-8.11c6.28,-4.98 6.13,-5.18 1.89,-12.52c-4.63,-8.01 -9.28,-16 -14.59,-25.15c11.06,-0.34 20.81,-0.7 30.48,1.49c2.92,0.66 5.75,1.73 8.68,2.3c8.55,1.66 12.4,-0.56 15.15,-8.86c1.96,-5.92 2.54,-12.41 7.75,-17.78c4.83,7.36 3.94,16.13 7.96,24.37c6.08,-2.21 12.5,-1.26 18.96,0.01c8.54,1.69 16.05,0.31 20.36,-8.56c4.09,1.61 3.62,6.4 7.36,8.59c2.04,-3.51 1.61,-7.45 2.11,-11.13c1.77,-13.19 6.85,-18.7 19.9,-21.35c21.01,-4.28 29.7,2.79 29.36,24.02c-0.06,3.98 -0.92,7.96 -0.94,11.94c-0.03,4.78 -2.1,8.12 -5.72,11.02c-7.18,5.76 -11.55,13.75 -15.75,21.66c-4.5,8.47 -3.4,12.14 4.24,17.91c3.18,2.4 6.63,4.46 9.89,6.77C478.94,1141.21 482.23,1144.77 483.99,1151.1z" fill="#FF0000" fill-rule="evenOdd"/>
  <path d="M1069.29,2246.43c0.65,1.83 0.98,2.4 1.05,3.01c0.52,4.59 -1.64,10.04 1.15,13.61c3.08,3.94 8.79,1.77 13.23,1.59c6.56,-0.27 5.3,5.85 8.68,9.1c6.3,-2.94 12.88,-5.97 19.42,-9.08c11.98,-5.7 24.42,-5.83 37.08,-3.15c8.62,1.82 14.02,7.19 16.58,15.54c0.29,0.95 0.8,1.87 0.94,2.84c3.65,24.45 6.17,48.93 0.51,73.43c-3.7,15.99 -12.16,28.72 -26.76,36.8c-3.47,1.92 -7.2,3.53 -10.99,4.66c-20.53,6.17 -34.67,-1.49 -40.78,-21.89c-0.57,-1.91 -1.03,-3.85 -1.49,-5.8c-1.64,-6.91 -5.79,-11.11 -12.99,-11.89c-4.63,-0.5 -9.28,-0.79 -13.92,-1.23c-10.51,-1 -13.59,-3.2 -15.17,-13.65c-1.12,-7.35 -4.55,-10.63 -11.61,-12.33c-7,-1.69 -15.72,-1.49 -20.27,-7.12c-4.14,-5.13 -5.14,-12.81 -7.51,-19.37c-0.23,-0.63 -0.33,-1.3 -0.57,-1.91c-3.77,-9.6 -1.84,-8.86 4.79,-11.78c5.48,-2.42 10.83,-5.14 16.37,-7.41c3.61,-1.48 4.8,-3.94 2.65,-6.91c-5.4,-7.44 -1.59,-12.07 4.27,-16.42c1.6,-1.18 3.05,-2.59 4.43,-4.03c2.15,-2.25 4.26,-3.01 6.81,-0.56c0.95,0.91 2.11,1.63 3.27,2.27c7.62,4.23 11.88,3.44 17.38,-3.23C1066.87,2250.25 1067.68,2248.82 1069.29,2246.43z" fill="#FF0000" fill-rule="evenOdd"/>
  <path d="M2501.05,1407.76c-12.14,-1.48 -23.66,-2.73 -34.9,-5.87c-13.95,-3.9 -15.68,-2.93 -20.63,10.38c-1.7,4.57 -2.89,9.72 -8.82,11.26c-2.17,-4.45 -2.44,-9.16 -2.46,-13.74c-0.02,-4.77 -2.02,-7.46 -6.36,-8.85c-1.26,-0.4 -2.38,-1.37 -3.65,-1.6c-20.35,-3.77 -22.8,-20.37 -26.18,-36.34c-0.71,-3.34 0.75,-4.74 3.84,-5.64c8.59,-2.51 17.1,-5.28 25.91,-8.04c-1.69,-8.39 -4.07,-15.97 -7.43,-23.17c-2.71,-5.8 -5.28,-6.69 -9.82,-2.31c-4.58,4.42 -7.99,3.94 -12.94,0.93c-11.95,-7.27 -24.25,-13.95 -36.38,-20.93c-2.5,-1.44 -4.85,-3.15 -8.07,-5.27c8.95,-7.59 17.31,-14.65 25.61,-21.76c6.33,-5.42 6.32,-5.46 2.59,-13.11c-2.04,-4.19 -4.07,-8.39 -6.23,-12.52c-1.07,-2.05 -1.09,-3.78 0.79,-5.28c1.61,-1.28 3.1,-0.56 4.52,0.4c1.1,0.75 2.34,1.4 3.22,2.36c6.62,7.27 13.79,6.67 21.09,1.35c10.9,-7.96 21.01,-7.79 30.45,2.38c0.89,0.96 2.15,1.56 3.23,2.35c6.35,4.65 6.35,4.65 3.74,12.11c-0.77,2.2 -1.45,4.44 -2.36,6.58c-1.72,4.07 -3.52,8.05 1.47,11.26c0.44,0.29 0.45,1.22 0.71,1.83c7.6,17.56 7.59,17.54 -7.7,29.67c-1.76,1.4 -4.18,2.29 -4.53,5.71c8.25,2.96 16.71,5.85 25.03,9.08c3.05,1.18 4.97,0.39 7.01,-1.79c2.17,-2.33 3.88,-5.29 7.5,-6.87c1.36,4.97 -0.5,9.02 -0.89,13.17c-0.7,7.5 1.75,10.56 9.02,8.73c6.86,-1.73 8.93,1.27 10.58,6.58c0.79,2.54 1.75,5.05 2.96,7.42c2.12,4.16 2.77,7.59 -1.28,11.44c-5.09,4.84 -4.41,10.84 -0.85,16.45c2.32,3.65 5.03,7.04 7.53,10.58C2498.5,1399.63 2500.83,1402.51 2501.05,1407.76z" fill="#FF0000" fill-rule="evenOdd"/>
  <path d="M1535.18,489.9c-12.71,-2.23 -25.07,-4.33 -37.41,-6.58c-10.64,-1.94 -10.62,-2.02 -14.85,8.35c-1.63,4 -3.3,7.98 -4.89,12c-0.69,1.75 -1.9,2.69 -3.74,2.63c-2.46,-0.08 -3.37,-1.74 -3.62,-3.93c-0.18,-1.65 -0.67,-3.36 -0.43,-4.95c1.48,-9.82 -3.72,-14.8 -12.39,-16.97c-13.08,-3.29 -19.29,-11.08 -20.86,-24.89c-1.74,-15.24 -2.93,-15.1 12.19,-19.36c2.24,-0.63 4.46,-1.34 6.72,-1.86c3.64,-0.85 7.53,-1.17 4.44,-6.73c-0.96,-1.73 1.14,-3.66 2.12,-5.32c8.79,-14.9 16.81,-30.21 24.45,-45.71c2.36,-4.79 5.12,-7.25 10.71,-6.58c4.26,0.51 8.69,0.55 12.95,0.05c21.53,-2.5 33.61,11.18 44.69,26.17c4.91,6.65 4.6,14.33 1.57,21.91c-2.74,6.87 -6.96,12.83 -11.3,18.73c-4.33,5.89 -8.74,11.73 -13.01,17.66c-5.11,7.09 -5.69,14.6 -2.19,22.63C1532.02,481.03 1534.49,484.65 1535.18,489.9z" fill="#FF0000" fill-rule="evenOdd"/>
  <path d="M633,1997.56c19.3,-22.55 19.15,-27.01 -2.2,-62.79c15.64,3.71 25.27,-3.74 32.16,-16.16c2.28,-4.11 5.81,-6.41 10.11,-7.55c26.69,-7.11 42.91,-1.61 56.3,19.49c12.65,19.92 15.99,41.59 7.32,64.04c-8.83,22.85 -32.79,32.33 -54.03,22.01c-5.19,-2.52 -9.73,-5.9 -13.03,-10.63c-7.05,-10.08 -16.65,-12.44 -28.1,-9.87C638.96,1996.68 636.62,1998.34 633,1997.56z" fill="#FF0000" fill-rule="evenOdd"/>
  <path d="M1900.67,2325.29c-3.74,1.81 -6.43,-0.27 -8.93,-1.4c-13.05,-5.91 -25.22,-3.96 -37,3.35c-1.98,1.23 -4.14,2.15 -6.08,3.43c-2.37,1.55 -4.27,1.25 -6.1,-0.85c-7.87,-9.04 -16.55,-17.23 -25.7,-25c-4.68,-3.97 -6.7,-9.79 -7.15,-16.01c-0.73,-10.06 0.22,-20.01 2.95,-29.64c4.4,-15.55 18.21,-26.17 34.47,-27.22c9.94,-0.64 19.79,-2.29 29.81,-2.37c14.53,-0.12 25.66,5.63 33.74,17.63c3.34,4.97 6.59,9.98 8.98,15.5c4.03,9.3 2.22,17.51 -4.48,24.85c-4.52,4.96 -9.84,8.98 -15.51,12.45c-3.4,2.08 -4.38,4.51 -3.21,8.28C1898.2,2313.9 1900.12,2319.5 1900.67,2325.29z" fill="#FF0000" fill-rule="evenOdd"/>
  <path d="M1465.81,2481.95c-5.52,1.4 -8.93,-1.04 -12.56,-2.41c-3.1,-1.17 -6.04,-2.85 -9.21,-3.73c-6.5,-1.8 -10.17,0.1 -10.08,6.82c0.11,8.02 -4.1,10.93 -10.48,13.26c-6.48,2.37 -12.74,5.36 -19.48,8.23c-2.61,-3.63 -1.86,-7.46 -2.4,-10.89c-0.68,-4.26 -2.39,-5.39 -6.76,-4.28c-11.91,3.04 -23.94,5.57 -35.93,8.3c-1.26,0.29 -2.54,0.81 -4.53,-0.53c3.19,-12.1 7.15,-24.19 13.03,-35.62c0.76,-1.48 1.66,-2.88 2.44,-4.35c5.78,-10.93 4.46,-15.11 -6.5,-20.51c-4.16,-2.05 -8.66,-3.5 -11.73,-7.3c-1.32,-1.63 -2.14,-3.47 -1.47,-5.51c0.85,-2.57 3.26,-1.56 5.08,-1.85c0.32,-0.05 0.68,-0.07 1,-0c14.35,3.21 23.48,-3.39 28.9,-15.98c5.68,-13.19 15.38,-17.85 29.24,-15.49c6.14,1.04 13.9,-2.61 18.25,1.62c3.85,3.76 1.75,11.36 2.61,17.24c0.68,4.59 0.81,9.28 0.92,13.93c0.1,4.27 1.65,6.28 6.1,4.84c0.32,-0.1 0.64,-0.18 0.96,-0.27c3.78,-1.1 7.97,-4.01 11.34,-2.46c3.96,1.82 3.56,7.46 5.35,11.31c0.84,1.8 1.37,3.74 2.02,5.63c2.65,7.73 2.65,7.73 -3.72,12.97c-8.57,7.05 -8.84,10.7 -1.19,18.66C1459.48,2476.18 1462.22,2478.56 1465.81,2481.95z" fill="#FF0000" fill-rule="evenOdd"/>
  <path d="M1272.1,349.72c1.6,1.69 3.09,3.5 4.82,5.05c6.7,5.96 9.7,5.87 15.45,-1.29c2.25,-2.8 3.75,-3.89 7.24,-1.91c15.89,8.99 31.92,17.72 49.11,27.22c-9.16,7.63 -17.58,14.48 -25.81,21.54c-7.58,6.51 -7.35,4.45 -3.17,13.73c1.91,4.24 3.77,8.51 5.65,12.77c0.57,1.3 0.61,2.56 -0.33,3.72c-1.35,1.66 -2.84,1.22 -4.38,0.3c-0.86,-0.51 -1.88,-0.81 -2.61,-1.45c-8.37,-7.36 -16.72,-6.08 -25.16,-0.13c-7.19,5.07 -14.49,5.48 -22.06,0.58c-2.48,-1.61 -5.4,-2.54 -8.13,-3.77c-11.06,-4.98 -10.28,-3.72 -5.63,-14.04c3.13,-6.94 6.17,-13.91 9.71,-21.89c-7.71,0.54 -13.52,2.94 -18.63,7.29c-5.85,4.99 -12.05,9.48 -19.29,12.22c-16,6.05 -29.89,-1.83 -32.43,-18.69c-1.47,-9.71 0.35,-19.27 3.61,-28.44c2.35,-6.62 7.75,-9.87 14.56,-10.39c10.1,-0.77 19.15,1.69 26.15,9.57c1.77,1.99 3.55,3.97 5.31,5.96c1.45,1.64 2.82,2.5 4.98,0.79c2.68,-2.12 6.17,-2.35 9.32,-3.35c10.52,-3.32 11.16,-4.16 11.87,-15.28L1272.1,349.72z" fill="#FF0000" fill-rule="evenOdd"/>
  <path d="M374.64,796.02c17.81,13.34 17.81,13.34 50.02,1.43c2.1,1.38 2.67,3.7 3.34,5.88c2.01,6.59 5.41,11.74 11.7,15.39c7.48,4.34 10.63,11.62 10.27,20.31c-0.35,8.7 -1.95,17.25 -5.03,25.33c-4.2,11 -12.91,17.72 -23.82,21.16c-17.29,5.45 -34.13,3.97 -50.15,-4.87c-12.65,-6.98 -19.07,-18.04 -21.34,-31.95c-1.36,-8.32 1.17,-15.07 7.74,-20.33c1.04,-0.83 2.06,-1.71 3.2,-2.38c10.85,-6.42 16.23,-15.4 13.46,-28.3C373.92,797.19 374.42,796.57 374.64,796.02z" fill="#FF0000" fill-rule="evenOdd"/>
  <path d="M1067.36,2605.78c-17.78,-13.87 -32.48,-2.02 -47.17,5.66c-2.47,-1.43 -3.01,-3.5 -3.61,-5.28c-2.31,-6.91 -6.17,-12.23 -12.84,-15.73c-4.81,-2.52 -8.46,-6.79 -9.73,-12.16c-3.67,-15.53 -2.03,-30.47 7.2,-43.79c5.32,-7.67 13.21,-12.01 22.58,-13.28c10.57,-1.44 21.23,-1.94 31.85,-1.14c17.86,1.35 34.05,16.95 36.32,34.53c0.76,5.86 -0.34,11.31 -4.03,15.99c-2.26,2.86 -4.56,5.85 -7.42,8.03c-6.58,5.01 -9.57,11.69 -10.54,19.59C1069.7,2600.48 1069.62,2602.84 1067.36,2605.78z" fill="#FF0000" fill-rule="evenOdd"/>
  <path d="M2240.06,1989.15c-2.58,3.4 -5.81,3.53 -8.52,4.47c-5.26,1.81 -9.23,4.66 -12.13,9.6c-5.14,8.77 -13.29,12.67 -23.34,12.73c-3.32,0.02 -6.66,0.05 -9.97,-0.19c-22.68,-1.62 -39.42,-18.77 -40.57,-41.55c-0.74,-14.72 2.81,-28.33 10.89,-40.69c4.1,-6.27 9.63,-10.83 16.56,-13.87c11.34,-4.97 21.73,-3.5 30.2,5.31c6.56,6.83 13.62,12.55 22.17,16.54c2.33,1.09 5.18,2.17 3.85,5.81c-5.16,14.13 0.46,25.95 7.95,37.38C2238.06,1986.07 2238.96,1987.46 2240.06,1989.15z" fill="#FF0000" fill-rule="evenOdd"/>
  <path d="M2422.81,1680.55c-12.94,-16.22 -27.17,-15.18 -42.19,-9.54c-1.87,0.7 -3.76,1.35 -5.57,2.17c-2.84,1.28 -4.53,0.3 -5.11,-2.58c-1.79,-8.82 -6.36,-15.66 -13.27,-21.55c-4.96,-4.23 -6.84,-10.73 -6.31,-17.28c0.82,-10.01 2.94,-19.86 8.36,-28.46c7.31,-11.58 17.89,-17.55 31.87,-16.66c6.97,0.44 13.95,0.88 20.92,1.38c15.69,1.12 27.12,8.08 32.62,23.48c1.79,5.01 3.77,9.94 4.77,15.2c2.09,10.95 -1.04,17.85 -10.91,23.14c-3.21,1.72 -6.62,3.14 -10.08,4.29c-3.72,1.23 -5.3,3.44 -5.16,7.37C2422.97,1667.05 2422.81,1672.59 2422.81,1680.55z" fill="#FF0000" fill-rule="evenOdd"/>
  <path d="M497.16,1856.55c-8.74,-14.01 -20.65,-14.25 -33.4,-11.7c-1.95,0.39 -3.91,0.78 -5.86,1.16c-3.55,0.7 -5.73,-0.24 -5.97,-4.35c-0.41,-6.86 -3.03,-12.67 -7.93,-17.72c-4.18,-4.31 -5.11,-10.13 -4.02,-15.89c4.42,-23.36 15.89,-36.33 35.84,-38.01c23.81,-2 45.23,11.57 50.69,31.71c3.54,13.04 -1.14,24.73 -12.65,31.61c-0.28,0.17 -0.58,0.32 -0.87,0.48C500.4,1841.14 500.4,1841.14 497.16,1856.55z" fill="#FF0000" fill-rule="evenOdd"/>
  <path d="M792.35,615.57c17.69,14.75 17.69,14.75 26.71,9.35c0.26,0.57 0.88,1.28 0.72,1.7c-3.01,7.97 -0.99,13.22 7.06,17.22c5.95,2.95 7.94,9.73 5.28,15.65c-6.04,13.44 -4.25,26.51 -0.31,39.81c0.15,0.52 -0.32,1.22 -0.77,2.7c-10.14,-3.98 -20.21,-7.95 -30.29,-11.91c-8.78,-3.45 -8.79,-3.44 -14.18,4.48c-3.5,5.15 -6.98,10.31 -12.28,15c0,-5.78 -0.17,-11.57 0.06,-17.35c0.15,-3.73 -1.15,-6.21 -4.31,-8.22c-4.77,-3.03 -9.17,-6.65 -13.95,-9.65c-3.22,-2.02 -4.43,-4.57 -4.28,-8.25c0.19,-4.65 -0.04,-9.32 0.06,-13.98c0.23,-10.8 -2.21,-10.72 10.81,-11.2c9.05,-0.33 14.85,-3.67 19.26,-11.23C784.75,624.87 788.57,620.64 792.35,615.57z" fill="#FF0000" fill-rule="evenOdd"/>
  <path d="M1248.17,183.39c7.24,-1.79 14.1,2.12 19.92,9.64c4.45,5.76 9.73,10.91 14.86,16.11c2.94,2.99 4.16,5.73 1.42,9.53c-2.59,3.59 -3.19,7.99 -4.03,12.21c-1.12,5.64 -3.31,10.79 -6.62,15.45c-8.56,12.04 -22.7,16.29 -36.1,10.04c-14.42,-6.72 -24.93,-17.71 -30.51,-32.67c-6.42,-17.24 2.97,-33.88 20.89,-38.42C1233.87,183.8 1239.84,183.91 1248.17,183.39z" fill="#FF0000" fill-rule="evenOdd"/>
  <path d="M2276.47,1512.28c-14.04,-3.14 -30.36,-6.45 -45.53,-13.47c-7,-3.24 -7.57,-7.01 -3.51,-13.69c2.98,-4.91 7.43,-8.5 11.43,-12.48c3.49,-3.47 5.15,-7.17 4.99,-12.37c-0.33,-10.77 3.47,-14.76 14.31,-16.52c2.95,-0.48 5.94,-0.86 8.92,-1.05c21.51,-1.38 35.07,9.04 38.72,30.2c1.06,6.13 5.04,13.52 1.41,18.36c-5.06,6.72 -10.74,13.57 -18.02,18.47C2286.01,1511.87 2282.47,1512.54 2276.47,1512.28z" fill="#FF0000" fill-rule="evenOdd"/>
  <path d="M895.11,2393.88c14.51,-0.39 23.94,6.22 29.7,18.58c2.86,6.12 4.18,12.64 4.38,19.31c0.3,10.08 -3.91,17.99 -12.35,23.59c-7.6,5.03 -16.24,7.49 -24.83,10.06c-2,0.6 -3.89,0.53 -5.77,-0.49c-7,-3.81 -14.16,-7.34 -20.99,-11.43c-6.09,-3.64 -9.44,-9.31 -9.5,-16.53c-0.04,-4.64 -0.18,-9.36 0.57,-13.91c2.73,-16.56 14.33,-26.42 33.43,-28.85C891.72,2393.96 893.72,2393.96 895.11,2393.88z" fill="#FF0000" fill-rule="evenOdd"/>
  <path d="M542.97,1023.05c-16.67,0.05 -27.6,-7.16 -34.16,-22.55c-8.23,-19.3 -7.32,-23.68 8.15,-37.48c2.96,-2.64 6.16,-5.06 9.42,-7.33c6.47,-4.48 13.6,-4.98 20.95,-2.76c5.11,1.54 9.85,3.98 14.35,6.84c5.04,3.2 11.22,5.57 14.68,10.02c3.66,4.72 -2.66,10.09 -2.63,15.67c0.03,4.26 -1.13,8.54 -1.78,12.8C569.26,1015.82 560.87,1022.99 542.97,1023.05z" fill="#FF0000" fill-rule="evenOdd"/>
  <path d="M2018.85,2120.05c0.1,-15.28 5.89,-25.17 17.25,-31.58c8.15,-4.6 17.08,-9.25 26.24,-8.14c7.43,0.9 11.98,8.93 17.18,14.4c12.78,13.43 14.11,23.08 5.81,39.7c-2.67,5.34 -5.94,10.38 -8.81,15.62c-1.54,2.81 -3.39,3.43 -6.49,2.31c-6.33,-2.3 -13.01,-2.36 -19.67,-2.57c-3.63,-0.11 -7.26,-0.73 -10.86,-1.28c-11.35,-1.75 -17.43,-8.83 -19.48,-19.74C2019.35,2125.18 2019.05,2121.53 2018.85,2120.05z" fill="#FF0000" fill-rule="evenOdd"/>
  <path d="M1049.48,279.92c5.54,8.85 10.47,16.7 15.38,24.56c6.43,10.31 6.42,10.31 18.47,6.26c2.2,-0.74 4.41,-1.46 6.62,-2.2c1.34,-0.45 2.73,-0.5 3.63,0.66c0.89,1.14 0.64,2.51 -0.22,3.65c-1.99,2.66 -3.83,5.47 -6.08,7.89c-2.86,3.08 -3.19,5.52 -0.9,9.55c7.88,13.84 3.38,27.53 -10.78,35.36c-2.3,1.27 -4.36,1.5 -6.54,0.27c-2.31,-1.3 -4.5,-2.83 -6.81,-4.14c-6.95,-3.94 -8.75,-3.88 -14.9,1.61c-1.92,1.72 -3.19,2.98 -5.86,1.39c-7.47,-4.44 -14.72,-9.04 -19.61,-16.56c-1.71,-2.62 -3.09,-5 -1.91,-8.26c2.97,-8.21 3.97,-16.78 4.48,-25.43c0.2,-3.45 0.83,-6.28 5.48,-6.74c7.6,-0.76 11.34,-6.17 13.52,-12.94C1044.95,290.17 1045.29,285.03 1049.48,279.92z" fill="#FF0000" fill-rule="evenOdd"/>
  <path d="M1670.09,385.75c-0.93,-12.5 5.05,-21.61 16.85,-27.15c3.61,-1.69 7.28,-3.29 11.03,-4.65c4.05,-1.47 8.33,-3.87 12.3,-3.53c3.99,0.35 4.24,6.21 7.11,8.98c4.31,4.16 8.46,8.5 12.51,12.91c10.04,10.94 10.53,18.94 2.08,31.27c-10.63,15.51 -18.92,18.71 -37.49,14.46c-22.08,-5.06 -23.72,-7.04 -24.4,-29.55C1670.08,387.83 1670.09,387.16 1670.09,385.75z" fill="#FF0000" fill-rule="evenOdd"/>
  <path d="M2403.25,1098.59c-1.94,-25.69 12.32,-35.96 38.44,-39.35c6.75,-0.87 12.26,3 15.56,8.94c4.02,7.24 7.82,14.64 11.19,22.2c3.42,7.66 1.95,14.86 -3.39,21.36c-11.33,13.8 -26.25,17.57 -42.8,10.65c-1.83,-0.77 -3.64,-1.61 -5.4,-2.54C2404.11,1113.12 2403.99,1112.92 2403.25,1098.59z" fill="#FF0000" fill-rule="evenOdd"/>
  <path d="M2025.28,453.67c-6.42,-0.11 -11.79,-1.46 -16.69,-4.66c-10.77,-7.02 -13.58,-15.34 -8.67,-27.38c2.5,-6.14 5.7,-12.01 8.29,-18.12c1.18,-2.78 3.39,-3.96 5.78,-5.11c4.49,-2.16 9,-4.29 13.52,-6.4c12.83,-6.01 12.85,-6.02 24.16,3.16c2.32,1.88 4.6,3.85 6.7,5.97c15.02,15.15 11.4,36.92 -7.71,46.32C2042.46,451.46 2033.66,453.05 2025.28,453.67z" fill="#FF0000" fill-rule="evenOdd"/>
  <path d="M648.34,727.24c0.22,9.04 -3.37,18.02 -11.22,25.2c-5.89,5.39 -12.8,7.21 -20.36,4.87c-11.33,-3.5 -21.13,-9.62 -29.23,-18.4c-4.41,-4.77 -5.02,-9.84 -2.14,-15.57c5.51,-10.94 13.3,-19.86 23.37,-26.8c2.2,-1.51 4.59,-2.56 7.39,-2.7C633.85,692.98 648.96,707.88 648.34,727.24z" fill="#FF0000" fill-rule="evenOdd"/>
  <path d="M387.02,1626.01c12.82,0.71 21.78,5.26 26.7,15.52c7.84,16.35 7.03,30.62 -4.41,41.37c-6.84,6.43 -14.6,8.74 -23.85,5.78c-10.03,-3.2 -18.82,-8.29 -26.33,-15.65c-5.16,-5.07 -6.22,-10.61 -2.75,-17.16c5.21,-9.83 11.87,-18.45 20.38,-25.62C380.19,1627.35 384.08,1625.67 387.02,1626.01z" fill="#FF0000" fill-rule="evenOdd"/>
  <path d="M2020.99,599.38c9.79,-1.8 17.86,-3.58 26.02,-4.68c4.83,-0.65 7.21,-2.58 7.1,-7.56c-0.04,-1.97 0.42,-3.97 0.84,-5.92c0.4,-1.87 1.5,-2.66 3.6,-2.2c15.81,3.49 29.34,10.57 38.95,24.12c1.71,2.41 1.54,4.3 -0.46,6.1c-1.98,1.78 -4.09,3.41 -6.23,4.99c-4.84,3.57 -8.9,7.39 -5.42,14.13c1.37,2.65 0.12,4.41 -1.94,5.94c-0.54,0.4 -1.07,0.8 -1.59,1.22c-15.11,12.2 -21.16,12.27 -36.27,0.55c-4.79,-3.72 -8.94,-8.04 -11.92,-13.32C2029.62,615.52 2025.76,608.18 2020.99,599.38z" fill="#FF0000" fill-rule="evenOdd"/>
  <path d="M2304.48,1571.91c12.05,0.13 22.5,7.67 26.41,19.11c0.54,1.56 0.94,3.18 1.25,4.8c1.25,6.43 6.64,13.24 3.89,18.85c-2.47,5.03 -8.68,8.7 -12.99,13.28c-5.18,5.49 -11.74,6.97 -19.17,5.03c-22.53,-5.87 -32.02,-34.07 -17.61,-52.65C2290.86,1574.41 2297,1571.67 2304.48,1571.91z" fill="#FF0000" fill-rule="evenOdd"/>
  <path d="M1259.58,475.79c-0.1,-11.63 9.08,-20.51 20.46,-19.07c14.07,1.78 27.52,5.31 37.01,17.2c1.44,1.8 3.8,3.38 2.69,5.96c-2.55,5.94 -2.18,12.45 -3.96,18.49c-2.39,8.11 -10.74,13.82 -20.31,13.08C1274.69,509.82 1260.84,497.12 1259.58,475.79z" fill="#FF0000" fill-rule="evenOdd"/>
  <path d="M991.74,2188.07c-0.55,-20.82 9.22,-28.65 30.48,-25.11c6.74,1.12 12.84,4.03 16.99,9.63c8.19,11.07 10.51,21.99 -1.32,32.69c-16.95,15.34 -22.48,13.1 -38.06,1.69C992.89,2201.9 990.68,2195.06 991.74,2188.07z" fill="#FF0000" fill-rule="evenOdd"/>
  <path d="M2156.64,526.9c-7.01,-7.47 -13.64,-14 -19.66,-21.05c-9.28,-10.88 -7.95,-22.08 3.2,-31.12c9.45,-7.67 21.72,-8.87 30.59,-3c8.94,5.92 13.99,20.62 10.61,31.14c-1.26,3.94 -4,6.87 -7.08,9.45C2168.71,517 2163.05,521.61 2156.64,526.9z" fill="#FF0000" fill-rule="evenOdd"/>
  <path d="M1889.86,662.2c-10.29,0.13 -19.81,-9.85 -19.23,-19.51c0.44,-7.33 3.6,-13.35 9.28,-18.02c3.87,-3.19 8.14,-5.76 12.71,-7.72c3.51,-1.51 6.76,-5.23 10.93,-3.34c7.01,3.19 13.22,7.71 17.28,14.48c5.65,9.42 2.65,20.58 -7.2,26.68C1906.15,659.39 1897.72,661.17 1889.86,662.2z" fill="#FF0000" fill-rule="evenOdd"/>
  <path d="M2246.15,1698.16c-0.36,7.76 -4.7,13.64 -9.15,19.49c-1.39,1.83 -3.17,2.28 -5.27,1.71c-4.89,-1.32 -9.92,-0.81 -14.87,-1.28c-10.94,-1.04 -16.81,-8.69 -14.23,-19.3c2.1,-8.64 7.12,-15.73 13.93,-21.37c4.16,-3.44 8.9,-3.92 14.02,-1.7C2239.67,1679.67 2246.43,1689.23 2246.15,1698.16z" fill="#FF0000" fill-rule="evenOdd"/>
  <path d="M1207.45,2324.19c4.77,6.01 9.4,11.23 13.31,16.93c5.12,7.47 3.96,17.19 -2.09,22.77c-5.64,5.19 -13.32,5.22 -21.06,-0.14c-2.17,-1.5 -4.2,-3.29 -5.99,-5.23c-7.18,-7.77 -7.15,-11.81 0.38,-19.53C1196.64,2334.25 1201.58,2329.8 1207.45,2324.19z" fill="#FF0000" fill-rule="evenOdd"/>
  <path d="M1975.57,694.4c-0.1,-12.64 8.3,-19.75 20.63,-17.48c19.46,3.59 20.09,4.76 12.05,22.28c-0.55,1.21 -1.09,2.42 -1.7,3.6c-5.33,10.39 -7.1,11.43 -15.67,9.27C1979.76,709.26 1975.65,704.52 1975.57,694.4z" fill="#FF0000" fill-rule="evenOdd"/>
  <path d="M1871.4,2196.1c-5.67,5.69 -10.2,10.53 -15.06,15.02c-5.32,4.91 -6.93,4.87 -12.89,0.31c-2.36,-1.81 -4.64,-3.83 -6.58,-6.07c-2.73,-3.16 -8.68,-5.8 -7.32,-9.72c1.87,-5.39 6.7,-9.86 11.91,-12.93c3.81,-2.24 7.85,-0.77 11.33,1.37C1858.7,2187.69 1864.44,2191.58 1871.4,2196.1z" fill="#FF0000" fill-rule="evenOdd"/>
  <path d="M1250.09,2438.4c-7.07,4.44 -12.79,8.42 -18.87,11.72c-5.55,3.01 -8.5,2.18 -13.17,-2.87c-3.68,-3.98 -7.08,-8.2 -4.16,-14.22c1.48,-3.05 3.48,-5.7 5.98,-7.93c4.47,-3.98 7.58,-4.48 12.55,-0.94C1238.08,2428.19 1243.29,2432.87 1250.09,2438.4z" fill="#FF0000" fill-rule="evenOdd"/>
  <path d="M1028.25,2467.72c4.83,5.74 9.11,10.37 12.87,15.39c4.66,6.22 4.26,9.31 -1.02,14.78c-9.02,9.34 -10.2,9.38 -19.48,0.63c-8.31,-7.83 -8.57,-10.4 -1.79,-19.14C1021.64,2475.75 1024.59,2472.23 1028.25,2467.72z" fill="#FF0000" fill-rule="evenOdd"/>
  <path d="M2117.4,1958.38c4.62,5.76 8.53,10.68 12.47,15.56c2.48,3.07 2.18,6.03 -0.14,9.03c-3.7,4.78 -8.52,8.34 -13.14,12.12c-1.1,0.9 -2.23,1.13 -3.64,0.55c-10.67,-4.46 -13.6,-16.09 -6.19,-25.09C2109.92,1966.71 2113.29,1963.06 2117.4,1958.38z" fill="#FF0000" fill-rule="evenOdd"/>
  <path d="M406.87,894.8c4.77,5.89 9.28,10.8 13.03,16.24c4.22,6.11 3.06,10.46 -3.38,16.51c-5.13,4.82 -7.26,5.01 -13.97,0.51c-2.45,-1.64 -4.71,-3.7 -6.7,-5.89c-3.32,-3.66 -3.59,-7.74 -0.6,-11.8C398.95,905.34 402.71,900.36 406.87,894.8z" fill="#FF0000" fill-rule="evenOdd"/>
  <path d="M2419.69,1555.86c-5.95,5.27 -10.88,9.6 -15.77,13.98c-2.98,2.67 -5.96,2.58 -8.78,-0.1c-2.39,-2.26 -5.15,-4.41 -6.73,-7.18c-1.93,-3.4 -8.67,-5.33 -3.79,-11.29c7.36,-8.98 10.98,-10.26 19.08,-5.93c1.45,0.78 2.84,1.68 4.22,2.59C2411.46,1550.29 2414.98,1552.68 2419.69,1555.86z" fill="#FF0000" fill-rule="evenOdd"/>
  <path d="M2301.47,1158.74c-3.72,-6.66 -7.03,-11.99 -9.74,-17.61c-2.9,-6.01 -1.8,-9.15 3.8,-13.67c5.44,-4.39 9.06,-4.64 14.38,-1.01c8.31,5.68 9.15,10.9 2.84,18.92C2309.48,1149.49 2305.96,1153.42 2301.47,1158.74z" fill="#FF0000" fill-rule="evenOdd"/>
  <path d="M1573.16,463.29c-0.84,-0.26 -1.23,-0.27 -1.46,-0.46c-19.09,-15.62 -13.82,-16.51 -0.4,-32.65c5.39,3.18 9.26,8.15 13.75,12.39c2.72,2.56 2.11,5.37 0.23,8.08C1581.85,455.59 1577.38,459.5 1573.16,463.29z" fill="#FF0000" fill-rule="evenOdd"/>
  <path d="M1916.5,2166.98c-3.2,-4.7 -6.37,-8.93 -9.07,-13.44c-3.74,-6.27 -3.27,-8.91 1.99,-13.83c1.92,-1.8 4.09,-3.33 6.15,-4.99c1.84,-1.48 3.55,-1.45 5.15,0.38c0.43,0.5 0.93,0.94 1.41,1.39c12.54,11.73 12.6,13.87 0.55,25.84C1921.05,2163.94 1919.74,2165.94 1916.5,2166.98z" fill="#FF0000" fill-rule="evenOdd"/>
  <path d="M715.81,838.93c-4.32,-6.87 -8.11,-12.26 -11.2,-18.02c-2.8,-5.23 -1.81,-7.88 2.91,-12.01c3.8,-3.32 7.54,-4.76 12.44,-1.68c9.13,5.74 10.64,11.68 4.49,20.33C722.01,830.98 719.35,834.28 715.81,838.93z" fill="#FF0000" fill-rule="evenOdd"/>
  <path d="M489.07,1725.25c4.51,4.9 8.28,8.6 11.58,12.69c4.07,5.03 3.86,7.19 -0.17,12.22c-7.58,9.45 -10.72,9.39 -18.54,0.04c-3.35,-4.01 -4.51,-7.91 -1.28,-12.49C483.31,1733.94 485.82,1730.07 489.07,1725.25z" fill="#FF0000" fill-rule="evenOdd"/>
  <path d="M336.63,973.52c-3.06,-5.65 -6.22,-10.72 -8.61,-16.14c-2.32,-5.26 -0.58,-8.69 4.97,-12.39c4.07,-2.72 7.78,-3.1 11.67,0.48c5.04,4.64 6.82,9.41 3.97,13.94C345.45,964.42 341.59,968.97 336.63,973.52z" fill="#FF0000" fill-rule="evenOdd"/>
  <path d="M1139.46,2240.51c-1.52,2.44 -4.13,3.3 -6.41,4.51c-8.44,4.47 -17.24,1.36 -21.49,-7.21c-1.97,-3.98 0.74,-6.26 2.72,-8.73c2.35,-2.93 5.17,-5.43 9.38,-3.56C1130.69,2228.63 1137.64,2231.88 1139.46,2240.51z" fill="#FF0000" fill-rule="evenOdd"/>
  <path d="M1097.02,2430.08c4.07,4.83 6.83,9.72 9.17,14.82c2.63,5.75 1.55,8.43 -3.51,12.88c-4.47,3.94 -7.82,1.6 -11.37,-1.19c-7.72,-6.09 -8.21,-9.69 -2.18,-17.2C1091.59,2436.32 1094.21,2433.39 1097.02,2430.08z" fill="#FF0000" fill-rule="evenOdd"/>
  <path d="M2092.28,1913.9c-4.61,3.57 -7.89,6.34 -11.4,8.76c-5.54,3.81 -7.09,3.59 -12.04,-0.98c-8.68,-8 -8.11,-12.63 2.05,-18.23c3.27,-1.8 6.28,-1.98 9.19,0.34C2083.9,1906.83 2087.61,1910.02 2092.28,1913.9z" fill="#FF0000" fill-rule="evenOdd"/>
  <path d="M2469.46,1508.78c3.03,3.89 6.32,7.59 8.99,11.69c3.12,4.79 2.36,7.85 -2.12,12.11c-4.52,4.29 -7.9,5.13 -12.28,2.11c-8.9,-6.11 -9.81,-10.83 -3.32,-17.44C2463.45,1514.48 2465.48,1510.98 2469.46,1508.78z" fill="#FF0000" fill-rule="evenOdd"/>
  <path d="M1217.06,258.82c-2.48,4.31 -6.25,7.15 -9.37,10.57c-2.75,3.02 -6.03,4.35 -9.77,2.12c-4.05,-2.42 -8.06,-5.4 -8.08,-10.61c-0.02,-5.15 3.86,-8.22 7.75,-10.92c3.32,-2.3 6.4,-0.94 9.23,1C1210.34,253.41 1214.18,255.48 1217.06,258.82z" fill="#FF0000" fill-rule="evenOdd"/>
  <path d="M1579.5,524.43c-3.96,4.06 -8.22,6.47 -12.34,8.99c-3.81,2.33 -7.77,2.24 -10.8,-1.25c-2.2,-2.53 -7.4,-4.29 -5.36,-8.33c2.3,-4.55 5.48,-9.23 11.05,-10.84c2.09,-0.61 3.91,0.58 5.47,1.78C1571.41,517.78 1575.19,520.94 1579.5,524.43z" fill="#FF0000" fill-rule="evenOdd"/>
  <path d="M1434.69,469.4c-3.56,4.35 -7.41,6.85 -11.1,9.41c-5.96,4.13 -8.4,3.85 -12.93,-0.75c-4.59,-4.66 -4.99,-8.15 -1.47,-13.04c3.98,-5.53 7.41,-6.47 13.52,-3.16C1426.66,464 1430.34,466.64 1434.69,469.4z" fill="#FF0000" fill-rule="evenOdd"/>
  <path d="M2298.12,1206.48c-0.53,2.62 -2.6,3.88 -4.15,5.47c-7.98,8.19 -16.55,7.16 -22.12,-2.62c-0.31,-0.55 -0.67,-1.21 -0.65,-1.81c0.15,-5.6 12.85,-12.56 17.47,-9.39C2292.13,1200.52 2295.8,1202.84 2298.12,1206.48z" fill="#FF0000" fill-rule="evenOdd"/>
  <path d="M478.28,1184.99c-3.48,4.08 -7.52,6.92 -11.76,9.38c-4.88,2.84 -7.86,1.99 -11.98,-2.77c-3.6,-4.16 -3.58,-6.53 0.1,-11.33c5.78,-7.53 9.53,-7.87 16.96,-1.44C473.83,1180.76 475.93,1182.82 478.28,1184.99z" fill="#FF0000" fill-rule="evenOdd"/>
  <path d="M2067.66,472.11c-3.18,4.45 -7.06,5.8 -10.5,7.61c-5.79,3.06 -7.7,2.45 -11.84,-2.69c-5.19,-6.47 -4.81,-8.24 2.01,-13.45c3.77,-2.88 7.09,-3.14 10.67,0.09C2061.19,466.56 2064.48,469.35 2067.66,472.11z" fill="#FF0000" fill-rule="evenOdd"/>
  <path d="M574.11,1724.69c-1.93,3.97 -4.89,5.67 -7.41,7.71c-6.16,5 -8.01,4.97 -13.43,-0.55c-1.91,-1.94 -5.85,-3.73 -4.17,-7.01c2.05,-4 4.65,-8.18 9.63,-9.41c2.05,-0.51 3.9,0.44 5.52,1.66C567.42,1719.46 570.52,1721.91 574.11,1724.69z" fill="#FF0000" fill-rule="evenOdd"/>
  <path d="M1272.27,349.84l-0.47,-0.11c0,0 0.31,0.01 0.3,0C1272.1,349.72 1272.27,349.84 1272.27,349.84z" fill="#FF0000" fill-rule="evenOdd"/>
  <path d="M1889.86,1424.54c10.71,-20.63 18.36,-41.91 25.67,-63.3c24.96,-73.01 42.26,-147.83 52.01,-224.36c2.23,-17.5 3.36,-35.15 5.14,-52.71c1.91,-18.79 16.48,-29.73 34.85,-26.45c7.38,1.32 12.85,5.13 16.44,11.73c5.26,9.66 6.72,20.07 6.54,30.91c-0.31,18.05 -2.84,35.84 -5.6,53.62c-14.96,96.29 -45.06,188.24 -79.66,278.92c-8.9,23.33 -17.56,46.75 -25.96,70.27c-4.5,12.6 -14,19.22 -25.98,22.63c-8.62,2.45 -16.41,-0.71 -23.08,-6.5c-8.5,-7.38 -14.03,-16.8 -18.51,-26.96c-8.48,-19.23 -15.15,-39.12 -21.42,-59.13c-12.93,-41.3 -25.15,-82.82 -36.37,-124.62c-0.6,-2.24 -0.89,-4.6 -2.72,-6.45c-3.08,2.85 -3.89,6.88 -5.47,10.47c-24.7,56.06 -47.71,112.87 -73.65,168.4c-7.61,16.3 -15.56,32.44 -25.22,47.66c-2.85,4.49 -5.89,8.91 -9.26,13.01c-7.1,8.65 -12.34,9.92 -22.89,6.08c-7.54,-2.74 -12.94,-7.93 -17,-14.75c-6.55,-10.99 -10.59,-22.95 -13.65,-35.26c-9.32,-37.52 -15.48,-75.66 -22.01,-113.72c-11.49,-66.96 -19.76,-134.41 -30.31,-201.51c-2.79,-17.73 -7.36,-35.18 -10.88,-52.8c-3.19,-15.96 0.1,-30.41 10.76,-43c12.74,-15.05 30.95,-14.1 41.8,2.43c7.07,10.78 9.94,23.15 12.6,35.56c6.65,30.98 10.21,62.42 13.68,93.86c4.17,37.74 9.46,75.33 14.85,112.91c3.93,27.36 7.59,54.75 11.42,82.13c0.82,5.87 1.9,11.7 2.91,17.82c3.62,-0.03 3.78,-2.86 4.67,-4.64c35.66,-71.22 68.46,-143.67 94.36,-219.1c2.97,-8.64 6.75,-16.65 13.99,-22.61c13.8,-11.36 27.05,-8.87 35.23,7.1c5.63,10.99 9.43,22.77 12.98,34.56c16.02,53.23 31.85,106.51 47.83,159.75C1881.76,1399.22 1885.88,1411.86 1889.86,1424.54z" fill="#FFFFFF" fill-rule="evenOdd"/>
  <path d="M912.05,1287.37c13.31,-12.93 26.08,-26.39 37.78,-40.82c18.03,-22.25 35.72,-44.77 53.67,-67.08c14.28,-17.74 26.57,-36.6 35.23,-57.8c3.52,-8.6 8.11,-16.78 12.41,-25.06c2.15,-4.14 4.81,-7.98 8.2,-11.27c7.08,-6.86 13.84,-7.93 22.72,-3.49c22.2,11.1 31.44,34.93 22.36,58.23c-9.18,23.58 -23.37,44.14 -39.73,63.15c-25.4,29.53 -51.26,58.67 -76.93,87.97c-6.36,7.26 -12.55,14.69 -19.16,21.71c-3.43,3.65 -3.75,6.08 0.11,9.78c19.47,18.69 38.66,37.68 58.01,56.49c13.62,13.24 27.46,26.25 40.98,39.58c9.51,9.38 19.9,17.71 30.07,26.3c10.42,8.8 23.56,10.33 36.29,12.77c3.59,0.69 7.26,1.01 10.88,1.55c9.31,1.38 9.49,1.36 10.78,10.73c1.9,13.81 0.75,27.3 -5.78,39.9c-7.99,15.42 -23.11,22.39 -40.17,18.81c-9.97,-2.09 -18.71,-6.81 -27.19,-12.18c-13.31,-8.41 -24.9,-18.97 -36.32,-29.67c-31.6,-29.62 -62.99,-59.45 -94.51,-89.14c-11.15,-10.51 -22.37,-20.96 -34.86,-29.9c-6.91,-4.94 -8.19,-4.63 -10.73,3.74c-4.75,15.69 -6.28,31.98 -8.18,48.19c-3.18,27.12 -3.3,54.54 -7.92,81.53c-1.63,9.53 -3.64,18.95 -7.68,27.83c-4.71,10.35 -12.46,16.48 -24.02,16.46c-11.74,-0.02 -20.27,-5.63 -25.32,-16.34c-4.85,-10.28 -6.11,-21.17 -4.38,-32.22c7.99,-51.07 11.29,-102.61 15.66,-154.04c4.68,-55.1 9.05,-110.22 14.21,-165.27c2.61,-27.83 5.28,-55.71 11.35,-83.09c1.9,-8.57 5.06,-16.57 11.2,-23.07c12.73,-13.47 35.42,-10.79 44.24,5.54c5.85,10.83 7.95,22.7 5.72,34.86c-9.44,51.49 -15.52,103.39 -19.41,155.57c-0.47,6.29 -1.03,12.58 -1.56,18.87C910.73,1286.79 911.39,1287.08 912.05,1287.37z" fill="#FFFFFF" fill-rule="evenOdd"/>
  <path d="M1383.56,1428.88c12.32,-16.67 21.15,-33.25 26.45,-51.68c1.22,-4.24 0.89,-7.18 -4.47,-7.49c-2.31,-0.14 -4.59,-0.8 -6.86,-1.32c-22.17,-5.04 -30.88,-32.24 -15.8,-49.39c5.02,-5.71 10.9,-8.73 18.62,-5.56c0.61,0.25 1.33,0.26 1.92,0.54c25.46,11.99 51.89,9.55 78.46,5.33c3.93,-0.63 7.94,-1.22 11.9,-1.14c9.65,0.2 14.99,5.01 15.59,14.63c0.82,13.07 -3.48,28.32 -22.5,33.16c-4.82,1.23 -9.84,1.63 -14.76,2.46c-6.62,1.11 -11.7,3.97 -14.44,10.69c-11.23,27.53 -24.61,53.92 -42.99,77.35c14.05,15.85 34.16,21.58 52.42,13.74c9.22,-3.96 18,-0.69 19.41,10.83c0.24,1.98 0.76,3.94 0.83,5.93c0.95,24.15 -23.34,46.97 -47.4,44.51c-22.07,-2.25 -40.55,-12.27 -57.04,-26.54c-6.43,-5.56 -6.37,-5.56 -12.67,-0.37c-19.88,16.38 -41.8,28.27 -67.75,31.97c-43.77,6.24 -77.55,-15.88 -88.4,-59.05c-10.02,-39.89 -1.94,-76.57 21.45,-110.1c9.21,-13.2 20.12,-24.95 32.69,-34.89c7.43,-5.87 9.03,-12.02 6.4,-20.84c-7.2,-24.13 -10.41,-48.83 -8.7,-74.04c1.62,-23.84 8.64,-45.74 24.14,-64.37c11.46,-13.77 26.07,-21.46 44.17,-22.02c18.02,-0.56 31.53,7.54 40.89,22.38c16.59,26.31 19.64,54.77 11.56,84.48c-6.44,23.69 -19.88,43.44 -36.16,61.42c-3.35,3.7 -6.67,7.46 -10.28,10.91c-4.56,4.36 -5.93,9.49 -4.52,15.47c0.69,2.9 1.34,5.88 2.53,8.6C1349.8,1380.89 1365.17,1404.94 1383.56,1428.88zM1294.39,1371.82c-11.83,10.32 -20.4,21.3 -26.13,34.25c-6.86,15.51 -10.2,31.67 -6.61,48.66c3.68,17.43 16.6,28.23 34.4,29.28c17.3,1.02 31.88,-5.41 45.06,-15.87c5.4,-4.28 5.43,-4.44 1.31,-10.17c-16.42,-22.78 -29.91,-47.23 -41.79,-72.62C1298.69,1381.19 1296.79,1377.02 1294.39,1371.82zM1318.09,1292.05c14.34,-11.32 25.86,-32.94 28.28,-52.21c1.35,-10.77 0.9,-21.26 -4.32,-31.01c-5.56,-10.37 -14,-10.95 -20.96,-1.43c-5.19,7.09 -7.89,15.23 -9.21,23.91c-2.07,13.64 -0.82,27.17 1.2,40.65C1314.09,1278.72 1314.62,1285.72 1318.09,1292.05z" fill="#FFFFFF" fill-rule="evenOdd"/>
  <path d="M1755.76,1812.25c-4.07,0.56 -6.09,3.47 -8.7,5.34c-9.53,6.83 -19.42,12.83 -31.15,15.24c-20.31,4.17 -36.65,-6.97 -39.92,-27.44c-2.52,-15.83 -0.39,-31.31 4.76,-46.24c8.66,-25.13 23.32,-46.28 44.21,-62.88c9.51,-7.55 20.09,-13.04 32.16,-15.29c6.96,-1.3 13.9,-1.57 20.71,0.84c10.63,3.76 14.76,12.27 11.08,23c-1.41,4.12 -3.28,8.07 -6.49,11.12c-4.22,4.01 -8.38,3.28 -11.29,-1.84c-0.65,-1.15 -0.97,-2.48 -1.58,-3.66c-3.09,-6.02 -5.24,-7.16 -11.93,-6.4c-3.7,0.42 -7.22,1.64 -10.28,3.65c-31.17,20.47 -49.4,48.67 -51.35,86.49c-0.15,2.99 0.17,5.95 1.29,8.83c2.46,6.32 6.07,9.04 12.83,8.9c2.62,-0.05 5.31,-0.53 7.83,-1.27c15.85,-4.64 28.42,-14.26 39.19,-26.45c4.14,-4.69 5.24,-10.69 6.56,-16.52c0.66,-2.92 0.8,-5.95 1.45,-8.87c1.88,-8.46 9.62,-12.22 17.41,-8.49c3.76,1.8 5.35,5.07 4.83,9.03c-0.43,3.27 -1.45,6.49 -2.45,9.65c-6.84,21.74 -10.59,43.96 -10.74,66.77c-0.02,3 0.13,6.02 -0.24,8.98c-0.83,6.71 -5.44,11.25 -10.8,10.96c-5.73,-0.31 -11.12,-5.68 -11.28,-11.97c-0.1,-3.95 0.81,-7.92 1.22,-11.88C1753.74,1825.4 1756.47,1819.18 1755.76,1812.25z" fill="#FFFFFF" fill-rule="evenOdd"/>
  <path d="M1460.95,1775.02c-7.32,0.41 -14.65,0.66 -21.95,1.25c-11.67,0.94 -12.19,1.53 -13.02,12.91c-0.68,9.3 -1.3,18.61 -1.93,27.91c-0.41,6.02 -1.49,11.93 -3.86,17.47c-3.41,7.95 -11.14,8.64 -16.2,1.5c-3.06,-4.31 -3.42,-9.33 -2.69,-14.38c1.62,-11.2 3.5,-22.35 5.1,-33.55c3.72,-26.05 5.92,-52.26 7.97,-78.48c0.34,-4.31 0.67,-8.67 1.63,-12.87c1.19,-5.19 5.41,-8.58 9.72,-8.63c4.82,-0.06 9.09,3.55 10.02,9.41c1.25,7.95 0.46,15.94 -0.6,23.89c-1.23,9.23 -2.33,18.49 -3.53,27.73c-0.59,4.57 0.94,6.85 5.94,6.65c15.65,-0.62 31.27,-1.68 46.69,-4.47c7.65,-1.38 8.61,-2.8 9.81,-10.42c2.33,-14.83 3.22,-29.79 3.62,-44.78c0.11,-4.16 0.76,-7.83 3.74,-10.98c5.75,-6.08 13.37,-4.95 17,2.64c2.61,5.47 1.36,11.15 0.69,16.72c-1.75,14.54 -3.82,29.04 -5.57,43.58c-2.9,24.16 -3.76,48.47 -5.09,72.74c-0.31,5.61 -1.5,10.49 -5.39,14.55c-2.6,2.71 -5.42,5.27 -9.57,3.63c-4.29,-1.7 -7.49,-4.68 -7.62,-9.56c-0.13,-4.98 0.11,-9.99 0.57,-14.96c0.84,-8.95 1.99,-17.87 2.96,-26.8c0.25,-2.32 0.43,-4.65 0.44,-6.98c0.04,-7.45 -0.34,-7.85 -7.97,-7.42c-6.98,0.39 -13.95,1.01 -20.92,1.53C1460.94,1774.91 1460.95,1774.96 1460.95,1775.02z" fill="#FFFFFF" fill-rule="evenOdd"/>
  <path d="M1833.03,1840.35c-1,0.07 -1.99,0.19 -2.99,0.21c-11.51,0.25 -16.51,-4.66 -16.04,-16.34c0.16,-3.94 1.37,-7.83 2.14,-11.74c4.77,-24.22 6.97,-48.78 9.83,-73.25c0.39,-3.31 0.5,-6.66 1.06,-9.94c1.07,-6.36 0.72,-12.25 -1.78,-18.5c-3.21,-8.01 1.26,-14.95 9.56,-14.45c21.94,1.33 42.93,-4.9 64.42,-6.95c1.98,-0.19 3.98,-0.62 5.94,-0.49c7.35,0.5 11.59,4.74 11.51,11.21c-0.08,5.99 -4.92,11.27 -11.26,11.81c-8.96,0.77 -17.94,1.36 -26.93,1.85c-7.68,0.42 -15.19,1.85 -22.72,3.3c-4.11,0.79 -6.24,2.69 -6.86,7.12c-1.2,8.56 -3.15,17.02 -4.57,25.56c-1.05,6.32 -0.35,7.05 5.88,6.74c8.34,-0.41 16.53,-1.76 24.66,-3.73c6.13,-1.48 12.27,-3.31 18.71,-2.58c6.71,0.76 9.88,3.37 10.52,8.61c0.81,6.64 -1.62,11.4 -8.3,12.82c-12.04,2.56 -24.25,4.34 -36.43,6.16c-18.17,2.71 -18.2,2.6 -20.93,20.86c-0.39,2.63 -0.57,5.3 -0.8,7.96c-1,11.82 -0.27,12.49 11.88,10.6c13.48,-2.09 27.05,-3.7 40.34,-6.96c3.19,-0.78 6.54,-1.33 9.89,-0.4c5.2,1.44 8.07,5.36 8.27,11.08c0.18,5.06 -1.92,8.31 -6.94,9.45c-4.54,1.03 -9.04,2.58 -13.64,2.93c-14.98,1.14 -29.8,3.13 -44.49,6.26c-3.23,0.69 -6.63,0.62 -9.95,0.89C1833.03,1840.4 1833.03,1840.38 1833.03,1840.35z" fill="#FFFFFF" fill-rule="evenOdd"/>
  <path d="M1660.76,1826.19c0.17,6.74 -2.76,11.86 -7.13,13.64c-4.89,1.98 -9.13,0.51 -12.85,-2.85c-4.01,-3.62 -6.84,-8.11 -9.45,-12.78c-4.57,-8.17 -7.65,-16.96 -10.9,-25.69c-2.94,-7.91 -3.02,-8.23 -11.43,-6.39c-9.73,2.13 -19.33,4.89 -28.96,7.44c-2.24,0.59 -4.57,2.34 -6.61,2.01c-9.86,-1.59 -11.93,5.78 -15.12,12.23c-2.8,5.66 -5.73,11.29 -9.08,16.63c-3.83,6.11 -8.26,7.39 -13.31,4.56c-6.09,-3.41 -8.23,-8.73 -5.76,-14.99c1.34,-3.4 2.91,-6.73 4.68,-9.92c19.33,-34.94 36.78,-70.83 53.65,-107.01c1.82,-3.9 3.98,-7.69 6.34,-11.29c2.96,-4.5 7.34,-5.42 12.31,-3.83c4.68,1.5 7.34,4.75 6.9,9.69c-0.68,7.54 1.78,14.42 3.76,21.45c6.12,21.76 12.22,43.54 20.15,64.73c4.68,12.51 10.09,24.65 19.02,34.84C1659.21,1821.26 1660.74,1824.13 1660.76,1826.19zM1575.57,1778.39c11.75,-2.53 21.08,-4.73 30.5,-6.47c4.69,-0.87 4.99,-3.26 3.82,-7.06c-1.56,-5.07 -2.69,-10.29 -4.36,-15.32c-2.31,-6.92 -3.11,-14.38 -7.29,-22.72C1590.45,1744.53 1583.42,1760.54 1575.57,1778.39z" fill="#FFFFFF" fill-rule="evenOdd"/>
  <path d="M993.9,1828.21c-0.28,5.01 -2.41,9.13 -6.89,11.39c-4.67,2.36 -9.07,0.98 -12.89,-2.38c-3.8,-3.34 -6.66,-7.41 -9.12,-11.79c-4.76,-8.44 -8.17,-17.45 -11.36,-26.57c-2.94,-8.4 -3.04,-8.54 -12.13,-6.73c-10.44,2.08 -20.74,4.77 -30.85,8.12c-2.84,0.94 -5.68,2.56 -8.66,1.98c-4.9,-0.95 -6.17,2.21 -7.85,5.62c-3.52,7.16 -7.07,14.33 -11.1,21.21c-4.19,7.16 -8.44,8.81 -13.67,6.22c-6.71,-3.33 -8.74,-9.23 -5.62,-16.67c1.29,-3.06 2.66,-6.11 4.27,-9.01c18.91,-34.05 35.96,-69.03 52.34,-104.34c2.09,-4.51 4.57,-8.87 7.21,-13.1c2.81,-4.5 7.03,-5.76 12.15,-4.36c5.34,1.47 7.88,5.32 7.45,10.4c-0.65,7.58 1.69,14.48 3.7,21.47c5.88,20.45 11.59,40.95 18.87,60.97c5.03,13.82 10.85,27.2 20.53,38.54C992.49,1821.78 994.13,1824.61 993.9,1828.21zM908.96,1777.49c11.78,-0.79 21.19,-3.97 30.84,-5.81c4.11,-0.78 4.14,-3.09 3.09,-6.56c-2.58,-8.54 -4.59,-17.26 -7.23,-25.77c-1.14,-3.65 -0.9,-7.97 -4.92,-11.41C923.6,1744.18 916.61,1760.08 908.96,1777.49z" fill="#FFFFFF" fill-rule="evenOdd"/>
  <path d="M1383.98,1712.05c-0.16,6.17 -0.22,14.36 -7.67,19.75c-3.45,2.49 -7.06,5.49 -11.81,2.85c-4.52,-2.51 -5,-6.85 -4.53,-11.3c0.56,-5.28 1.9,-10.51 2.17,-15.79c0.37,-7.06 -2.33,-8.94 -9.2,-6.9c-4.84,1.44 -9.19,4 -12.95,7.36c-24.3,21.7 -38.7,48.77 -43.62,80.93c-0.15,0.98 -0.11,2 -0.1,2.99c0.12,18.51 10.2,35.21 35.25,24.93c7.18,-2.94 13.66,-6.86 19.7,-11.63c2.35,-1.86 4.74,-3.67 7.22,-5.34c2.64,-1.79 5.51,-2.69 8.27,-0.31c2.5,2.15 3.08,5.04 2.34,8.18c-0.78,3.32 -2.41,6.24 -4.73,8.69c-10.98,11.56 -23.55,20.6 -39.45,24.11c-22.14,4.89 -43.5,-8.56 -48.8,-30.52c-2.73,-11.3 -2.23,-22.63 0.42,-33.69c7.49,-31.17 21.91,-58.51 46.15,-80.09c7.03,-6.26 14.82,-11.33 23.9,-14.14C1369.02,1675.18 1384.23,1686.57 1383.98,1712.05z" fill="#FFFFFF" fill-rule="evenOdd"/>
  <path d="M1035.07,1812.32c0,5.66 0.15,11.33 -0.04,16.99c-0.25,7.65 -2.74,11.37 -7.81,12.29c-5.34,0.97 -11.44,-3.14 -13.93,-9.2c-1.45,-3.54 -1.23,-7.2 -1.1,-10.84c0.62,-17.33 2.76,-34.52 4.73,-51.72c1.93,-16.87 3.86,-33.74 5.97,-50.59c0.47,-3.77 -0.44,-7.27 -0.9,-10.88c-1.45,-11.49 4.2,-17.24 15.4,-15.42c8.11,1.32 15.86,-1.1 23.77,-1.8c8.95,-0.79 17.85,-2.11 26.79,-2.99c3.63,-0.36 7.32,-0.29 10.9,0.82c6.85,2.12 9.85,5.75 9.1,11.13c-0.93,6.69 -6.36,11.93 -12.98,11.27c-8.38,-0.83 -16.64,-0.31 -24.93,0.46c-3.97,0.37 -7.94,0.89 -11.87,1.58c-13.25,2.31 -13.37,2.33 -15.66,14.96c-1.54,8.52 -2.88,17.09 -3.06,25.77c-0.13,5.94 0.12,6.41 6.15,5.59c9.56,-1.3 19.06,-3.03 28.57,-4.7c4.63,-0.81 9.26,-1.38 13.91,-0.65c4.2,0.67 7.38,2.8 8.73,7.17c1.27,4.11 -0.72,7.03 -3.13,9.94c-3.74,4.51 -9.15,5.28 -14.35,6.18c-9.18,1.58 -18.43,2.79 -27.65,4.15c-1.32,0.19 -2.65,0.28 -3.96,0.52c-11.32,2.07 -11.33,2.08 -12.04,14.02c-0.32,5.32 -0.59,10.65 -0.88,15.97C1034.88,1812.32 1034.97,1812.32 1035.07,1812.32z" fill="#FFFFFF" fill-rule="evenOdd"/>
  <path d="M1117.55,1815.66c1.39,-25.33 4.95,-48.7 7.56,-72.17c0.85,-7.6 1.85,-15.19 2.76,-22.78c0.56,-4.69 -0.37,-9.2 -1.22,-13.81c-1.47,-7.93 4.89,-15.87 12.11,-14.45c10.19,2 19.81,-0.64 29.65,-1.69c7.94,-0.84 15.86,-1.89 23.81,-2.56c3.29,-0.28 6.7,-0.19 9.94,0.39c7.37,1.32 11.48,5.53 10.99,10.66c-0.7,7.44 -6.65,12.74 -14.28,12.08c-13.06,-1.13 -25.91,0.28 -38.71,2.56c-9.78,1.74 -10.17,2.17 -12.06,11.57c-1.97,9.79 -3.13,19.69 -4,29.64c-0.36,4.08 1.34,5.45 5.19,4.82c9.84,-1.61 19.71,-3.08 29.53,-4.8c4.95,-0.87 9.94,-1.69 14.86,-0.61c8.59,1.89 11,10.04 5.28,16.78c-3.78,4.45 -9.05,5.45 -14.27,6.32c-9.84,1.64 -19.74,2.9 -29.61,4.41c-13.64,2.09 -14.19,2.49 -14.77,16.02c-0.43,9.97 -0.22,19.97 -0.32,29.95c-0.1,9.07 -2.55,13.04 -8.35,13.68c-6.48,0.71 -13.15,-5.07 -13.97,-12.79C1117.13,1823.96 1117.55,1818.93 1117.55,1815.66z" fill="#FFFFFF" fill-rule="evenOdd"/>
  <path d="M1222.29,1806.62c0.56,-24.28 4.02,-48.32 6.69,-72.44c1.06,-9.58 2.34,-19.14 3.45,-28.71c0.72,-6.18 2.62,-11.6 8.29,-15.12c5.66,-3.51 10.08,-2.49 12.99,3.6c2.37,4.97 2.45,10.11 1.23,15.56c-5.55,24.68 -9.03,49.69 -11.16,74.88c-1.01,11.98 0.12,23.94 0.58,35.9c0.17,4.38 0.02,8.63 -3.24,12.15c-6.27,6.78 -14.55,4.93 -17.59,-4.05c-0.53,-1.57 -1.14,-3.2 -1.18,-4.82C1222.2,1817.93 1222.29,1812.27 1222.29,1806.62z" fill="#FFFFFF" fill-rule="evenOdd"/>
  <path d="M1294.39,1371.82c2.4,5.2 4.3,9.37 6.24,13.53c11.88,25.39 25.37,49.84 41.79,72.62c4.13,5.73 4.09,5.88 -1.31,10.17c-13.18,10.46 -27.75,16.89 -45.06,15.87c-17.8,-1.05 -30.73,-11.85 -34.4,-29.28c-3.58,-16.99 -0.25,-33.15 6.61,-48.66C1273.99,1393.12 1282.56,1382.14 1294.39,1371.82z" fill="#FF0000" fill-rule="evenOdd"/>
  <path d="M1318.09,1292.05c-3.47,-6.32 -4,-13.33 -5.02,-20.1c-2.02,-13.47 -3.27,-27.01 -1.2,-40.65c1.32,-8.68 4.02,-16.81 9.21,-23.91c6.96,-9.52 15.4,-8.94 20.96,1.43c5.23,9.75 5.68,20.24 4.32,31.01C1343.95,1259.1 1332.44,1280.73 1318.09,1292.05z" fill="#FF0000" fill-rule="evenOdd"/>
  <path d="M1575.57,1778.39c7.84,-17.85 14.88,-33.86 22.66,-51.57c4.18,8.33 4.98,15.8 7.29,22.72c1.68,5.03 2.8,10.25 4.36,15.32c1.17,3.8 0.88,6.19 -3.82,7.06C1596.65,1773.66 1587.32,1775.87 1575.57,1778.39z" fill="#FF0000" fill-rule="evenOdd"/>
  <path d="M908.96,1777.49c7.65,-17.4 14.64,-33.31 21.77,-49.56c4.02,3.44 3.79,7.76 4.92,11.41c2.65,8.52 4.65,17.23 7.23,25.77c1.05,3.47 1.02,5.78 -3.09,6.56C930.15,1773.52 920.74,1776.7 908.96,1777.49z" fill="#FF0000" fill-rule="evenOdd"/>
</svg>