<?xml version="1.0" encoding="UTF-8" standalone="no"?>
<!DOCTYPE svg PUBLIC "-//W3C//DTD SVG 1.1//EN" "http://www.w3.org/Graphics/SVG/1.1/DTD/svg11.dtd">
<svg version="1.1" xmlns="http://www.w3.org/2000/svg" xmlns:xlink="http://www.w3.org/1999/xlink" preserveAspectRatio="xMidYMid meet" viewBox="0 0 640 640" width="640" height="640"><defs><path d="M53.65 427.87L63.29 427.87L63.29 477.71C63.49 477.71 63.61 477.71 63.63 477.71C65.62 473.72 67.62 470.04 69.5 466.67C71.03 464.08 78.64 451.15 92.34 427.87L104.31 427.87L77.26 471.73L106.42 531.22L95 531.22L70.39 480.47L63.29 491.82L63.29 531.22L53.65 531.22L53.65 427.87Z" id="a5KEp0sYwe"></path><path d="M160.53 531.23C158.42 528.31 156.42 525.4 153.54 521.11C147.11 529.39 139.91 532.91 131.7 532.91C117.18 532.91 108.75 519.42 108.75 503.93C108.75 489.82 114.85 480.16 123.39 473.72C123.39 473.68 123.39 473.31 123.39 473.26C119.51 466.51 117.18 459 117.18 451.64C117.18 439.07 123.72 426.18 136.14 426.18C145.45 426.18 152.65 434.77 152.65 448.11C152.65 459 148.11 467.59 136.24 475.71C136.24 475.76 136.24 476.13 136.24 476.17C142.56 486.3 149.66 497.64 154.43 505C157.86 497.79 160.19 487.83 161.63 474.79C162.52 474.79 169.62 474.79 170.5 474.79C168.51 491.05 165.29 503.93 159.75 512.98C163.74 518.8 167.62 524.63 172.05 531.23C169.75 531.23 162.83 531.23 160.53 531.23ZM127.71 480.93C123.72 484.45 118.06 491.05 118.06 501.94C118.06 513.74 124.38 522.79 133.36 522.79C139.79 522.79 145.23 518.8 148.77 513.44C144.34 506.69 136.02 494.12 127.71 480.93ZM131.7 468.97C139.24 462.99 144.12 457.47 144.12 448.72C144.12 442.44 141.57 435.38 135.47 435.38C129.26 435.38 126.05 442.44 126.05 450.41C126.05 457.77 128.48 463.45 131.7 468.97Z" id="czMJ9p0Go"></path><path d="M193.01 531.23L174.05 427.87L184.25 427.87C189.58 459.25 192.53 476.68 193.12 480.16C195.34 493.04 197.33 505.93 198.67 515.89C198.69 515.89 198.87 515.89 198.89 515.89C200.11 505.62 202.44 493.35 204.99 480.01C205.65 476.53 208.98 459.15 214.96 427.87L225.05 427.87C230.51 459.34 233.54 476.82 234.14 480.31C236.25 492.58 238.24 504.85 239.35 515.74C239.37 515.74 239.55 515.74 239.57 515.74C241.13 504.39 243.23 492.89 245.56 480.01C246.22 476.53 249.51 459.15 255.43 427.87L265.3 427.87L244.12 531.23L234.03 531.23C228.38 498.93 225.24 480.99 224.61 477.4C222.28 464.21 220.73 454.09 219.73 443.66C219.71 443.66 219.53 443.66 219.51 443.66C218.18 453.94 216.52 464.06 213.74 477.4C213.03 480.99 209.49 498.93 203.1 531.23L193.01 531.23Z" id="aRDvXB5bF"></path><path d="M336.81 482.77L307.76 482.77L307.76 520.03L340.14 520.03L340.14 531.23L298.12 531.23L298.12 427.87L338.47 427.87L338.47 439.07L307.76 439.07L307.76 471.73L336.81 471.73L336.81 482.77Z" id="k1l1RkXtoj"></path><path d="M356.88 457.01C361.47 466.58 364.02 471.89 364.53 472.95C366.53 477.1 368.19 480.93 369.96 485.07C369.99 485.07 370.26 485.07 370.29 485.07C372.07 480.62 373.84 476.79 375.62 472.8C376.12 471.75 378.63 466.48 383.16 457.01L393.69 457.01L375.39 492.89L394.24 531.23L383.16 531.23C378.43 521.2 375.81 515.63 375.28 514.51C373.18 510.22 371.4 506.08 369.52 501.63C369.5 501.63 369.32 501.63 369.3 501.63C367.52 506.08 365.64 510.07 363.64 514.51C363.13 515.63 360.54 521.2 355.88 531.23L345.13 531.23L364.2 493.35L346.01 457.01L356.88 457.01Z" id="a41hAgb6m"></path><path d="M403.22 457.01C403.81 457.01 406.73 457.01 411.98 457.01L412.42 469.73C412.56 469.73 412.63 469.73 412.65 469.73C416.64 460.69 422.96 455.32 431.71 455.32C444.68 455.32 454.44 470.5 454.44 493.05C454.44 519.73 442.69 532.91 430.05 532.91C422.95 532.91 416.75 528.62 413.53 521.26C413.52 521.26 413.44 521.26 413.31 521.26L413.31 561.59L403.66 561.59L403.66 481.24C403.52 469.79 403.37 461.71 403.22 457.01ZM413.31 501.02C413.31 503.01 413.53 504.85 413.75 506.54C415.53 515.89 421.4 522.33 428.39 522.33C438.7 522.33 444.68 510.68 444.68 493.66C444.68 478.78 439.03 466.06 428.72 466.06C422.07 466.06 415.86 472.65 413.98 482.77C413.64 484.45 413.31 486.45 413.31 488.29C413.31 490.84 413.31 498.47 413.31 501.02Z" id="cj96WLTQo"></path><path d="M466.75 480.16C466.75 471.42 466.64 463.91 466.31 457.01C466.88 457.01 469.72 457.01 474.84 457.01L475.17 471.58C475.44 471.58 475.59 471.58 475.62 471.58C478.06 461.61 483.93 455.32 490.47 455.32C491.58 455.32 492.36 455.48 493.24 455.78C493.24 457.05 493.24 467.24 493.24 468.51C492.25 468.2 491.25 468.05 489.92 468.05C483.05 468.05 478.17 475.26 476.84 485.38C476.61 487.22 476.39 489.36 476.39 491.67C476.39 494.3 476.39 507.49 476.39 531.23L466.75 531.23C466.75 503.99 466.75 486.97 466.75 480.16Z" id="b5HhIU5ntI"></path><path d="M525.73 522.33C532.72 522.33 536.93 520.65 540.59 518.5C540.75 519.47 542.08 527.19 542.25 528.16C538.81 530.31 532.94 532.76 524.4 532.76C507.88 532.76 498.02 517.73 498.02 495.34C498.02 472.95 507.55 455.32 523.18 455.32C540.7 455.32 545.35 476.63 545.35 490.28C545.35 493.04 545.13 495.19 545.02 496.57C542.51 496.57 529.94 496.57 507.33 496.57C513.09 513.74 519.23 522.33 525.73 522.33ZM535.93 486.91C536.04 478.32 533.38 464.98 522.41 464.98C512.54 464.98 508.22 477.55 507.44 486.91C513.14 486.91 530.23 486.91 535.93 486.91Z" id="bMDz6NjJ5"></path><path d="M556.11 517.42C558.99 520.03 564.09 522.79 568.97 522.79C576.07 522.79 579.39 517.89 579.39 511.75C579.39 505.31 576.62 501.79 569.41 498.11C559.77 493.35 555.22 485.99 555.22 477.1C555.22 465.14 562.21 455.32 573.74 455.32C579.17 455.32 583.94 457.47 586.93 459.92C586.69 460.9 584.74 468.76 584.49 469.74C582.39 467.9 578.51 465.44 573.52 465.44C567.75 465.44 564.54 470.05 564.54 475.57C564.54 481.7 567.76 484.46 574.74 488.14C584.05 493.05 588.82 499.49 588.82 510.53C588.82 523.56 581.5 532.76 568.75 532.76C562.88 532.76 557.44 530.77 553.67 527.7C554.16 525.65 555.62 519.48 556.11 517.42Z" id="kqrknQaUf"></path><path d="M600.02 517.42C602.9 520.03 608 522.79 612.88 522.79C619.97 522.79 623.3 517.89 623.3 511.75C623.3 505.31 620.53 501.79 613.32 498.11C603.67 493.35 599.13 485.99 599.13 477.1C599.13 465.14 606.11 455.32 617.64 455.32C623.08 455.32 627.84 457.47 630.84 459.92C630.59 460.9 628.64 468.76 628.4 469.74C626.29 467.9 622.41 465.44 617.42 465.44C611.66 465.44 608.44 470.05 608.44 475.57C608.44 481.7 611.66 484.46 618.64 488.14C627.96 493.05 632.72 499.49 632.72 510.53C632.72 523.56 625.41 532.76 612.66 532.76C606.78 532.76 601.35 530.77 597.58 527.7C598.07 525.65 599.53 519.48 600.02 517.42Z" id="a3xSmq1XHz"></path><path d="M110.96 641.22C108.89 641.22 107.12 640.2 105.65 638.17C104.18 636.14 103.45 633.69 103.45 630.83C103.45 627.18 103.45 598.05 103.45 594.41C103.45 590.52 104.47 587.16 106.5 584.32C108.24 582.07 110.28 580.84 112.62 580.61C114.59 580.61 130.31 580.61 132.27 580.61C132.86 580.61 133.42 580.81 133.93 581.21C133.97 581.21 134 581.24 134.03 581.29C134.07 581.29 134.11 581.32 134.15 581.38C134.17 581.4 134.31 581.61 134.33 581.63C134.35 581.66 134.37 581.69 134.39 581.7C134.42 581.71 134.43 581.73 134.43 581.76C134.43 581.76 134.45 581.78 134.49 581.8C134.54 581.91 134.57 581.96 134.58 581.97C134.62 582 134.65 582.03 134.67 582.04C134.69 582.05 134.7 582.07 134.7 582.1C134.72 582.12 134.79 582.23 134.92 582.44C134.95 582.57 134.98 582.64 134.98 582.65C135.02 582.68 135.05 582.73 135.07 582.8C135.09 582.87 135.11 582.95 135.13 583.02C135.15 583.09 135.17 583.12 135.2 583.12C135.2 583.13 135.2 583.2 135.2 583.21C135.24 583.26 135.26 583.32 135.27 583.38C135.28 583.43 135.29 583.48 135.29 583.5C135.29 583.52 135.32 583.62 135.32 583.63C135.34 583.66 135.35 583.7 135.36 583.76C135.37 583.82 135.38 583.87 135.38 583.93C135.4 583.96 135.41 584.03 135.41 584.14C135.43 584.2 135.44 584.27 135.44 584.36C135.44 584.37 135.45 584.44 135.47 584.57C135.47 584.85 135.47 585.01 135.47 585.04C135.47 586.26 135.16 587.31 134.53 588.19C133.91 589.07 133.15 589.51 132.27 589.51C131.35 589.51 126.74 589.51 118.44 589.51L118.44 604.42C123.47 604.42 126.26 604.42 126.82 604.42C128.09 604.42 129.18 605.05 130.07 606.32C130.96 607.58 131.42 609.13 131.44 610.98C131.4 612.77 130.93 614.27 130.04 615.49C129.14 616.71 128.07 617.32 126.82 617.32C126.26 617.32 123.47 617.32 118.44 617.32C118.44 625.42 118.44 629.92 118.44 630.82C118.44 633.66 117.66 636.16 116.1 638.32C114.83 639.97 113.46 640.9 111.98 641.13C111.78 641.15 111.17 641.2 110.96 641.22Z" id="b2peNVqpMt"></path><path d="M163.62 639.98C163.12 639.13 162.73 637.97 162.45 636.49C162.28 635.77 160.92 630.01 160.75 629.29C160.69 628.81 160.53 628.13 160.26 627.25C160.16 626.85 159.69 624.86 158.84 621.29L146.62 621.29C146.12 623.31 145.84 624.43 145.79 624.65C144.51 629.76 143.58 633.44 142.99 635.68C142.57 637.58 142.04 639 141.38 639.92C140.73 640.84 139.42 641.37 137.47 641.52C134.33 641.52 131.85 640.05 130.02 637.13C129.2 635.68 128.79 634.29 128.79 632.95C128.79 631.53 129.08 629.84 129.65 627.89C129.9 626.98 133.31 611.9 139.88 582.65C140.64 580.16 142.03 578.8 144.06 578.61C145.23 578.61 154.56 578.61 155.73 578.61C156.6 578.75 157.25 579.39 157.7 580.52C157.74 580.67 157.94 581.41 158.29 582.74C161.52 595.56 163.32 602.69 163.68 604.12C168.27 622.46 170.68 632.01 170.88 632.78C171.23 633.89 171.41 634.88 171.41 635.76C171.41 636.5 171.19 637.37 170.76 638.36C169.94 640.24 168.72 641.29 167.09 641.52C165.35 641.52 164.19 641.01 163.62 639.98ZM156.78 612.26L152.9 593.18L148.77 612.26L156.78 612.26Z" id="a1ij3JOpsS"></path><path d="M173.84 624.95C173.79 624.75 173.42 623.18 173.38 622.99C173.31 622.65 173.28 622.31 173.28 621.97C173.28 621.17 173.47 620.45 173.84 619.79C174.5 618.6 175.35 618 176.39 618C177.09 618 177.71 618.26 178.24 618.77C178.77 619.28 179.16 619.96 179.41 620.81C180.21 623.97 181.41 626.51 183.01 628.44C185.05 630.94 187.5 632.19 190.37 632.19C192.14 632.19 193.55 631.65 194.62 630.57C195.81 629.41 196.41 627.9 196.41 626.06C196.41 623.36 194.2 621.09 189.79 619.24C185.66 617.57 182.45 616.02 180.15 614.6C175.35 611.7 172.94 606.88 172.94 600.12C172.94 594.02 174.55 589.04 177.78 585.21C180.77 581.63 184.63 579.85 189.35 579.85C197.73 579.85 203.47 584.03 206.57 592.41C207.02 593.32 207.35 594.25 207.55 595.22C207.69 595.96 207.77 596.51 207.77 596.88C207.77 597.56 207.65 598.24 207.4 598.93C206.76 600.46 206.13 601.24 205.51 601.27C204.88 601.3 204.55 601.31 204.5 601.31C203.38 601.31 202.43 600.56 201.67 599.05C201.38 598.37 201.13 597.72 200.9 597.09C199.2 591.79 195.96 589.13 191.2 589.13C189.48 589.13 188.04 589.73 186.89 590.92C185.66 592.14 185.04 593.63 185.04 595.39C185.04 597.86 187.12 599.75 191.26 601.06C198.49 603.27 203.38 606.08 205.95 609.49C208.07 612.27 209.12 616.02 209.12 620.73C209.12 627.07 207.46 632.09 204.13 635.81C201.05 639.24 197.01 640.96 192 640.96C188.5 640.96 185.44 640.27 182.83 638.88C178.83 636.75 175.83 632.1 173.84 624.95Z" id="b8st3nl6CR"></path><path d="M225.26 632.83C225.26 629.96 225.26 615.64 225.26 589.86C218.76 589.86 215.14 589.86 214.42 589.86C212.96 589.86 211.88 589.12 211.19 587.64C210.84 586.82 210.66 585.98 210.66 585.13C210.66 584.28 210.84 583.43 211.19 582.57C211.8 581.27 212.67 580.53 213.8 580.36C217.49 580.36 247 580.36 250.69 580.36C252.17 580.36 253.25 581.1 253.93 582.57C254.29 583.43 254.48 584.28 254.48 585.13C254.48 585.98 254.29 586.82 253.93 587.64C253.25 589.12 252.17 589.86 250.69 589.86C249.97 589.86 246.36 589.86 239.85 589.86C239.85 615.64 239.85 629.96 239.85 632.83C239.46 635.27 238.59 637.26 237.24 638.81C235.88 640.36 234.32 641.13 232.55 641.13C230.77 641.13 229.21 640.36 227.86 638.81C226.52 637.26 225.65 635.27 225.26 632.83Z" id="a2WzrZ4oyo"></path><path d="M274.56 637.81C272.53 635.06 271.51 631.68 271.51 627.67C271.51 624.1 271.51 595.48 271.51 591.9C271.59 588.15 272.61 584.97 274.56 582.36C276.3 580.09 278.35 578.84 280.69 578.61C281.63 578.61 289.14 578.61 290.08 578.61C299.17 578.61 305.92 581.19 310.32 586.34C314.73 591.49 316.93 599.39 316.93 610.04C316.93 620.66 314.73 628.56 310.32 633.74C305.92 638.93 299.17 641.52 290.08 641.52C289.45 641.52 286.32 641.52 280.69 641.52C277.76 640.54 275.72 639.31 274.56 637.81ZM299.32 610.04C299.32 602.01 298.6 596.27 297.16 592.84C295.72 589.4 293.36 587.68 290.08 587.68C289.84 587.68 288.64 587.68 286.48 587.68L286.48 632.32C288.64 632.32 289.84 632.32 290.08 632.32C293.36 632.32 295.72 630.61 297.16 627.19C298.6 623.76 299.32 618.05 299.32 610.04Z" id="cn1KAYSvM"></path><path d="M321.52 637.26C319.48 634.5 318.47 631.12 318.47 627.12C318.47 623.83 318.47 597.49 318.47 594.2C318.47 590.17 319.48 586.8 321.52 584.1C323.26 581.83 325.3 580.6 327.64 580.4C329.6 580.4 345.3 580.4 347.26 580.4C347.77 580.4 348.28 580.57 348.8 580.91C348.86 580.94 348.89 580.96 348.9 580.97C348.91 580.99 348.94 581.01 349 581.03C349.05 581.06 349.09 581.1 349.14 581.16C349.17 581.2 349.41 581.51 349.44 581.55C349.49 581.55 349.51 581.56 349.51 581.59C349.51 581.6 349.52 581.62 349.54 581.67C349.76 582 349.88 582.19 349.91 582.23C349.91 582.28 349.92 582.32 349.94 582.33C349.96 582.35 349.98 582.37 350 582.4C350.01 582.42 350.05 582.53 350.12 582.74L350.21 582.99C350.23 583.04 350.24 583.07 350.24 583.08C350.27 583.11 350.28 583.16 350.31 583.23C350.33 583.3 350.34 583.37 350.35 583.44C350.36 583.51 350.37 583.57 350.38 583.61C350.39 583.65 350.4 583.73 350.4 583.85C350.4 583.85 350.41 583.88 350.43 583.93C350.43 584.01 350.43 584.05 350.43 584.06C350.45 584.09 350.46 584.16 350.46 584.27C350.46 584.28 350.47 584.36 350.49 584.48C350.49 584.69 350.49 584.8 350.49 584.83C350.49 586.05 350.18 587.1 349.55 587.98C348.93 588.86 348.16 589.3 347.26 589.3C346.34 589.3 341.73 589.3 333.43 589.3L333.43 604.21C338.44 604.21 341.22 604.21 341.78 604.21C343.07 604.21 344.16 604.82 345.04 606.04C345.92 607.26 346.4 608.76 346.46 610.55C346.46 610.56 346.46 610.66 346.46 610.68C346.46 612.44 345.98 613.97 345.04 615.28C344.16 616.5 343.07 617.11 341.78 617.11C341.22 617.11 338.44 617.11 333.43 617.11L333.43 632.06C341.78 632.03 346.42 632.02 347.35 632.01C347.41 632.04 347.52 632.06 347.69 632.06C347.73 632.09 347.78 632.1 347.84 632.1C347.91 632.1 347.96 632.12 348.01 632.16C348.07 632.21 348.11 632.23 348.15 632.25C348.19 632.26 348.23 632.28 348.26 632.29C348.29 632.31 348.35 632.34 348.44 632.38C348.54 632.42 348.63 632.48 348.72 632.54C348.81 632.62 348.9 632.68 348.98 632.74C349.06 632.85 349.15 632.95 349.23 633.04C349.31 633.12 349.4 633.19 349.51 633.25C349.57 633.39 349.63 633.5 349.68 633.57C349.73 633.64 349.76 633.7 349.78 633.76C349.87 633.87 349.93 633.98 349.98 634.08C350.04 634.18 350.08 634.27 350.12 634.35C350.14 634.42 350.23 634.76 350.4 635.38L350.49 636.14L350.49 636.74L350.46 637.08L350.43 637.38C350.36 637.79 350.32 638.01 350.31 638.06C350.29 638.09 350.27 638.12 350.27 638.15C350.27 638.17 350.27 638.21 350.26 638.25C350.25 638.29 350.22 638.34 350.18 638.4C350.18 638.41 350.16 638.52 350.15 638.53C350.11 638.59 350.09 638.64 350.09 638.7C350.09 638.7 350.08 638.7 350.06 638.7C350.06 638.75 350.06 638.78 350.06 638.78C350.04 638.78 350.02 638.8 350 638.83C350 638.83 350 638.86 350 638.91C349.98 638.96 349.97 638.99 349.97 639C349.92 639.05 349.89 639.11 349.87 639.17C349.85 639.22 349.83 639.26 349.81 639.27C349.79 639.29 349.77 639.31 349.75 639.34C349.71 639.39 349.67 639.46 349.63 639.55C349.58 639.63 349.55 639.69 349.5 639.72C349.46 639.74 349.44 639.77 349.43 639.78C349.42 639.79 349.4 639.82 349.38 639.84C349.34 639.9 349.31 639.95 349.29 639.99C349.27 640.04 349.24 640.06 349.21 640.08C349.18 640.09 349.15 640.11 349.13 640.14C349.11 640.17 349.09 640.19 349.06 640.2C349.03 640.22 349 640.24 348.98 640.27C348.97 640.27 348.92 640.31 348.92 640.31C348.9 640.34 348.88 640.36 348.86 640.37C348.83 640.39 348.81 640.41 348.79 640.44C348.79 640.44 348.74 640.48 348.73 640.48C348.3 640.79 347.81 640.95 347.25 640.95C345.95 640.95 339.41 640.95 327.64 640.95C324.72 639.98 322.68 638.75 321.52 637.26Z" id="d15dA42m96"></path><path d="M354.23 638.13C352.76 636.1 352.03 633.67 352.03 630.83C352.03 626.84 352.03 594.91 352.03 590.92C352.03 588.08 352.76 585.64 354.23 583.61C355.7 581.58 357.46 580.57 359.51 580.57C361.59 580.57 363.35 581.58 364.81 583.61C366.27 585.64 367 588.08 367 590.92C367 593.56 367 606.76 367 630.53C367.57 630.55 367.89 630.57 367.95 630.57C371.95 630.57 374.8 630.48 376.48 630.31C378.53 630.09 379.78 629.17 380.22 627.54C380.66 625.93 380.88 623.9 380.88 621.45C380.88 621.39 380.88 621.06 380.88 620.47C380.9 619.91 380.91 619.6 380.91 619.54C381.53 617.09 382.73 615.87 384.52 615.87C386.22 616.04 387.36 617.27 387.93 619.54C388 620.5 388.03 621.47 388.03 622.43C388.03 628.9 386.83 633.93 384.42 637.51C382.93 639.75 380.85 640.97 378.2 641.17C376.96 641.17 370.73 641.17 359.51 641.17C356.97 640.5 355.21 639.48 354.23 638.13Z" id="d5ZU9m8Pu"></path><path d="M391.75 640.96C391.07 640.62 390.54 640.06 390.15 639.28C389.76 638.5 389.56 637.64 389.56 636.7C389.56 635.74 389.76 634.87 390.15 634.08C390.54 633.3 391.07 632.74 391.75 632.4C393.29 632.4 394.28 632.11 394.72 631.53C395.16 630.94 395.38 629.5 395.38 627.2C395.38 623.9 395.38 597.42 395.38 594.11C395.38 591.81 395.16 590.37 394.72 589.79C394.28 589.21 393.29 588.92 391.75 588.92C391.07 588.61 390.54 588.06 390.15 587.28C389.76 586.5 389.56 585.61 389.56 584.61C389.56 583.68 389.76 582.82 390.15 582.04C390.54 581.26 391.07 580.71 391.75 580.4C393.92 580.4 411.29 580.4 413.46 580.4C414.12 580.71 414.64 581.26 415.05 582.04C415.44 582.82 415.65 583.68 415.65 584.61C415.65 585.61 415.45 586.5 415.05 587.28C414.65 588.06 414.12 588.61 413.46 588.92C411.9 588.95 410.9 589.25 410.47 589.81C410.04 590.38 409.83 591.82 409.83 594.11C409.83 597.42 409.83 623.9 409.83 627.2C409.83 629.5 410.05 630.95 410.49 631.53C410.93 632.11 411.92 632.4 413.46 632.4C414.12 632.74 414.65 633.3 415.05 634.08C415.45 634.87 415.65 635.74 415.65 636.7C415.65 637.64 415.45 638.5 415.05 639.28C414.65 640.06 414.12 640.62 413.46 640.96C409.12 640.96 396.09 640.96 391.75 640.96Z" id="bPnqm5vrR"></path><path d="M427.31 636.28C424.01 621.57 420.7 606.83 417.4 592.07C417.26 591.25 417.19 590.42 417.19 589.6C417.19 588.07 417.46 586.61 418.02 585.21C418.86 583.11 420.15 581.66 421.9 580.87C422.61 580.59 423.31 580.44 423.99 580.44C425.02 580.44 425.99 580.77 426.91 581.42C428.45 582.5 429.56 584.23 430.24 586.62C430.33 587.04 430.76 589.14 431.53 592.92L431.63 593.52L438.55 624.61C444.24 600.33 447.4 586.84 448.04 584.15C448.84 581.65 450.15 580.4 451.98 580.4C452.47 580.4 452.96 580.51 453.46 580.74C454.54 581.28 455.3 582.1 455.73 583.21C456.16 584.31 456.38 585.35 456.38 586.31C456.38 586.85 456.33 587.39 456.23 587.93C453.09 600.85 449.16 617.17 444.46 636.87C443.66 639.6 442.02 641.02 439.54 641.13C439.01 641.13 436.35 641.13 431.56 641.13C429.26 639.96 427.85 638.34 427.31 636.28Z" id="abqyHBTml"></path><path d="M460.35 637.26C458.32 634.5 457.31 631.12 457.31 627.12C457.31 623.83 457.31 597.49 457.31 594.2C457.31 590.17 458.32 586.8 460.35 584.1C462.1 581.83 464.14 580.6 466.48 580.4C468.44 580.4 484.13 580.4 486.1 580.4C486.61 580.4 487.12 580.57 487.64 580.91C487.7 580.94 487.73 580.96 487.74 580.97C487.75 580.99 487.78 581.01 487.84 581.03C487.89 581.06 487.93 581.1 487.97 581.16C488.01 581.2 488.25 581.51 488.28 581.55C488.32 581.55 488.34 581.56 488.34 581.59C488.35 581.6 488.36 581.62 488.38 581.67C488.6 582 488.72 582.19 488.75 582.23C488.75 582.28 488.76 582.32 488.78 582.33C488.8 582.35 488.82 582.37 488.84 582.4C488.85 582.42 488.89 582.53 488.96 582.74L489.05 582.99C489.07 583.04 489.08 583.07 489.08 583.08C489.1 583.11 489.12 583.16 489.15 583.23C489.17 583.3 489.18 583.37 489.19 583.44C489.2 583.51 489.21 583.57 489.22 583.61C489.23 583.65 489.24 583.73 489.24 583.85C489.24 583.85 489.25 583.88 489.27 583.93C489.27 584.01 489.27 584.05 489.27 584.06C489.29 584.09 489.3 584.16 489.3 584.27C489.3 584.28 489.31 584.36 489.33 584.48C489.33 584.69 489.33 584.8 489.33 584.83C489.33 586.05 489.02 587.1 488.39 587.98C487.76 588.86 487 589.3 486.1 589.3C485.17 589.3 480.57 589.3 472.27 589.3L472.27 604.21C477.28 604.21 480.06 604.21 480.62 604.21C481.91 604.21 483 604.82 483.88 606.04C484.76 607.26 485.23 608.76 485.29 610.55C485.29 610.56 485.29 610.66 485.29 610.68C485.29 612.44 484.82 613.97 483.88 615.28C483 616.5 481.91 617.11 480.62 617.11C480.06 617.11 477.28 617.11 472.27 617.11L472.27 632.06C480.62 632.03 485.26 632.02 486.19 632.01C486.25 632.04 486.36 632.06 486.53 632.06C486.57 632.09 486.62 632.1 486.68 632.1C486.75 632.1 486.8 632.12 486.85 632.16C486.9 632.21 486.95 632.23 486.99 632.25C487.03 632.26 487.07 632.28 487.1 632.29C487.13 632.31 487.19 632.34 487.28 632.38C487.38 632.42 487.47 632.48 487.56 632.54C487.65 632.62 487.74 632.68 487.82 632.74C487.9 632.85 487.99 632.95 488.07 633.04C488.15 633.12 488.24 633.19 488.35 633.25C488.41 633.39 488.47 633.5 488.52 633.57C488.57 633.64 488.6 633.7 488.62 633.76C488.7 633.87 488.77 633.98 488.82 634.08C488.87 634.18 488.92 634.27 488.96 634.35C488.98 634.42 489.07 634.76 489.24 635.38L489.33 636.14L489.33 636.74L489.3 637.08L489.27 637.38C489.19 637.79 489.15 638.01 489.15 638.06C489.12 638.09 489.11 638.12 489.11 638.15C489.11 638.17 489.11 638.21 489.1 638.25C489.09 638.29 489.06 638.34 489.02 638.4C489.02 638.41 488.99 638.52 488.99 638.53C488.95 638.59 488.93 638.64 488.93 638.7C488.93 638.7 488.92 638.7 488.9 638.7C488.9 638.75 488.9 638.78 488.9 638.78C488.88 638.78 488.86 638.8 488.83 638.83C488.83 638.83 488.83 638.86 488.83 638.91C488.82 638.96 488.81 638.99 488.8 639C488.76 639.05 488.73 639.11 488.71 639.17C488.69 639.22 488.67 639.26 488.65 639.27C488.63 639.29 488.61 639.31 488.59 639.34C488.55 639.39 488.5 639.46 488.47 639.55C488.42 639.63 488.38 639.69 488.34 639.72C488.3 639.74 488.27 639.77 488.27 639.78C488.25 639.79 488.24 639.82 488.22 639.84C488.18 639.9 488.15 639.95 488.13 639.99C488.11 640.04 488.08 640.06 488.05 640.08C488.02 640.09 487.99 640.11 487.97 640.14C487.95 640.17 487.93 640.19 487.89 640.2C487.86 640.22 487.84 640.24 487.82 640.27C487.81 640.27 487.76 640.31 487.76 640.31C487.74 640.34 487.71 640.36 487.69 640.37C487.67 640.39 487.65 640.41 487.63 640.44C487.63 640.44 487.58 640.48 487.57 640.48C487.14 640.79 486.65 640.95 486.09 640.95C484.78 640.95 478.25 640.95 466.48 640.95C463.56 639.98 461.52 638.75 460.35 637.26Z" id="bcXKYy4et"></path><path d="M517.47 637.09C515.67 634.76 514.76 631.03 514.76 625.89C514.76 625.36 514.76 621.17 514.76 620.65C514.76 619.11 514.71 617.79 514.61 616.69C512.37 616.88 509.91 616.98 507.22 616.98C507.1 616.98 506.48 616.98 505.37 616.98C505.37 625.11 505.37 629.62 505.37 630.53C505.37 632.34 505.05 634.03 504.42 635.57C503.78 637.12 502.9 638.35 501.77 639.26C500.56 640.17 499.35 640.62 498.14 640.62C496.93 640.62 495.71 640.17 494.5 639.26C492.16 637.27 490.95 634.36 490.87 630.53C490.87 626.84 490.87 597.33 490.87 593.64C490.87 589.89 491.77 586.71 493.58 584.1C495.28 581.63 497.45 580.23 500.08 579.89C501.45 579.89 512.47 579.89 513.84 579.89C520 579.89 524.52 581.26 527.39 584C530.27 586.74 531.7 591.02 531.7 596.84C531.7 603.31 530.33 608.11 527.58 611.23C528.3 613.68 528.66 617.99 528.66 624.18C528.66 626.45 528.78 628.02 529.03 628.87C529.29 629.72 529.73 630.14 530.35 630.14C531.11 630.14 531.61 629.22 531.86 627.37C531.98 626.61 532.26 626.03 532.69 625.63C533.12 625.23 533.58 625.03 534.08 625.03C534.69 625.03 535.23 625.37 535.68 626.05C536.05 626.62 536.23 627.29 536.23 628.06C535.94 631.86 535.18 634.76 533.92 636.75C532.29 639.33 529.64 640.62 525.94 640.62C522.06 640.62 519.24 639.44 517.47 637.09ZM514.8 604.18C516.05 602.81 516.68 600.5 516.68 597.26C516.68 594.2 516.07 592.03 514.87 590.75C513.67 589.47 511.58 588.83 508.61 588.83C508.4 588.83 507.35 588.83 505.47 588.83L505.47 606.25L508.36 606.25C511.82 605.79 513.96 605.1 514.8 604.18Z" id="d8aMzqCL3"></path><path d="M548.79 634.06C548.79 632.9 548.79 627.08 548.79 616.6C543.01 603.34 539.8 595.97 539.15 594.49C538.89 593.84 538.6 593.26 538.29 592.75C537.94 591.56 537.77 590.36 537.77 589.17C537.77 588.21 537.88 587.26 538.11 586.32C538.62 584.22 539.6 582.57 541.03 581.38C542.08 580.61 543.16 580.23 544.27 580.23C546.44 580.23 548.19 581.43 549.5 583.85C549.9 584.76 551.91 589.33 555.54 597.56L555.54 597.61L558.86 605.1C564.79 591.76 568.09 584.35 568.75 582.87C569.38 581.54 570.05 580.76 570.76 580.53C571.47 580.3 571.99 580.19 572.32 580.19C573.02 580.19 573.71 580.46 574.41 581C575.4 581.85 575.99 582.77 576.2 583.77C576.4 584.76 576.5 585.51 576.5 586.03C576.5 586.96 576.34 587.88 576.01 588.79C575.79 589.28 574.02 593.13 573.8 593.61C573.61 593.95 572.71 595.92 571.08 599.53C570.57 600.67 567.98 606.36 563.33 616.61C563.33 627.09 563.33 632.91 563.33 634.07C562.73 636.17 561.78 637.85 560.46 639.1C559.15 640.35 557.68 640.97 556.06 640.97C554.46 640.96 552.99 640.34 551.67 639.09C550.35 637.84 549.39 636.16 548.79 634.06Z" id="a3Df8dmKJo"></path><path d="M641.97 386.26C611.45 384.56 367.34 370.99 336.83 369.3C336.83 369.3 331.56 381.34 323.98 385.97C341.28 385.97 578.37 386.2 641.97 386.26Z" id="a1qFNO8u9"></path><path d="M185.46 365.01C182.83 362.77 179.75 361.45 176.43 361.45C169 361.45 162.68 367.97 160.26 377.09C158.18 375.3 155.74 374.22 153.11 374.22C148.61 374.22 144.66 377.28 142.19 381.94C139.64 382.42 126.92 384.78 104.01 389.04C125.5 389.04 137.44 389.04 139.83 389.04C139.82 389.09 139.81 389.13 139.8 389.17C149.36 389.17 225.8 389.17 235.36 389.17C235.36 389.16 235.36 389.14 235.36 389.13C236.84 389.13 248.69 389.13 250.17 389.13C231.9 376.02 232.27 344.27 209.95 342.3C198.89 342.3 189.42 351.69 185.46 365.01Z" id="ajQ0HYa1k"></path><path d="M127.06 357.46C127.06 353.33 129.48 349.97 132.48 349.97C135.47 349.97 137.89 353.33 137.89 357.46C137.89 357.46 137.89 357.46 137.89 357.46C137.89 361.6 135.47 364.96 132.48 364.96C129.48 364.96 127.06 361.6 127.06 357.46C127.06 357.46 127.06 357.46 127.06 357.46" id="b1SfZc2I0n"></path><path d="M153.94 328.13C153.94 322.21 157.41 317.41 161.68 317.41C165.96 317.41 169.43 322.21 169.43 328.13C169.43 328.13 169.43 328.13 169.43 328.13C169.43 334.04 165.96 338.84 161.68 338.84C157.41 338.84 153.94 334.04 153.94 328.13C153.94 328.13 153.94 328.13 153.94 328.13" id="fi9HBNqXT"></path><path d="M84.29 333.73C84.29 327.81 87.75 323.02 92.03 323.02C96.31 323.02 99.77 327.81 99.77 333.73C99.77 339.65 96.31 344.44 92.03 344.44C87.75 344.44 84.29 339.65 84.29 333.73" id="eiMBh7ANM"></path><path d="M220.04 162.39L204.8 87.18L183.88 134.78L220.04 162.39Z" id="d23sJbIyN8"></path><path d="M197.93 81.01L114.34 113.57L167.66 149.88L197.93 81.01Z" id="angcJZQzK"></path><path d="M201.9 84.65L201.9 84.65L201.9 84.65Z" id="arQ64bHVi"></path><path d="M109.44 122.75L124.87 198.9L148.89 149.61L109.44 122.75Z" id="acwbu7ym4"></path><path d="M169.79 165.16L155.84 155.66L132.79 202.96L214.58 171.11L179.09 144.01L169.79 165.16Z" id="c32zThpYYQ"></path><path d="M311.41 291.34C316.08 300.76 318.24 312.58 316.76 324.74C313.74 349.63 296.7 366.41 278.7 362.22C260.71 358.04 248.58 334.47 251.61 309.58C251.89 307.26 252.33 305.04 252.85 302.87C250.79 303.28 234.32 306.52 232.26 306.93C228.25 345.78 247.34 382.18 275.48 388.73C304.06 395.38 331.12 368.73 335.93 329.2C337.72 314.44 336.16 299.96 332 287.28C327.88 288.09 315.53 290.52 311.41 291.34Z" id="hu4wgwSUq"></path><path d="M402 46.18L394.09 34.34C382.53 49.12 376.11 57.33 374.83 58.97C373.14 61.13 373.04 64.77 374.6 67.1C374.82 67.44 376.64 70.15 376.86 70.49C378.42 72.83 381.06 72.97 382.74 70.81C385.31 67.53 391.73 59.32 402 46.18Z" id="f4lhn695Rv"></path><path d="M421.23 39.05C421.23 39.05 443.26 44.17 443.3 44.19C449.7 45.67 446.98 34.33 445.74 29.96C443.51 22.06 439.89 14.9 435.25 9.34C432.59 6.16 425.9 0.59 424.94 8.51C424.94 8.51 421.6 35.99 421.23 39.05Z" id="abtVsss3"></path><path d="M396.24 34.06C364.57 21.17 346.98 14 343.46 12.57C341.6 11.68 340.09 14.75 341.36 16.81C343.63 20.47 361.78 49.83 364.05 53.5C365.34 55.59 367.8 53.92 367.39 51.23C367.21 49.99 366.27 43.75 364.58 32.53L394.31 43.79L396.24 34.06Z" id="bRPShZctt"></path><path d="M270.58 317.27C270.58 306.51 276.88 297.78 284.67 297.78C292.45 297.78 298.75 306.51 298.75 317.27C298.75 317.27 298.75 317.27 298.75 317.27C298.75 328.03 292.45 336.76 284.67 336.76C276.88 336.76 270.58 328.03 270.58 317.27C270.58 317.27 270.58 317.27 270.58 317.27" id="aF3lOBWLe"></path><path d="M531.4 236.81C531.4 226.05 537.71 217.33 545.49 217.33C553.27 217.33 559.58 226.05 559.58 236.81C559.58 247.58 553.27 256.3 545.49 256.3C537.71 256.3 531.4 247.58 531.4 236.81" id="c6uK8aMFrp"></path><path d="M478.37 254.69C536.49 188.61 568.78 151.89 575.23 144.55C577.16 142.36 576.68 138.08 574.35 136.84C569.5 134.26 564.38 132.29 559.05 131.05C533.42 125.08 508.59 136.87 491.14 159.94C489.44 172.58 485.18 204.16 478.37 254.69Z" id="aHgqRMrss"></path><path d="M317.6 190.88C348.61 170.1 365.84 158.56 369.29 156.26C372.6 154.04 373 147.64 369.94 144.79C359.22 134.78 338.08 122.69 306.05 128.72C267.2 136.04 241.09 161.86 230.73 173.53C242.31 175.84 271.27 181.62 317.6 190.88Z" id="a1rcXmgddM"></path><path d="M129.76 224.85C129.02 221.29 130.52 217.56 133.09 216.54C142 213 213.27 184.68 222.18 181.14C222.89 180.85 223.65 180.8 224.38 180.98C227.86 181.84 255.69 188.73 259.17 189.59C261.81 190.24 263.57 193.74 263.1 197.39C262.63 201.05 260.09 203.48 257.46 202.82C255.21 202.27 243.99 199.49 223.78 194.49C170.98 215.47 141.64 227.13 135.78 229.46C135.33 229.64 134.88 229.73 134.43 229.73C132.32 229.73 130.38 227.8 129.76 224.85Z" id="b1PbDXiMtm"></path><path d="M222.92 288.26C222.5 291.68 222.3 295.13 222.19 298.57C233.75 296.26 326.18 277.82 337.73 275.52C330.74 247.14 312.85 225.87 291.35 220.87C259.06 213.38 228.35 243.59 222.92 288.26Z" id="a7bm7Fy41H"></path><path d="M345.05 274.06C337.52 241.31 317.14 216.65 292.56 210.93C256.29 202.49 221.83 236.43 215.73 286.6C215.19 291.04 214.93 295.55 214.86 300.03C213.68 300.27 204.23 302.15 203.05 302.39C197.85 303.42 193.29 297.54 193.72 290.3C195.07 267.97 202.77 223.67 240.74 193.44C245.5 189.65 251.03 188.06 256.47 189.12C260.67 189.94 281.67 194.01 319.46 201.35L372.69 164.68C367.96 193.79 365.34 209.96 364.81 213.2C363.56 220.91 364.14 228.98 366.48 236.2C367.04 237.9 371.47 251.58 372.02 253.29C375.47 263.93 383.8 269.83 392.06 267.47C397.25 265.99 438.75 254.14 443.94 252.66C450.96 250.65 456.44 243.08 457.91 233.38C458.76 227.74 465.56 182.65 466.41 177.02C467.55 169.5 466.11 161.67 462.51 155.82C457.71 148.01 433.7 108.96 390.48 38.66C399.43 26.73 404.4 20.09 405.39 18.77C408.15 15.08 412.58 15.38 415.06 19.42C420.9 28.89 450.09 76.26 502.64 161.52C492.63 226.97 487.08 263.33 485.97 270.6C484.37 281.06 478.4 289.19 470.81 291.24C465.01 292.79 434.47 300.98 409.38 307.71C393.33 312.02 379.51 315.72 375.81 316.72C367.01 319.09 356.68 312.94 353.02 301.63C351.43 296.12 346.64 279.57 345.05 274.06Z" id="cVioToDVH"></path><path d="M39.08 172.38L103.7 153.47L100.23 137.97L39.08 172.38Z" id="j2IE94LyB"></path><path d="M3.07 207.5L109.11 177.71L103.85 154.13L3.07 207.5Z" id="ahiIzb6ND"></path><path d="M48.6 212.43L112.68 193.68L109.25 178.3L48.6 212.43Z" id="b2fWBhEE0G"></path><path d="M544.75 193.39C546.93 193.28 549.16 193.48 551.4 194C569.39 198.18 581.52 221.75 578.49 246.64C575.46 271.53 558.43 288.31 540.43 284.12C522.44 279.94 510.31 256.36 513.34 231.48C513.45 230.53 513.63 229.62 513.78 228.7C511.82 230.93 496.13 248.82 494.17 251.06C497.76 280.73 514.55 305.35 537.21 310.62C565.78 317.28 592.85 290.62 597.65 251.1C601.89 216.23 587.4 183.01 564.3 171.09C560.39 175.55 546.7 191.16 544.75 193.39Z" id="b8vE7LVg"></path></defs><g><g><g><use xlink:href="#a5KEp0sYwe" opacity="1" fill="#737373" fill-opacity="1"></use><g><use xlink:href="#a5KEp0sYwe" opacity="1" fill-opacity="0" stroke="#000000" stroke-width="1" stroke-opacity="0"></use></g></g><g><use xlink:href="#czMJ9p0Go" opacity="1" fill="#737373" fill-opacity="1"></use><g><use xlink:href="#czMJ9p0Go" opacity="1" fill-opacity="0" stroke="#000000" stroke-width="1" stroke-opacity="0"></use></g></g><g><use xlink:href="#aRDvXB5bF" opacity="1" fill="#737373" fill-opacity="1"></use><g><use xlink:href="#aRDvXB5bF" opacity="1" fill-opacity="0" stroke="#000000" stroke-width="1" stroke-opacity="0"></use></g></g><g><use xlink:href="#k1l1RkXtoj" opacity="1" fill="#737373" fill-opacity="1"></use><g><use xlink:href="#k1l1RkXtoj" opacity="1" fill-opacity="0" stroke="#000000" stroke-width="1" stroke-opacity="0"></use></g></g><g><use xlink:href="#a41hAgb6m" opacity="1" fill="#737373" fill-opacity="1"></use><g><use xlink:href="#a41hAgb6m" opacity="1" fill-opacity="0" stroke="#000000" stroke-width="1" stroke-opacity="0"></use></g></g><g><use xlink:href="#cj96WLTQo" opacity="1" fill="#737373" fill-opacity="1"></use><g><use xlink:href="#cj96WLTQo" opacity="1" fill-opacity="0" stroke="#000000" stroke-width="1" stroke-opacity="0"></use></g></g><g><use xlink:href="#b5HhIU5ntI" opacity="1" fill="#737373" fill-opacity="1"></use><g><use xlink:href="#b5HhIU5ntI" opacity="1" fill-opacity="0" stroke="#000000" stroke-width="1" stroke-opacity="0"></use></g></g><g><use xlink:href="#bMDz6NjJ5" opacity="1" fill="#737373" fill-opacity="1"></use><g><use xlink:href="#bMDz6NjJ5" opacity="1" fill-opacity="0" stroke="#000000" stroke-width="1" stroke-opacity="0"></use></g></g><g><use xlink:href="#kqrknQaUf" opacity="1" fill="#737373" fill-opacity="1"></use><g><use xlink:href="#kqrknQaUf" opacity="1" fill-opacity="0" stroke="#000000" stroke-width="1" stroke-opacity="0"></use></g></g><g><use xlink:href="#a3xSmq1XHz" opacity="1" fill="#737373" fill-opacity="1"></use><g><use xlink:href="#a3xSmq1XHz" opacity="1" fill-opacity="0" stroke="#000000" stroke-width="1" stroke-opacity="0"></use></g></g><g><use xlink:href="#b2peNVqpMt" opacity="1" fill="#ff2359" fill-opacity="1"></use><g><use xlink:href="#b2peNVqpMt" opacity="1" fill-opacity="0" stroke="#000000" stroke-width="1" stroke-opacity="0"></use></g></g><g><use xlink:href="#a1ij3JOpsS" opacity="1" fill="#ff2359" fill-opacity="1"></use><g><use xlink:href="#a1ij3JOpsS" opacity="1" fill-opacity="0" stroke="#000000" stroke-width="1" stroke-opacity="0"></use></g></g><g><use xlink:href="#b8st3nl6CR" opacity="1" fill="#ff2359" fill-opacity="1"></use><g><use xlink:href="#b8st3nl6CR" opacity="1" fill-opacity="0" stroke="#000000" stroke-width="1" stroke-opacity="0"></use></g></g><g><use xlink:href="#a2WzrZ4oyo" opacity="1" fill="#ff2359" fill-opacity="1"></use><g><use xlink:href="#a2WzrZ4oyo" opacity="1" fill-opacity="0" stroke="#000000" stroke-width="1" stroke-opacity="0"></use></g></g><g><use xlink:href="#cn1KAYSvM" opacity="1" fill="#ff2359" fill-opacity="1"></use><g><use xlink:href="#cn1KAYSvM" opacity="1" fill-opacity="0" stroke="#000000" stroke-width="1" stroke-opacity="0"></use></g></g><g><use xlink:href="#d15dA42m96" opacity="1" fill="#ff2359" fill-opacity="1"></use><g><use xlink:href="#d15dA42m96" opacity="1" fill-opacity="0" stroke="#000000" stroke-width="1" stroke-opacity="0"></use></g></g><g><use xlink:href="#d5ZU9m8Pu" opacity="1" fill="#ff2359" fill-opacity="1"></use><g><use xlink:href="#d5ZU9m8Pu" opacity="1" fill-opacity="0" stroke="#000000" stroke-width="1" stroke-opacity="0"></use></g></g><g><use xlink:href="#bPnqm5vrR" opacity="1" fill="#ff2359" fill-opacity="1"></use><g><use xlink:href="#bPnqm5vrR" opacity="1" fill-opacity="0" stroke="#000000" stroke-width="1" stroke-opacity="0"></use></g></g><g><use xlink:href="#abqyHBTml" opacity="1" fill="#ff2359" fill-opacity="1"></use><g><use xlink:href="#abqyHBTml" opacity="1" fill-opacity="0" stroke="#000000" stroke-width="1" stroke-opacity="0"></use></g></g><g><use xlink:href="#bcXKYy4et" opacity="1" fill="#ff2359" fill-opacity="1"></use><g><use xlink:href="#bcXKYy4et" opacity="1" fill-opacity="0" stroke="#000000" stroke-width="1" stroke-opacity="0"></use></g></g><g><use xlink:href="#d8aMzqCL3" opacity="1" fill="#ff2359" fill-opacity="1"></use><g><use xlink:href="#d8aMzqCL3" opacity="1" fill-opacity="0" stroke="#000000" stroke-width="1" stroke-opacity="0"></use></g></g><g><use xlink:href="#a3Df8dmKJo" opacity="1" fill="#ff2359" fill-opacity="1"></use><g><use xlink:href="#a3Df8dmKJo" opacity="1" fill-opacity="0" stroke="#000000" stroke-width="1" stroke-opacity="0"></use></g></g><g><use xlink:href="#a1qFNO8u9" opacity="1" fill="#737373" fill-opacity="1"></use><g><use xlink:href="#a1qFNO8u9" opacity="1" fill-opacity="0" stroke="#000000" stroke-width="1" stroke-opacity="0"></use></g></g><g><use xlink:href="#ajQ0HYa1k" opacity="1" fill="#737373" fill-opacity="1"></use><g><use xlink:href="#ajQ0HYa1k" opacity="1" fill-opacity="0" stroke="#000000" stroke-width="1" stroke-opacity="0"></use></g></g><g><use xlink:href="#b1SfZc2I0n" opacity="1" fill="#737373" fill-opacity="1"></use><g><use xlink:href="#b1SfZc2I0n" opacity="1" fill-opacity="0" stroke="#000000" stroke-width="1" stroke-opacity="0"></use></g></g><g><use xlink:href="#fi9HBNqXT" opacity="1" fill="#737373" fill-opacity="1"></use><g><use xlink:href="#fi9HBNqXT" opacity="1" fill-opacity="0" stroke="#000000" stroke-width="1" stroke-opacity="0"></use></g></g><g><use xlink:href="#eiMBh7ANM" opacity="1" fill="#737373" fill-opacity="1"></use><g><use xlink:href="#eiMBh7ANM" opacity="1" fill-opacity="0" stroke="#000000" stroke-width="1" stroke-opacity="0"></use></g></g><g><use xlink:href="#d23sJbIyN8" opacity="1" fill="#737373" fill-opacity="1"></use><g><use xlink:href="#d23sJbIyN8" opacity="1" fill-opacity="0" stroke="#000000" stroke-width="1" stroke-opacity="0"></use></g></g><g><use xlink:href="#angcJZQzK" opacity="1" fill="#737373" fill-opacity="1"></use><g><use xlink:href="#angcJZQzK" opacity="1" fill-opacity="0" stroke="#000000" stroke-width="1" stroke-opacity="0"></use></g></g><g><use xlink:href="#arQ64bHVi" opacity="1" fill="#000000" fill-opacity="1"></use><g><use xlink:href="#arQ64bHVi" opacity="1" fill-opacity="0" stroke="#000000" stroke-width="1" stroke-opacity="0"></use></g></g><g><use xlink:href="#acwbu7ym4" opacity="1" fill="#737373" fill-opacity="1"></use><g><use xlink:href="#acwbu7ym4" opacity="1" fill-opacity="0" stroke="#000000" stroke-width="1" stroke-opacity="0"></use></g></g><g><use xlink:href="#c32zThpYYQ" opacity="1" fill="#737373" fill-opacity="1"></use><g><use xlink:href="#c32zThpYYQ" opacity="1" fill-opacity="0" stroke="#000000" stroke-width="1" stroke-opacity="0"></use></g></g><g><use xlink:href="#hu4wgwSUq" opacity="1" fill="#383838" fill-opacity="1"></use><g><use xlink:href="#hu4wgwSUq" opacity="1" fill-opacity="0" stroke="#000000" stroke-width="1" stroke-opacity="0"></use></g></g><g><use xlink:href="#f4lhn695Rv" opacity="1" fill="#ff2359" fill-opacity="1"></use><g><use xlink:href="#f4lhn695Rv" opacity="1" fill-opacity="0" stroke="#000000" stroke-width="1" stroke-opacity="0"></use></g></g><g><use xlink:href="#abtVsss3" opacity="1" fill="#ff2359" fill-opacity="1"></use><g><use xlink:href="#abtVsss3" opacity="1" fill-opacity="0" stroke="#000000" stroke-width="1" stroke-opacity="0"></use></g></g><g><use xlink:href="#bRPShZctt" opacity="1" fill="#ff2359" fill-opacity="1"></use><g><use xlink:href="#bRPShZctt" opacity="1" fill-opacity="0" stroke="#000000" stroke-width="1" stroke-opacity="0"></use></g></g><g><use xlink:href="#aF3lOBWLe" opacity="1" fill="#ff2359" fill-opacity="1"></use><g><use xlink:href="#aF3lOBWLe" opacity="1" fill-opacity="0" stroke="#000000" stroke-width="1" stroke-opacity="0"></use></g></g><g><use xlink:href="#c6uK8aMFrp" opacity="1" fill="#ff2359" fill-opacity="1"></use><g><use xlink:href="#c6uK8aMFrp" opacity="1" fill-opacity="0" stroke="#000000" stroke-width="1" stroke-opacity="0"></use></g></g><g><use xlink:href="#aHgqRMrss" opacity="1" fill="#ff2359" fill-opacity="1"></use><g><use xlink:href="#aHgqRMrss" opacity="1" fill-opacity="0" stroke="#000000" stroke-width="1" stroke-opacity="0"></use></g></g><g><use xlink:href="#a1rcXmgddM" opacity="1" fill="#ff2359" fill-opacity="1"></use><g><use xlink:href="#a1rcXmgddM" opacity="1" fill-opacity="0" stroke="#000000" stroke-width="1" stroke-opacity="0"></use></g></g><g><use xlink:href="#b1PbDXiMtm" opacity="1" fill="#ff2359" fill-opacity="1"></use><g><use xlink:href="#b1PbDXiMtm" opacity="1" fill-opacity="0" stroke="#000000" stroke-width="1" stroke-opacity="0"></use></g></g><g><use xlink:href="#a7bm7Fy41H" opacity="1" fill="#ff2359" fill-opacity="1"></use><g><use xlink:href="#a7bm7Fy41H" opacity="1" fill-opacity="0" stroke="#000000" stroke-width="1" stroke-opacity="0"></use></g></g><g><use xlink:href="#cVioToDVH" opacity="1" fill="#ff2359" fill-opacity="1"></use><g><use xlink:href="#cVioToDVH" opacity="1" fill-opacity="0" stroke="#000000" stroke-width="1" stroke-opacity="0"></use></g></g><g><use xlink:href="#j2IE94LyB" opacity="1" fill="#ff2359" fill-opacity="1"></use><g><use xlink:href="#j2IE94LyB" opacity="1" fill-opacity="0" stroke="#000000" stroke-width="1" stroke-opacity="0"></use></g></g><g><use xlink:href="#ahiIzb6ND" opacity="1" fill="#ff2359" fill-opacity="1"></use><g><use xlink:href="#ahiIzb6ND" opacity="1" fill-opacity="0" stroke="#000000" stroke-width="1" stroke-opacity="0"></use></g></g><g><use xlink:href="#b2fWBhEE0G" opacity="1" fill="#ff2359" fill-opacity="1"></use><g><use xlink:href="#b2fWBhEE0G" opacity="1" fill-opacity="0" stroke="#000000" stroke-width="1" stroke-opacity="0"></use></g></g><g><use xlink:href="#b8vE7LVg" opacity="1" fill="#383838" fill-opacity="1"></use><g><use xlink:href="#b8vE7LVg" opacity="1" fill-opacity="0" stroke="#000000" stroke-width="1" stroke-opacity="0"></use></g></g></g></g></svg>