<svg height="512" width="512" xmlns="http://www.w3.org/2000/svg"><path d="m256.015 512c-67.778.005-131.664-26.361-180.097-74.378-48.903-48.483-75.865-112.912-75.918-181.419-.053-68.419 26.55-132.752 74.907-181.149 48.355-48.394 112.662-75.049 181.074-75.054 68.562-.005 132.897 26.561 181.156 74.804s74.846 112.57 74.863 181.132c.014 55.94-17.692 109.086-51.202 153.691-7.759 10.328-19.628 16.776-32.562 17.69-13.049.923-25.835-3.851-35.083-13.097l-30.408-30.404 21.211-21.215 30.408 30.404c3.098 3.097 7.388 4.695 11.756 4.387 4.322-.306 8.119-2.36 10.692-5.784 29.574-39.365 45.2-86.277 45.188-135.664-.031-124.595-101.422-225.953-226.017-225.944-60.395.004-117.166 23.536-159.854 66.259-42.691 42.725-66.176 99.52-66.129 159.921.047 60.453 23.856 117.325 67.04 160.138 43.197 42.827 100.294 66.136 160.774 65.676 39.101-.307 77.556-10.763 111.208-30.238l15.026 25.966c-38.141 22.072-81.711 33.923-125.998 34.271-.678.004-1.357.007-2.035.007z" fill="#a5e9ff"/><path d="m257.814 481.993c-.6.005-1.198-.008-1.798-.008l.003 30.015c.676 0 1.355-.003 2.031-.008 44.288-.348 87.857-12.199 125.998-34.271l-15.026-25.966c-33.652 19.475-72.107 29.931-111.208 30.238z" fill="#87daff"/><path d="m437.137 74.804c-48.258-48.243-112.594-74.809-181.156-74.804l.002 30c124.596-.009 225.986 101.349 226.017 225.943.012 49.387-15.614 96.299-45.188 135.664-2.573 3.424-6.37 5.479-10.692 5.784-4.368.308-8.658-1.29-11.756-4.387l-30.408-30.404-21.211 21.215 30.408 30.404c9.248 9.246 22.034 14.02 35.083 13.097 12.935-.914 24.803-7.362 32.562-17.69 33.51-44.605 51.216-97.751 51.202-153.691-.017-68.561-26.604-132.888-74.863-181.131z" fill="#87daff"/><path d="m342.3 282.833-38.281 38.287c-58.886-7.931-105.206-54.244-113.145-113.129l38.281-38.287-70.716-70.706-49.051 49.058c-3.821 66.25 19.562 133.775 70.181 184.386s118.147 73.984 184.396 70.154l49.051-49.058z" fill="#00aaf0"/><g fill="#0096dc"><path d="m190.923 207.94-70.724-70.714 38.228-38.233 70.724 70.714z"/><path d="m374.792 391.776-70.724-70.714 38.228-38.233 70.724 70.714z"/></g></svg>