<svg height="512" width="512" xmlns="http://www.w3.org/2000/svg"><path d="m263.73 29.871v452.266c0 16.488-13.375 29.863-29.875 29.863h-203.977c-16.504 0-29.879-13.375-29.879-29.863v-452.266c0-16.492 13.375-29.867 29.879-29.867h203.977c16.5 0 29.875 13.375 29.875 29.867zm0 0" fill="#d2d2d7"/><path d="m263.73 29.871v452.266c0 16.488-13.375 29.863-29.875 29.863h-167.469c-16.504 0-29.879-13.375-29.879-29.863v-452.266c0-16.492 13.375-29.867 29.879-29.867h167.469c16.5 0 29.875 13.375 29.875 29.867zm0 0" fill="#ebebf0"/><path d="m38.918 0 13.332 57.738c.91 3.934 4.414 6.723 8.453 6.723h142.328c4.039 0 7.543-2.789 8.453-6.723l13.336-57.738c-65.449 0-147.133 0-185.902 0zm0 0" fill="#b9b9be"/><path d="m238.355 102.184v367.527c0 4.711-3.82 8.52-8.516 8.52h-195.934c-4.711 0-8.52-3.809-8.52-8.52v-367.527c0-4.711 3.809-8.52 8.52-8.52h195.934c4.695 0 8.516 3.809 8.516 8.52zm0 0" fill="#954c35"/><path d="m238.355 102.184v367.527c0 4.711-3.82 8.52-8.516 8.52h-166.688c-4.711 0-8.52-3.809-8.52-8.52v-367.527c0-4.711 3.809-8.52 8.52-8.52h166.688c4.695 0 8.516 3.809 8.516 8.52zm0 0" fill="#c0694e"/><path d="m145.93 22.465h-66.309c-5.043 0-9.129 4.086-9.129 9.129 0 5.039 4.086 9.125 9.129 9.125h66.309c5.039 0 9.125-4.086 9.125-9.125 0-5.043-4.086-9.129-9.125-9.129zm0 0" fill="#7d8287"/><path d="m184.117 31.594c0 5.438-4.41 9.848-9.848 9.848-5.441 0-9.848-4.41-9.848-9.848 0-5.441 4.406-9.852 9.848-9.852 5.438 0 9.848 4.41 9.848 9.852zm0 0" fill="#7d8287"/><path d="m477.582 443.773c-18.898-1.035-34.91 14.633-33.922 33.918 1.543 30.383-35.895 45.883-56.27 23.309-12.813-14.199-35.148-14.227-47.98 0-6.168 6.832-13.895 10.168-21.637 10.676-17.832 1.152-35.715-12.801-34.637-33.984 1.031-18.898-14.633-34.91-33.922-33.918-30.379 1.539-45.883-35.898-23.305-56.273 14.199-12.813 14.223-35.145 0-47.98-22.547-20.348-7.102-57.82 23.305-56.273 18.902 1.031 34.914-14.633 33.922-33.922-1.07-21.074 16.984-35.758 35.734-33.891 7.371.738 14.66 4.074 20.539 10.586 6.418 7.113 15.199 10.656 23.988 10.656 8.793 0 17.574-3.543 23.992-10.656 6.715-7.445 15.281-10.738 23.699-10.738 17.113 0 33.609 13.672 32.57 34.043-1.031 18.902 14.637 34.914 33.922 33.922 30.383-1.543 45.883 35.898 23.305 56.273-14.195 12.813-14.223 35.145 0 47.98 22.547 20.348 7.105 57.82-23.305 56.273zm0 0" fill="#af2727"/><path d="m477.582 443.773c-18.898-1.035-34.91 14.633-33.922 33.918 1.543 30.383-35.895 45.883-56.27 23.309-12.813-14.199-35.148-14.227-47.98 0-6.168 6.832-13.895 10.168-21.637 10.676-4.906-21.969-4.613-29.168-4.613-35.664 0-18.359-15.406-33.195-33.973-32.238-30.379 1.543-45.883-35.898-23.305-56.273 7.102-6.418 10.656-15.199 10.656-23.992 0-8.789-3.555-17.57-10.656-23.988-22.547-20.348-7.105-57.82 23.305-56.273.57.031 1.129.043 1.699.043 18.352 0 33.176-15.406 32.23-33.965-.496-9.824 3.016-24.383 5.754-33.891 7.371.738 14.66 4.074 20.539 10.586 6.418 7.113 15.199 10.656 23.988 10.656 8.793 0 17.574-3.543 23.992-10.656 6.715-7.445 15.281-10.738 23.699-10.738 17.113 0 33.609 13.672 32.57 34.043-1.031 18.902 14.637 34.914 33.922 33.922 30.383-1.543 45.883 35.898 23.305 56.273-14.195 12.813-14.223 35.145 0 47.98 22.547 20.348 7.105 57.82-23.305 56.273zm0 0" fill="#d63030"/><path d="m460.777 363.508c0 26.012-10.129 50.469-28.52 68.859-13.859 13.863-31.176 23.027-49.992 26.707-6.145 1.203-12.461 1.813-18.867 1.813-26.012 0-50.465-10.129-68.859-28.52-18.391-18.391-28.52-42.848-28.52-68.859 0-26.012 10.129-50.465 28.52-68.859 18.395-18.391 42.848-28.52 68.859-28.52 6.406 0 12.723.613 18.867 1.816 18.816 3.68 36.133 12.844 49.992 26.703 18.391 18.395 28.52 42.848 28.52 68.859zm0 0" fill="#fd9a9a"/><path d="m460.777 363.508c0 26.012-10.129 50.469-28.52 68.859-13.859 13.863-31.176 23.027-49.992 26.707-18.816-3.68-36.117-12.844-49.977-26.707-18.395-18.391-28.523-42.848-28.523-68.859 0-26.012 10.129-50.465 28.523-68.859 13.859-13.859 31.16-23.023 49.977-26.703 18.816 3.68 36.133 12.844 49.992 26.703 18.391 18.395 28.52 42.848 28.52 68.859zm0 0" fill="#fdbcbc"/><g fill="#d63030"><path d="m325.648 350.09c12.863 0 23.328-10.465 23.328-23.328s-10.465-23.324-23.328-23.324c-12.859 0-23.324 10.461-23.324 23.324s10.465 23.328 23.324 23.328zm0-31.102c4.289 0 7.777 3.488 7.777 7.773 0 4.289-3.488 7.777-7.777 7.777-4.285 0-7.773-3.488-7.773-7.777 0-4.285 3.488-7.773 7.773-7.773zm0 0"/><path d="m401.148 376.93c-12.859 0-23.324 10.465-23.324 23.328s10.465 23.324 23.324 23.324c12.863 0 23.328-10.461 23.328-23.324s-10.465-23.328-23.328-23.328zm0 31.101c-4.285 0-7.773-3.484-7.773-7.773s3.488-7.777 7.773-7.777c4.289 0 7.777 3.488 7.777 7.777s-3.488 7.773-7.777 7.773zm0 0"/><path d="m417.176 314.379c-2.898-3.172-7.816-3.395-10.984-.496l-96.07 87.773c-3.172 2.898-3.395 7.816-.496 10.984 1.531 1.68 3.633 2.531 5.742 2.531 1.875 0 3.75-.672 5.242-2.035l96.07-87.773c3.168-2.898 3.391-7.816.496-10.984zm0 0"/></g><path d="m181.059 421.762c-8.145 0-14.746-6.602-14.746-14.742v-177.102h29.488v177.102c0 8.141-6.602 14.742-14.742 14.742zm0 0" fill="#ffb52d"/><path d="m82.672 150.129c-21.031 0-35.391 35.258-35.391 58.191 0 18.898 8.465 35.172 20.645 42.57v156.129c0 8.141 6.605 14.742 14.746 14.742 8.145 0 14.746-6.602 14.746-14.742v-156.113c11.496-6.977 19.68-21.863 20.566-39.391 1.203-24.605-13.969-61.387-35.313-61.387zm0 0" fill="#ffb52d"/><path d="m216.449 214.305c0 .164-.02 9.207-.02 9.359h-.012c-1.148 31.277-38.852 45.402-60.387 23.836-11.586-11.551-10.367-24.469-10.367-33.195h.02v-64.172c0-4.625 4.043-8.316 8.781-7.715 3.93.496 6.77 4.023 6.77 7.973v57.891c0 3.328 2.695 6.023 6.023 6.023s6.023-2.695 6.023-6.023v-58.148c0-4.625 4.043-8.316 8.793-7.715 3.918.496 6.758 4.023 6.758 7.973.656 59.566-1.453 58.934 1.762 62.152 3.777 3.773 10.297 1.078 10.297-4.262v-58.148c0-4.625 4.043-8.316 8.781-7.715 3.93.496 6.77 4.023 6.77 7.973v63.914zm0 0" fill="#ffb52d"/><path d="m117.984 211.516c-25.418 24.051-62.48-4.441-54.945-49.98 26.727-32.992 56.781 12.52 54.945 49.98zm0 0" fill="#ffc14f"/><path d="m216.449 214.305c0 .164-.02 9.207-.02 9.359h-.012c-.039 1.133-.121 2.23-.258 3.309-5.723 1.918-11.766 2.945-18.008 2.945-21.461 0-40.516-12.121-52.469-30.863v-48.922c0-4.625 4.043-8.316 8.781-7.715 3.93.496 6.77 4.023 6.77 7.973v57.891c0 3.328 2.695 6.023 6.023 6.023s6.023-2.695 6.023-6.023v-58.148c0-4.625 4.043-8.316 8.793-7.715 3.918.496 6.758 4.023 6.758 7.973.656 59.566-1.453 58.934 1.762 62.152 3.777 3.773 10.297 1.078 10.297-4.262v-58.148c0-4.625 4.043-8.316 8.781-7.715 3.93.496 6.77 4.023 6.77 7.973v63.914zm0 0" fill="#ffc14f"/></svg>