<svg height="419.546" width="419.546" xmlns="http://www.w3.org/2000/svg"><path d="m308.271 61.512-11.76 11.76-86.73 86.74-86.74-86.74-11.77-11.77c25.71-24.24 60.36-39.1 98.5-39.1 38.13 0 72.79 14.86 98.5 39.11z" fill="#f2d664"/><path d="m296.506 73.272-86.73 86.74-86.74-86.74c22.72-21.26 53.23-34.3 86.73-34.3s64.01 13.04 86.74 34.3z" fill="#ed4c58"/><path d="m209.778 171.512-92.74 92.73-11.77 11.77c-24.24-25.71-39.1-60.36-39.1-98.5 0-41.18 17.33-78.31 45.1-104.51l11.77 11.77z" fill="#f2d664"/><path d="m353.378 177.512c0 38.14-14.86 72.79-39.1 98.5l-11.77-11.77-92.73-92.73 86.73-86.74 11.76-11.76c27.77 26.18 45.11 63.32 45.11 104.5z" fill="#f2d664"/><path d="m336.808 177.512c0 33.5-13.04 64.01-34.3 86.73-23.2 24.79-56.19 40.3-92.74 40.3-36.54 0-69.53-15.51-92.73-40.3-21.26-22.72-34.3-53.23-34.3-86.73 0-36.55 15.51-69.54 40.3-92.74l86.74 86.74 86.73-86.74c24.79 23.2 40.3 56.19 40.3 92.74z" fill="#ed4c58"/><path d="m159.388 87.112a13.5 13.5 0 1 1 27 0 13.5 13.5 0 1 1 -27 0" fill="#39b54a"/><path d="m202.388 116.362a9.75 9.75 0 1 1 19.5 0 9.75 9.75 0 1 1 -19.5 0" fill="#fff"/><path d="m216.888 72.862a9.75 9.75 0 1 1 19.5 0 9.75 9.75 0 1 1 -19.5 0" fill="#f2d664"/><path d="m112.888 133.112a6.25 6.25 0 1 1 12.5 0 6.25 6.25 0 1 1 -12.5 0" fill="#f2d664"/><path d="m272.388 127.112a6.25 6.25 0 1 1 12.5 0 6.25 6.25 0 1 1 -12.5 0" fill="#39b54a"/><path d="m10.972 150.612h390.915v246.53h-390.915z" fill="#fce583"/><path d="m61.526 178.7h116.211v218.443h-116.211z" fill="#d6be56"/><path d="m66.526 183.7h106.211v208.443h-106.211z" fill="#fff"/><path d="m72.124 189.966h95.015v195.912h-95.015z" fill="#baa342"/><path d="m77.624 195.966h84.015v183.912h-84.015z" fill="#2d4151"/><path d="m186.5 178.7h196.703v175.912h-196.703z" fill="#d6be56"/><path d="m385.333 223.946h-7.13v-40.246h-186.703v40.246h-7.129v7.929h7.129v117.737h186.703v-117.737h7.13z" fill="#fff"/><path d="m195.497 187.702h178.71v157.58h-178.71z" fill="#2d4151"/><path d="m186.5 359.612h196.703v32.531h-196.703z" fill="#d6be56"/><path d="m191.5 364.612h186.703v22.531h-186.703z" fill="#fff"/><path d="m0 148.622h419.546v14.667h-419.546z" fill="#2d4151"/><path d="m184.371 171.946h200.963v58h-200.963z" fill="#39b54a"/><path d="m209.491 171.946h25.12v58h-25.12z" fill="#ed4c58"/><path d="m234.611 171.946h25.12v58h-25.12z" fill="#fff"/><path d="m284.852 171.946h25.12v58h-25.12z" fill="#ed4c58"/><path d="m259.732 171.946h25.12v58h-25.12z" fill="#39b54a"/><path d="m309.972 171.946h25.12v58h-25.12z" fill="#fff"/><path d="m335.093 171.946h25.12v58h-25.12z" fill="#39b54a"/><path d="m360.213 171.946h25.12v58h-25.12z" fill="#ed4c58"/><path d="m184.371 171.49h200.963v6h-200.963z" fill="#d6be56"/><path d="m74.624 305.279h90.015v6h-90.015z" fill="#baa342"/><g fill="#ed4c58"><path d="m329.592 287.981-.094-2.422c-.027-8.083-2.233-16.253-6.849-23.583-4.628-7.348-11.064-12.877-18.365-16.392l-2.084-1.101-.071.134c-12.975-5.424-28.302-4.682-41.079 3.365-20.841 13.125-27.118 40.758-13.993 61.599s40.758 27.118 61.599 13.993c12.776-8.046 20.067-21.545 20.782-35.588zm-10.329-23.873c3.928 6.238 5.936 13.144 6.203 20.03l-40.474 1.558 18.892-35.832c6.092 3.214 11.452 8.007 15.379 14.244zm-12.74 56.083c-18.974 11.95-44.133 6.234-56.083-12.74s-6.235-44.133 12.74-56.083c11.526-7.259 25.331-7.989 37.074-3.198l-22.032 41.788 47.202-1.816c-.754 12.658-7.376 24.79-18.901 32.049z"/><path d="m265.139 265.362a3.25 3.25 0 1 1 6.5 0 3.25 3.25 0 1 1 -6.5 0"/><path d="m305.389 266.362a3.25 3.25 0 1 1 6.5 0 3.25 3.25 0 1 1 -6.5 0"/><path d="m299.639 301.112a3.25 3.25 0 1 1 6.5 0 3.25 3.25 0 1 1 -6.5 0"/><path d="m275.389 310.362a3.25 3.25 0 1 1 6.5 0 3.25 3.25 0 1 1 -6.5 0"/><path d="m252.639 291.612a3.25 3.25 0 1 1 6.5 0 3.25 3.25 0 1 1 -6.5 0"/></g><path d="m202.48 341.048h167.59v-95.871c-.001 0-26.913 84.126-167.59 95.871z" fill="#fcfafa"/><path d="m85.238 376.048h72.591v-41.526c-.001 0-11.658 36.439-72.591 41.526z" fill="#fcfafa"/><path d="m21.647 178.7h31.22v209.912h-31.22z" fill="#d6be56"/><path d="m26.647 183.7h21.221v199.912h-21.221z" fill="#fff"/><path d="m31.649 188.702h11.22v116.58h-11.22z" fill="#2d4151"/><path d="m31.649 311.283h11.22v67.33h-11.22z" fill="#2d4151"/><path d="m116.882 255.111a2.469 2.469 0 1 1 4.938 0 2.469 2.469 0 1 1 -4.938 0" fill="#d8d4d5"/><path d="m131.301 264.466-11.91-9.018-11.362 8.797-.336-.434 11.695-9.054 12.245 9.272z" fill="#c1b9bc"/><path d="m136.513 272.007c0 2.201-1.8 4-4 4h-25.763c-2.2 0-4-1.799-4-4v-5.293c0-2.199 1.8-4 4-4h25.763c2.2 0 4 1.801 4 4z" fill="#39b54a"/><path d="m111.577 265.104c.601 0 1.112.213 1.533.636s.631.933.631 1.529v4.935c0 .602-.212 1.112-.635 1.533s-.933.631-1.529.631c-.601 0-1.111-.211-1.529-.635-.418-.423-.628-.933-.628-1.529v-4.935c0-.601.212-1.112.635-1.533.422-.421.93-.632 1.522-.632zm.743 2.137c0-.217-.076-.4-.227-.553-.152-.151-.335-.227-.552-.227-.216 0-.401.075-.555.227s-.231.336-.231.553v4.949c0 .216.077.4.231.551.154.152.339.228.555.228.217 0 .4-.075.552-.228.151-.15.227-.335.227-.551z" fill="#fafcfc"/><path d="m117.095 265.22c.664 0 1.193.209 1.587.628.365.398.548.908.548 1.529v1.313c0 .597-.208 1.106-.624 1.529-.416.424-.92.635-1.512.635h-.786v3.406h-1.364v-9.04zm.816 2.179c0-.236-.071-.426-.213-.57s-.331-.217-.566-.217h-.822v2.894h.822c.217 0 .4-.077.552-.231.151-.153.227-.338.227-.555z" fill="#fafcfc"/><path d="m120.32 274.261v-9.047h3.881v1.37h-2.518v2.468h1.84v1.371h-1.84v2.467h2.518v1.371z" fill="#fafcfc"/><path d="m126.67 265.214 1.81 6.08v-6.08h1.364v9.047h-1.465l-1.875-5.793v5.793h-1.364v-9.047z" fill="#fafcfc"/><path d="m157.828 199.17v102.654h-58.724s51.53-16.485 58.724-102.654z" fill="#fcfafa"/><path d="m203.389 201.53c0 .538-.103 1.038-.308 1.5s-.48.865-.827 1.211c-.346.346-.749.622-1.211.827-.461.205-.961.308-1.499.308h-5.769v10.767h-3.845v-26.917h9.613c1.076 0 1.986.372 2.729 1.115.743.744 1.115 1.654 1.115 2.73v8.459zm-3.844 0v-8.459h-5.769v8.459z" fill="#fff"/><path d="m223.621 214.393h-3.845v-26.917h3.845z" fill="#fff"/><path d="m279.158 215.887h-13.766v-3.845l9.074-19.226h-8.766v-3.845h13.15v3.845l-9.074 19.226h9.382z" fill="#fff"/><path d="m254.491 215.887h-13.766v-3.845l9.074-19.226h-8.767v-3.845h13.15v3.845l-9.074 19.226h9.382v3.845z" fill="#39b54a"/><path d="m307.876 217.066h-4.075l-.77-3.845h-6.69l-.77 3.845h-4.075l5.768-26.917h4.845zm-5.613-7.691-2.5-12.535-2.653 12.535z" fill="#fff"/><path d="m184.371 223.946h200.963v7.93h-200.963z" fill="#fff"/></svg>