<?xml version="1.0" standalone="no"?>
<!DOCTYPE svg PUBLIC "-//W3C//DTD SVG 20010904//EN"
 "http://www.w3.org/TR/2001/REC-SVG-20010904/DTD/svg10.dtd">
<svg version="1.0" xmlns="http://www.w3.org/2000/svg"
 width="251.000000pt" height="252.000000pt" viewBox="0 0 251.000000 252.000000"
 preserveAspectRatio="xMidYMid meet">

<g transform="translate(0.000000,252.000000) scale(0.100000,-0.100000)"
fill="#000000" stroke="none">
<path d="M1269 2101 c-16 -16 -29 -39 -29 -50 0 -22 0 -22 139 3 l64 11 -31
33 c-41 44 -100 46 -143 3z"/>
<path d="M1468 2073 c6 -2 18 -2 25 0 6 3 1 5 -13 5 -14 0 -19 -2 -12 -5z"/>
<path d="M1246 1879 c-33 -26 -57 -73 -85 -163 -31 -102 -26 -192 13 -218 6
-4 -60 -8 -146 -8 l-158 0 0 -40 0 -40 230 0 230 0 0 40 c0 33 3 40 19 40 11
0 29 -12 41 -27 19 -24 21 -38 18 -95 -2 -38 0 -68 4 -68 11 0 10 -18 -3 -62
-10 -38 -10 -38 -63 -38 -60 0 -81 16 -96 72 -7 25 -6 48 4 81 l14 47 -164 0
-163 0 -16 -30 c-9 -17 -32 -41 -53 -54 -20 -13 -46 -33 -56 -45 l-19 -21 51
0 c40 0 52 -4 52 -15 0 -12 -14 -15 -64 -15 -48 0 -65 -4 -70 -15 -4 -11 2
-15 24 -15 17 0 30 -4 30 -10 0 -5 -16 -10 -35 -10 -31 0 -35 -3 -35 -25 0
-21 5 -25 28 -25 25 0 30 -5 41 -42 22 -75 78 -118 153 -118 78 0 142 49 157
121 l7 34 206 3 c207 2 207 2 226 27 20 25 33 32 31 18 -1 -5 -1 -21 0 -37 1
-25 4 -27 26 -22 19 5 25 2 25 -10 0 -32 43 -92 80 -113 161 -90 321 117 193
251 l-26 27 23 19 23 19 -29 20 c-42 29 -101 46 -140 40 -30 -5 -32 -4 -23 12
9 13 0 40 -45 130 -32 62 -55 116 -52 119 3 3 22 1 41 -5 l35 -11 0 74 0 74
-65 0 c-64 0 -119 -18 -127 -41 -2 -7 -17 -7 -50 1 -44 11 -48 16 -76 73 -53
111 -107 142 -166 96z m110 -169 c20 -49 36 -58 112 -66 l60 -7 7 32 c6 29 10
32 38 29 26 -2 33 -8 35 -30 2 -18 -3 -31 -15 -39 -18 -11 -18 -14 5 -83 13
-39 27 -97 29 -128 5 -49 2 -63 -21 -102 -39 -67 -49 -74 -93 -67 -37 6 -58
35 -36 50 13 8 43 131 43 174 0 46 -22 63 -111 85 -111 28 -123 36 -115 81 6
40 33 111 41 111 3 0 12 -18 21 -40z m-153 -77 c-7 -2 -19 -2 -25 0 -7 3 -2 5
12 5 14 0 19 -2 13 -5z m662 -458 c50 -49 17 -135 -53 -135 -72 0 -107 75 -61
134 28 35 80 36 114 1z m-815 -75 c0 -57 -90 -81 -135 -35 -45 44 -35 55 55
55 73 0 80 -2 80 -20z"/>
<path d="M490 695 c0 -18 5 -25 20 -25 17 0 20 -7 22 -52 1 -29 1 -63 0 -75 0
-18 5 -23 24 -23 23 0 24 2 24 80 0 79 0 80 25 80 18 0 25 5 25 20 0 18 -7 20
-70 20 -68 0 -70 -1 -70 -25z"/>
<path d="M668 708 c-11 -9 -17 -38 -21 -100 l-6 -88 47 0 c70 0 93 20 91 78
-1 26 1 56 5 68 11 30 -17 54 -63 54 -20 0 -44 -6 -53 -12z m62 -48 c0 -12
-28 -25 -36 -17 -9 9 6 27 22 27 8 0 14 -5 14 -10z m-2 -72 c-7 -19 -38 -22
-38 -4 0 10 9 16 21 16 12 0 19 -5 17 -12z"/>
<path d="M806 624 c-4 -53 -4 -99 -2 -102 3 -2 30 -1 61 3 50 6 55 9 55 31 0
21 -5 24 -36 24 l-37 0 6 70 c6 68 5 70 -17 70 -22 0 -23 -5 -30 -96z"/>
<path d="M1025 625 c-4 -53 -5 -98 -2 -101 3 -4 33 -3 66 1 51 6 61 10 61 26
0 15 -7 19 -39 19 -29 0 -40 5 -43 18 -4 15 0 17 21 15 33 -4 56 10 48 31 -5
12 -14 14 -37 10 -23 -5 -30 -3 -30 9 0 11 14 18 45 23 35 5 45 10 45 25 0 17
-8 19 -64 19 l-64 0 -7 -95z"/>
<path d="M1202 711 c-11 -7 -10 -16 6 -48 l21 -40 -24 -39 c-14 -21 -25 -45
-25 -51 0 -23 37 -13 55 14 l18 26 14 -26 c8 -15 22 -27 33 -27 24 0 24 -2 0
56 l-21 47 27 40 c21 32 23 41 12 48 -20 13 -24 11 -43 -18 l-18 -26 -14 26
c-15 29 -21 31 -41 18z"/>
<path d="M1372 709 c-23 -9 -24 -13 -20 -99 3 -78 5 -90 21 -90 12 0 17 8 17
29 0 24 5 31 30 36 59 13 84 79 48 122 -12 15 -62 16 -96 2z m66 -51 c2 -9 -6
-22 -17 -28 -19 -10 -21 -8 -21 20 0 25 4 31 17 28 10 -2 19 -11 21 -20z"/>
<path d="M1516 708 c-3 -7 -7 -53 -10 -101 -6 -88 -6 -88 16 -85 18 2 24 11
26 36 4 42 14 41 35 -4 16 -32 20 -34 35 -23 9 7 18 14 20 15 2 1 -3 16 -12
32 -14 26 -14 31 -1 42 18 15 20 71 3 88 -16 16 -107 16 -112 0z m84 -37 c0
-12 -29 -41 -41 -41 -10 0 -12 33 -2 43 10 10 43 8 43 -2z"/>
<path d="M1676 708 c-3 -7 -7 -52 -10 -100 -7 -99 -13 -93 82 -82 42 6 52 10
52 25 0 16 -8 19 -44 19 -35 0 -45 4 -49 19 -3 14 -1 18 9 14 26 -10 64 6 64
27 0 16 -6 20 -27 18 -45 -5 -42 16 5 26 30 7 42 15 42 28 0 15 -9 18 -60 18
-40 0 -62 -4 -64 -12z"/>
<path d="M1847 702 c-27 -29 -21 -68 13 -94 41 -30 39 -50 -2 -46 -44 4 -45
-23 -1 -35 25 -8 38 -6 58 7 36 24 34 64 -7 97 -24 20 -29 30 -23 45 8 18 9
17 12 -3 3 -15 11 -23 24 -23 17 0 20 6 17 33 -3 29 -6 32 -39 35 -24 2 -40
-3 -52 -16z"/>
<path d="M1987 702 c-27 -29 -21 -68 13 -94 41 -30 39 -50 -2 -46 -44 4 -45
-23 -1 -35 25 -8 38 -6 58 7 36 24 34 64 -7 97 -24 20 -29 30 -23 45 8 18 9
17 12 -3 3 -15 11 -23 24 -23 17 0 20 6 17 33 -3 29 -6 32 -39 35 -24 2 -40
-3 -52 -16z"/>
</g>
</svg>
