<svg height="261" width="361" xmlns="http://www.w3.org/2000/svg"><path d="m29.898 166.832h5.116v19.112h.177c1.058-1.529 2.117-2.94 3.117-4.234l12.114-14.878h6.351l-14.349 16.818 15.467 22.817h-6.058l-13.055-19.465-3.764 4.352v15.113h-5.116z" fill="#fff"/><path d="m86.59 206.468c-1.117-1.117-2.176-2.234-3.705-3.881-3.411 3.175-7.233 4.527-11.585 4.527-7.704 0-12.173-5.175-12.173-11.114 0-5.41 3.234-9.115 7.762-11.585v-.177c-2.058-2.587-3.293-5.469-3.293-8.292 0-4.821 3.47-9.762 10.056-9.762 4.939 0 8.762 3.293 8.762 8.409 0 4.176-2.411 7.469-8.704 10.586v.176c3.352 3.882 7.116 8.233 9.645 11.057 1.823-2.765 3.058-6.587 3.822-11.586h4.705c-1.059 6.234-2.764 11.174-5.704 14.644 2.117 2.234 4.175 4.47 6.527 6.998zm-6.234-6.822c-2.353-2.588-6.763-7.41-11.174-12.468-2.117 1.353-5.116 3.882-5.116 8.057 0 4.528 3.352 7.998 8.116 7.998 3.411 0 6.293-1.529 8.174-3.587zm-12.055-24.169c0 2.822 1.293 4.998 2.999 7.115 3.999-2.293 6.586-4.41 6.586-7.763 0-2.411-1.353-5.116-4.587-5.116-3.293 0-4.998 2.705-4.998 5.764z" fill="#fff"/><path d="m103.822 206.468-10.056-39.636h5.41l4.705 20.053c1.176 4.94 2.234 9.88 2.94 13.702h.118c.646-3.94 1.882-8.645 3.234-13.761l5.292-19.994h5.352l4.822 20.111c1.117 4.705 2.176 9.409 2.764 13.585h.118c.823-4.352 1.941-8.763 3.176-13.702l5.234-19.994h5.234l-11.232 39.636h-5.352l-4.999-20.642c-1.235-5.058-2.058-8.938-2.587-12.938h-.118c-.706 3.94-1.588 7.821-3.058 12.938l-5.646 20.642z" fill="#fff"/><path d="m180.099 187.885h-15.408v14.29h17.172v4.293h-22.288v-39.636h21.406v4.293h-16.29v12.525h15.408z" fill="#fff"/><path d="m190.744 178.005 4.058 6.116c1.059 1.588 1.941 3.058 2.881 4.646h.177c.941-1.705 1.882-3.176 2.823-4.704l3.999-6.058h5.586l-9.703 13.761 9.997 14.702h-5.88l-4.175-6.41c-1.118-1.646-2.059-3.234-3.058-4.939h-.118c-.941 1.705-1.941 3.234-2.999 4.939l-4.117 6.41h-5.705l10.115-14.525-9.645-13.938z" fill="#fff"/><path d="m215.562 187.297c0-3.646-.118-6.587-.235-9.292h4.646l.235 4.881h.117c2.117-3.47 5.469-5.527 10.115-5.527 6.88 0 12.055 5.821 12.055 14.467 0 10.232-6.233 15.289-12.938 15.289-3.764 0-7.057-1.646-8.762-4.469h-.118v15.466h-5.116v-30.815zm5.116 7.586c0 .765.118 1.47.235 2.117.941 3.587 4.058 6.057 7.762 6.057 5.469 0 8.645-4.469 8.645-10.997 0-5.704-3-10.585-8.468-10.585-3.528 0-6.822 2.528-7.821 6.41-.177.646-.353 1.411-.353 2.117z" fill="#fff"/><path d="m249.024 186.885c0-3.352-.059-6.233-.235-8.88h4.528l.176 5.587h.235c1.294-3.822 4.411-6.233 7.88-6.233.588 0 1 .059 1.47.176v4.882c-.529-.118-1.058-.177-1.764-.177-3.646 0-6.233 2.764-6.939 6.646-.118.705-.235 1.528-.235 2.411v15.172h-5.116z" fill="#fff"/><path d="m270.549 193.178c.118 6.998 4.587 9.879 9.762 9.879 3.705 0 5.939-.646 7.88-1.47l.882 3.705c-1.823.823-4.94 1.764-9.468 1.764-8.762 0-13.996-5.763-13.996-14.349s5.057-15.349 13.349-15.349c9.292 0 11.761 8.174 11.761 13.408 0 1.059-.117 1.882-.176 2.411h-19.994zm15.172-3.705c.059-3.293-1.353-8.41-7.174-8.41-5.234 0-7.527 4.822-7.939 8.41z" fill="#fff"/><path d="m296.426 201.175c1.529 1 4.234 2.059 6.821 2.059 3.764 0 5.528-1.882 5.528-4.234 0-2.47-1.47-3.822-5.293-5.233-5.116-1.823-7.527-4.646-7.527-8.057 0-4.587 3.705-8.351 9.821-8.351 2.882 0 5.411.823 6.998 1.764l-1.293 3.764c-1.118-.705-3.176-1.646-5.822-1.646-3.058 0-4.763 1.765-4.763 3.882 0 2.352 1.706 3.41 5.41 4.822 4.94 1.882 7.469 4.352 7.469 8.585 0 4.999-3.881 8.527-10.644 8.527-3.117 0-5.999-.765-7.998-1.94z" fill="#fff"/><path d="m319.715 201.175c1.529 1 4.234 2.059 6.821 2.059 3.764 0 5.528-1.882 5.528-4.234 0-2.47-1.47-3.822-5.293-5.233-5.116-1.823-7.527-4.646-7.527-8.057 0-4.587 3.705-8.351 9.821-8.351 2.882 0 5.411.823 6.998 1.764l-1.293 3.764c-1.118-.705-3.176-1.646-5.822-1.646-3.058 0-4.763 1.765-4.763 3.882 0 2.352 1.706 3.41 5.41 4.822 4.94 1.882 7.469 4.352 7.469 8.585 0 4.999-3.881 8.527-10.644 8.527-3.117 0-5.999-.765-7.998-1.94z" fill="#fff"/><g fill="#ff2359"><path d="m60.299 248.649c-1.1 0-2.039-.39-2.817-1.168-.779-.778-1.168-1.718-1.168-2.817v-13.965c0-1.492.539-2.782 1.617-3.871.925-.86 2.009-1.334 3.25-1.421h10.421c.315 0 .609.076.882.229.021 0 .038.011.049.032.022 0 .043.012.065.033l.098.098c.011.011.021.02.033.024.011.006.016.014.016.024l.033.017.049.065c.022.011.038.02.049.024.011.006.016.014.016.024l.114.131.033.082c.022.011.038.029.049.057.011.027.021.055.033.082.011.027.021.041.033.041v.032c.021.022.035.044.041.065s.008.038.008.049l.016.049c.011.012.019.027.024.05.005.021.008.043.008.064.011.012.017.039.017.082.011.022.016.049.016.082l.017.081v.18c0 .469-.167.871-.499 1.209s-.732.506-1.2.506h-7.334v5.717h4.443c.675 0 1.25.243 1.723.728s.716 1.08.727 1.788c-.022.686-.27 1.264-.743 1.731-.474.468-1.043.702-1.707.702h-4.443v5.178c0 1.089-.414 2.047-1.241 2.875-.675.631-1.405.99-2.188 1.077z"/><path d="m90.074 248.764c-.925 0-1.541-.196-1.845-.588-.262-.327-.469-.773-.621-1.34l-.898-2.76c-.033-.186-.12-.446-.262-.784l-.751-2.287h-6.484l-.441 1.291c-.675 1.96-1.171 3.37-1.486 4.23-.218.729-.501 1.271-.85 1.625s-1.04.558-2.074.612c-1.666 0-2.983-.561-3.953-1.683-.436-.555-.653-1.089-.653-1.601 0-.544.152-1.192.458-1.943.13-.349 1.938-6.131 5.422-17.346.403-.958 1.144-1.476 2.221-1.552h6.19c.458.055.806.3 1.045.734l.311.85 2.858 8.199c2.439 7.034 3.713 10.698 3.822 10.992.185.425.278.807.278 1.144 0 .283-.115.615-.343.996-.435.72-1.083 1.124-1.944 1.211zm-5.471-11.221-2.058-7.317-2.189 7.317z"/><path d="m98.421 247.751c-2.124-.816-3.713-2.597-4.77-5.341l-.245-.752c-.033-.13-.049-.261-.049-.392 0-.305.098-.582.294-.833.349-.457.8-.686 1.355-.686.37 0 .697.098.98.294.283.195.49.457.621.783.424 1.209 1.062 2.184 1.911 2.924 1.078.959 2.379 1.438 3.904 1.438.937 0 1.688-.207 2.254-.62.631-.446.947-1.023.947-1.731 0-1.034-1.17-1.905-3.512-2.613-2.188-.643-3.893-1.236-5.112-1.78-2.548-1.111-3.822-2.962-3.822-5.554 0-2.341.854-4.247 2.564-5.717 1.589-1.372 3.637-2.058 6.141-2.058 4.443 0 7.486 1.606 9.13 4.818.239.349.414.708.522 1.078.076.283.115.495.115.637 0 .262-.065.522-.196.784-.337.588-.672.888-1.004.898-.333.011-.509.016-.531.016-.599 0-1.1-.288-1.503-.865-.152-.262-.289-.512-.408-.751-.904-2.036-2.619-3.055-5.145-3.055-.915 0-1.677.229-2.287.686-.653.469-.98 1.04-.98 1.716 0 .947 1.1 1.671 3.299 2.172 3.833.85 6.43 1.928 7.791 3.234 1.122 1.066 1.682 2.504 1.682 4.312 0 2.429-.882 4.355-2.646 5.782-1.633 1.317-3.778 1.977-6.435 1.977-1.86 0-3.483-.268-4.865-.801z"/><path d="m122.308 247.727c-.713-.594-1.173-1.358-1.38-2.295v-16.48h-5.75c-.773 0-1.345-.283-1.715-.849-.186-.316-.278-.638-.278-.964 0-.327.092-.653.278-.98.327-.501.789-.784 1.388-.85h19.567c.784 0 1.355.284 1.715.85.196.327.294.653.294.98 0 .326-.098.647-.294.964-.359.565-.931.849-1.715.849h-5.75v16.48c-.207.937-.669 1.701-1.388 2.295s-1.546.89-2.483.89c-.945-.001-1.776-.297-2.489-.89z"/><path d="m150.328 248.764c-1.241-.087-2.325-.561-3.25-1.421-1.078-1.057-1.617-2.353-1.617-3.888v-13.72c.043-1.438.583-2.656 1.617-3.658.925-.871 2.009-1.351 3.25-1.438h4.982c4.824 0 8.403.988 10.739 2.964 2.336 1.977 3.504 5.007 3.504 9.09 0 4.072-1.168 7.103-3.504 9.09-2.335 1.987-5.915 2.98-10.739 2.98h-4.982zm8.738-5.496c.762-1.313 1.144-3.504 1.144-6.574 0-3.081-.381-5.281-1.144-6.599s-2.015-1.977-3.756-1.977h-1.911v17.117h1.911c1.741 0 2.994-.655 3.756-1.967z"/><path d="m175.236 248.552c-1.241-.088-2.325-.562-3.25-1.422-1.078-1.056-1.617-2.352-1.617-3.887v-12.626c0-1.546.539-2.836 1.617-3.871.925-.871 2.009-1.345 3.25-1.421h10.404c.272 0 .544.065.817.196.033.011.051.02.057.024.005.006.021.014.049.024s.052.027.074.049l.163.147c.022 0 .033.006.033.017l.017.032.196.212c0 .022.005.036.016.041.011.006.022.014.033.024l.065.131.049.098.016.033c.011.011.021.03.033.057.011.027.019.055.024.082s.011.049.016.065.008.047.008.09l.017.032v.05c.011.011.016.038.016.081l.017.082v.131c0 .468-.167.871-.499 1.208-.332.338-.738.507-1.217.507h-7.333v5.717h4.426c.686 0 1.263.234 1.731.702s.719 1.045.751 1.731v.049c0 .675-.251 1.263-.751 1.764-.468.469-1.045.702-1.731.702h-4.426v5.733l7.383-.017c.033.011.092.017.18.017.021.011.049.017.082.017s.063.008.09.024c.027.017.051.027.073.032.022.006.041.011.057.017.017.006.049.017.098.032.049.017.098.039.147.065.049.027.095.052.139.074.043.043.087.081.131.114.043.032.092.06.147.081.033.055.063.096.09.123s.046.052.057.073c.043.044.079.084.106.122.027.039.051.074.073.106l.147.393.049.294v.229l-.017.131-.016.114-.065.261c-.011.011-.017.022-.017.033s-.002.024-.008.04c-.006.017-.02.036-.041.058l-.016.049c-.022.022-.033.044-.033.065h-.017v.033c-.011 0-.022.005-.033.016v.033l-.016.032c-.022.022-.039.044-.049.065-.011.022-.022.035-.033.041s-.022.014-.033.024c-.022.021-.044.049-.065.082-.022.032-.043.055-.065.065s-.036.019-.041.024c-.006.005-.014.014-.025.024-.022.021-.038.041-.049.057-.011.017-.024.027-.041.033-.016.005-.03.014-.041.024-.011.011-.024.019-.041.024-.016.006-.03.014-.041.024l-.032.017c-.011.011-.022.019-.033.024-.011.006-.022.014-.033.024l-.033.017c-.229.119-.49.18-.784.18h-10.402z"/><path d="m192.141 248.633c-1.089 0-2.022-.389-2.801-1.168-.779-.778-1.168-1.712-1.168-2.801v-15.305c0-1.088.389-2.022 1.168-2.801.778-.778 1.712-1.168 2.801-1.168 1.1 0 2.036.39 2.81 1.168.773.778 1.16 1.713 1.16 2.801v15.19l.506.017c2.123 0 3.631-.033 4.524-.099 1.088-.087 1.75-.44 1.984-1.062.234-.62.351-1.399.351-2.336v-.375l.017-.359c.327-.937.963-1.405 1.911-1.405.904.065 1.508.534 1.813 1.405.033.37.049.74.049 1.11 0 2.482-.637 4.41-1.911 5.782-.795.86-1.895 1.328-3.299 1.404h-9.915z"/><path d="m209.242 248.552c-.359-.131-.643-.346-.849-.646-.207-.3-.311-.629-.311-.988 0-.37.104-.705.311-1.005.207-.299.49-.514.849-.645.817 0 1.342-.111 1.576-.335s.351-.776.351-1.658v-12.69c0-.882-.117-1.435-.351-1.658s-.759-.335-1.576-.335c-.359-.119-.643-.329-.849-.629-.207-.299-.311-.64-.311-1.021 0-.359.104-.688.311-.988.207-.299.49-.509.849-.629h11.515c.348.12.628.33.841.629.212.3.319.629.319.988 0 .381-.106.722-.319 1.021-.212.3-.493.51-.841.629-.828.012-1.356.126-1.584.344s-.343.768-.343 1.649v12.69c0 .882.117 1.435.352 1.658.234.224.759.335 1.576.335.348.131.628.346.841.645.212.3.319.635.319 1.005 0 .359-.106.688-.319.988s-.493.515-.841.646z"/><path d="m230.36 248.616c-1.078-.054-1.829-.675-2.254-1.861-1.753-5.641-3.506-11.292-5.259-16.954-.076-.315-.114-.632-.114-.947 0-.588.147-1.148.441-1.683.446-.806 1.132-1.361 2.058-1.666.381-.108.751-.163 1.111-.163.544 0 1.062.125 1.551.376.817.414 1.405 1.077 1.764 1.992l.686 2.417.049.229 3.675 11.923 5.03-15.517c.425-.958 1.122-1.438 2.091-1.438.261 0 .523.044.784.131.577.207.98.522 1.208.947s.343.822.343 1.192c0 .207-.027.414-.082.621-1.666 4.954-3.746 11.21-6.239 18.767-.425 1.045-1.296 1.59-2.613 1.633h-4.23z"/><path d="m248.882 248.552c-1.241-.088-2.325-.562-3.25-1.422-1.078-1.056-1.617-2.352-1.617-3.887v-12.626c0-1.546.539-2.836 1.617-3.871.925-.871 2.009-1.345 3.25-1.421h10.404c.272 0 .544.065.817.196.033.011.051.02.057.024.005.006.021.014.049.024s.052.027.074.049l.163.147c.022 0 .033.006.033.017l.017.032.196.212c0 .022.005.036.016.041.011.006.022.014.033.024l.065.131.049.098.016.033c.011.011.021.03.033.057.011.027.019.055.024.082s.011.049.016.065.008.047.008.09l.017.032v.05c.011.011.016.038.016.081l.017.082v.131c0 .468-.167.871-.499 1.208-.332.338-.738.507-1.217.507h-7.333v5.717h4.426c.686 0 1.263.234 1.731.702s.719 1.045.751 1.731v.049c0 .675-.251 1.263-.751 1.764-.468.469-1.045.702-1.731.702h-4.426v5.733l7.383-.017c.033.011.092.017.18.017.021.011.049.017.082.017s.063.008.09.024c.027.017.051.027.073.032.022.006.041.011.057.017.017.006.049.017.098.032.049.017.098.039.147.065.049.027.095.052.139.074.043.043.087.081.131.114.043.032.092.06.147.081.033.055.063.096.09.123s.046.052.057.073c.043.044.079.084.106.122.027.039.051.074.073.106l.147.393.049.294v.229l-.017.131-.016.114-.065.261c-.011.011-.017.022-.017.033s-.002.024-.008.04c-.006.017-.02.036-.041.058l-.016.049c-.022.022-.033.044-.033.065h-.017v.033c-.011 0-.022.005-.033.016v.033l-.016.032c-.022.022-.039.044-.049.065-.011.022-.022.035-.033.041s-.022.014-.033.024c-.022.021-.044.049-.065.082-.022.032-.043.055-.065.065s-.036.019-.041.024c-.006.005-.014.014-.025.024-.022.021-.038.041-.049.057-.011.017-.024.027-.041.033-.016.005-.03.014-.041.024-.011.011-.024.019-.041.024-.016.006-.03.014-.041.024l-.032.017c-.011.011-.022.019-.033.024-.011.006-.022.014-.033.024l-.033.017c-.229.119-.49.18-.784.18h-10.402z"/><path d="m280.422 248.421c-2.058 0-3.555-.452-4.492-1.355-.958-.894-1.437-2.325-1.437-4.296v-2.009c0-.589-.027-1.095-.082-1.52-1.187.076-2.494.114-3.92.114h-.98v5.194c0 .697-.169 1.342-.506 1.936s-.806 1.064-1.405 1.413c-.643.349-1.285.522-1.927.522s-1.285-.174-1.927-.522c-1.241-.763-1.884-1.879-1.927-3.349v-14.145c0-1.438.479-2.657 1.438-3.659.903-.947 2.052-1.486 3.446-1.616h7.301c3.267 0 5.662.525 7.187 1.576s2.287 2.692 2.287 4.924c0 2.482-.729 4.323-2.188 5.521.381.937.572 2.592.572 4.966 0 .871.065 1.47.196 1.797.142.326.376.489.703.489.402 0 .669-.354.8-1.062.065-.294.212-.517.441-.67.229-.152.474-.229.735-.229.327 0 .61.131.85.393.196.218.294.474.294.768-.153 1.459-.561 2.569-1.225 3.332-.864.992-2.274 1.487-4.234 1.487zm-9.326-13.182c1.611 0 2.75-.264 3.414-.792.664-.527.997-1.412.997-2.654 0-1.176-.319-2.009-.956-2.499-.637-.489-1.745-.734-3.324-.734h-1.666v6.68h1.535z"/><path d="m294.069 247.833c-.702-.479-1.211-1.122-1.527-1.928v-6.696l-5.112-8.478c-.142-.25-.294-.474-.457-.669-.186-.458-.278-.915-.278-1.372 0-.37.06-.735.18-1.095.272-.806.79-1.438 1.552-1.895.555-.294 1.127-.441 1.715-.441 1.154 0 2.08.463 2.777 1.389l3.201 5.26v.016l1.764 2.875 5.243-8.526c.337-.512.694-.811 1.07-.898s.651-.13.825-.13c.37 0 .74.104 1.11.31.523.327.838.681.947 1.063.109.381.164.669.164.865 0 .359-.087.713-.261 1.062l-1.176 1.846c-.098.131-.577.888-1.438 2.271l-4.116 6.55v6.696c-.316.806-.822 1.448-1.519 1.928-.697.479-1.476.719-2.335.719-.851-.003-1.627-.243-2.329-.722z"/></g><path d="m173.295 150.762c9.177 0 168.672.111 168.672.111l-161.858-6.504s-2.793 4.618-6.814 6.393z" fill="#fff"/><path d="m112.807 134.016c-5.868 0-10.889 3.601-12.989 8.71-1.395-.86-3.032-1.366-4.792-1.366-3.943 0-7.293 2.5-8.579 5.996-1.104-.686-2.395-1.1-3.79-1.1-2.388 0-4.483 1.176-5.795 2.963l-20.248 2.723h18.998c-.003.017-.011.031-.014.048h50.686c.001-.005.002-.011.003-.016h7.853c-9.688-5.026-9.495-17.202-21.333-17.958z" fill="#fff"/><path d="m68.838 139.831a2.873 2.873 0 1 1 5.746 0 2.873 2.873 0 1 1 -5.746 0" fill="#fff"/><path d="m83.096 128.58a4.108 4.108 0 1 1 8.216 0 4.108 4.108 0 1 1 -8.216 0" fill="#fff"/><path d="m46.149 130.729a4.108 4.108 0 1 1 8.216 0 4.108 4.108 0 1 1 -8.216 0" fill="#fff"/><path d="m118.158 65.021-8.081-28.844-11.101 18.256z" fill="#fff"/><path d="m106.432 33.814-44.343 12.484 28.285 13.925z" fill="#fff"/><path d="m108.535 35.207-.001.001h.001z"/><path d="m59.492 49.819 8.182 29.203 12.744-18.901z" fill="#fff"/><path d="m91.503 66.082-7.397-3.642-12.229 18.138 43.386-12.214-18.828-10.392z" fill="#fff"/><path d="m166.626 114.471c2.479 3.613 3.624 8.148 2.839 12.811-1.606 9.544-10.644 15.979-20.188 14.373-9.544-1.605-15.979-10.644-14.373-20.188.149-.889.384-1.741.657-2.572l-10.92 1.556c-2.129 14.899 8 28.858 22.926 31.369 15.158 2.55 29.513-7.67 32.063-22.827.953-5.663.122-11.213-2.082-16.077z" fill="#fff"/><path d="m204.464 29.9 10.216-9.444-4.2-4.541-10.215 9.444c-.896.828-.95 2.226-.122 3.12l1.202 1.3c.827.895 2.224.95 3.119.121z"/><path d="m226.846 6.01-1.97 11.71s11.687 1.966 11.709 1.97c3.396.571 1.95-3.778 1.295-5.454-1.185-3.031-3.105-5.776-5.567-7.908-1.407-1.22-4.956-3.358-5.467-.318z"/><path d="m211.623 15.809-27.999-8.243c-.982-.343-1.786.834-1.11 1.624l12.035 14.073c.685.801 1.987.162 1.772-.87l-1.492-7.174 15.771 4.319z"/><path d="m144.966 124.417a7.473 7.473 0 1 1 14.946 0 7.473 7.473 0 1 1 -14.946 0"/><path d="m283.317 93.562a7.473 7.473 0 1 1 14.946 0 7.473 7.473 0 1 1 -14.946 0"/><path d="m255.188 100.416 51.381-42.236c1.021-.84.767-2.48-.467-2.956-2.577-.992-5.288-1.746-8.117-2.222-13.597-2.288-26.766 2.233-36.021 11.081z"/><path d="m123.829 69.293 46.08 6.652 27.416-13.276c1.759-.852 1.969-3.304.349-4.396-5.689-3.839-16.9-8.478-33.89-6.164-20.612 2.807-34.458 12.708-39.955 17.184z"/><path d="m72.749 90.844c-1.121 0-2.152-.737-2.477-1.868-.393-1.368.399-2.796 1.767-3.188l47.256-13.577c.378-.109.777-.13 1.165-.06l18.455 3.301c1.401.25 2.334 1.59 2.084 2.991-.251 1.402-1.594 2.336-2.991 2.083l-17.866-3.195-46.68 13.412c-.238.068-.478.101-.713.101z"/><path d="m155.986 87.448c-17.127-2.872-33.417 8.712-36.3 25.845-.22 1.31-.33 2.632-.386 3.951l61.286-8.84c-3.708-10.883-13.199-19.037-24.6-20.956z"/><path d="m184.469 107.844c-3.992-12.559-14.804-22.015-27.84-24.208-19.242-3.235-37.519 9.78-40.754 29.017-.287 1.706-.425 3.435-.462 5.152l-6.269.904c-2.756.397-5.175-1.859-4.944-4.635.712-8.563 4.796-25.551 24.938-37.145 2.527-1.455 5.458-2.063 8.346-1.657l33.411 4.69 28.236-14.064-4.18 18.608c-.665 2.959-.354 6.053.887 8.819l2.937 6.554c1.83 4.083 6.251 6.346 10.633 5.441l27.518-5.681c3.722-.769 6.632-3.673 7.409-7.394l4.511-21.615c.602-2.884-.163-5.884-2.071-8.128l-38.207-44.929 7.908-7.631c1.463-1.412 3.813-1.298 5.132.25l46.452 54.497-8.842 41.829c-.848 4.013-4.014 7.13-8.041 7.916l-50.393 9.771c-4.664.911-10.143-1.449-12.086-5.786z"/><path d="m22.17 68.854 34.276-7.254-1.837-5.944z"/><path d="m3.067 82.32 56.251-11.424-2.794-9.043z"/><path d="m27.218 84.213 33.991-7.194-1.82-5.895z"/><path d="m300.77 68.359-10.372 8.55c1.159-.04 2.338.034 3.526.234 9.543 1.605 15.979 10.644 14.373 20.188-1.606 9.543-10.644 15.979-20.188 14.373-9.544-1.605-15.979-10.645-14.373-20.188.061-.363.153-.713.235-1.067l-10.403 8.575c1.907 11.379 10.813 20.822 22.83 22.844 15.158 2.551 29.513-7.67 32.063-22.827 2.25-13.372-5.441-26.113-17.691-30.682z" fill="#fff"/></svg>